<svg fill="none" xmlns="http://www.w3.org/2000/svg" viewBox="0 0 687 262"><path d="M350.888 126.044c18.792 0 32.451-14.181 32.451-31.494v-.174c0-17.313-13.485-31.32-32.277-31.32s-32.451 14.181-32.451 31.494v.174c0 17.313 13.485 31.32 32.277 31.32zm.174-12.354c-10.788 0-18.444-8.7-18.444-19.14v-.174c0-10.44 7.482-18.966 18.27-18.966s18.444 8.7 18.444 19.14v.174c0 10.44-7.482 18.966-18.27 18.966zM393.484 125h13.398v-18.27h10.179c13.659 0 24.621-7.308 24.621-21.402v-.174c0-12.441-8.787-21.054-23.316-21.054h-24.882V125zm13.398-30.189V76.193h10.353c6.699 0 10.875 3.219 10.875 9.222v.174c0 5.22-3.915 9.222-10.614 9.222h-10.614zM449.857 125h46.371v-11.919h-33.06v-12.789h28.71V88.373h-28.71V76.019h32.625V64.1h-45.936V125zm56.543 0h13.225V86.285L549.118 125h11.397V64.1h-13.224v37.497L518.754 64.1H506.4V125zm-163.429 81.87c13.137 0 22.359-6.786 22.359-18.879v-.174c0-10.614-6.96-15.051-19.314-18.27-10.527-2.697-13.137-4.002-13.137-8.004v-.174c0-2.958 2.697-5.307 7.83-5.307s10.44 2.262 15.834 6.003l6.96-10.092c-6.177-4.959-13.746-7.743-22.62-7.743-12.441 0-21.315 7.308-21.315 18.357v.174c0 12.093 7.917 15.486 20.184 18.618 10.179 2.61 12.267 4.35 12.267 7.743v.174c0 3.567-3.306 5.742-8.787 5.742-6.96 0-12.702-2.871-18.183-7.395l-7.917 9.483c7.308 6.525 16.617 9.744 25.839 9.744zm61.826.174c18.792 0 32.451-14.181 32.451-31.494v-.174c0-17.313-13.485-31.32-32.277-31.32s-32.451 14.181-32.451 31.494v.174c0 17.313 13.485 31.32 32.277 31.32zm.174-12.354c-10.788 0-18.444-8.7-18.444-19.14v-.174c0-10.44 7.482-18.966 18.27-18.966s18.444 8.7 18.444 19.14v.174c0 10.44-7.482 18.966-18.27 18.966zm67.826 12.267c16.356 0 26.709-9.048 26.709-27.492V145.1h-13.398v34.887c0 9.657-4.959 14.616-13.137 14.616s-13.137-5.133-13.137-15.051V145.1h-13.398v34.8c0 17.922 10.005 27.057 26.361 27.057zm38.616-.957h13.398v-19.488h10.527L548.388 206h15.66l-14.877-21.75c7.743-2.871 13.05-9.048 13.05-18.879v-.174c0-5.742-1.827-10.527-5.22-13.92-4.002-4.002-10.005-6.177-17.748-6.177h-27.84V206zm13.398-31.32v-17.487h13.311c6.525 0 10.527 2.958 10.527 8.7v.174c0 5.133-3.741 8.613-10.266 8.613h-13.572zm76.269 32.364c11.745 0 18.705-4.176 24.969-10.875l-8.526-8.613c-4.785 4.35-9.048 7.134-16.008 7.134-10.44 0-17.661-8.7-17.661-19.14v-.174c0-10.44 7.395-18.966 17.661-18.966 6.09 0 10.875 2.61 15.573 6.873l8.526-9.831c-5.655-5.568-12.528-9.396-24.012-9.396-18.705 0-31.755 14.181-31.755 31.494v.174c0 17.487 13.311 31.32 31.233 31.32zM635.035 206h46.371v-11.919h-33.06v-12.789h28.71v-11.919h-28.71v-12.354h32.625V145.1h-45.936V206z" fill="#fff"/><path d="M152.182 179.225c18.82-6.99 28.645-20.451 28.645-43.619s-19.523-43.583-43.917-43.623c-25.742-.042-45.16 20.37-44.85 43.623.31 23.252 11.399 38.721 29.148 44.315L89.767 257.27c-42.081-10.894-84.88-60.537-84.88-121.664 0-72.401 58.175-131.094 131.09-131.094C208.891 4.512 268 63.205 268 135.606c0 62.078-42.393 111.029-85.372 121.881l-30.446-78.262z" stroke="#fff" stroke-width="8.968" stroke-linecap="round" stroke-linejoin="round"/></svg>