<?xml version="1.0" encoding="UTF-8" standalone="no"?>
<!DOCTYPE svg PUBLIC "-//W3C//DTD SVG 1.1//EN" "http://www.w3.org/Graphics/SVG/1.1/DTD/svg11.dtd">
<svg width="100%" height="100%" viewBox="0 0 612 612" version="1.1" xmlns="http://www.w3.org/2000/svg" xmlns:xlink="http://www.w3.org/1999/xlink" xml:space="preserve" xmlns:serif="http://www.serif.com/" style="fill-rule:evenodd;clip-rule:evenodd;stroke-linejoin:round;stroke-miterlimit:2;">
    <g>
        <g id="_x31__39_">
            <g>
                <path d="M459,18.075C395.257,18.075 347.023,55.484 306,94.575C266.909,53.093 216.744,18.075 153,18.075C63.227,18.075 0,95.263 0,179.433C0,224.587 18.494,257.119 38.747,287.661L276.528,572.738C303.227,600.986 308.257,600.986 334.955,572.738L573.271,287.661C597.082,257.119 612,224.587 612,179.433C612,95.264 548.772,18.075 459,18.075ZM535.5,279.744L306,553.575L76.5,278.615C49.056,240.461 38.25,214.719 38.25,179.433C38.25,113.681 85.202,54.489 153,53.934C208.769,53.475 271.977,110.429 306,153.365C339.125,111.921 403.231,53.934 459,53.934C525,53.934 573.75,113.681 573.75,179.433C573.75,214.719 565.201,242.373 535.5,279.744Z" style="fill:rgb(16,172,132);fill-rule:nonzero;"/>
            </g>
        </g>
        <g transform="matrix(1,0,0,1,-5.23091,31.1043)">
            <g transform="matrix(350,0,0,350,192.423,390.106)">
                <path d="M0.339,0.009C0.396,0.009 0.43,-0.016 0.452,-0.076L0.649,-0.607C0.654,-0.62 0.656,-0.633 0.656,-0.646C0.656,-0.687 0.625,-0.714 0.581,-0.714C0.542,-0.714 0.52,-0.697 0.508,-0.658L0.343,-0.152L0.34,-0.152L0.175,-0.656C0.163,-0.696 0.139,-0.714 0.1,-0.714C0.053,-0.714 0.022,-0.686 0.022,-0.645C0.022,-0.63 0.024,-0.617 0.029,-0.603L0.226,-0.076C0.247,-0.016 0.281,0.009 0.339,0.009Z" style="fill:rgb(16,172,132);fill-rule:nonzero;"/>
            </g>
        </g>
    </g>
</svg>
