<svg xmlns="http://www.w3.org/2000/svg" xmlns:xlink="http://www.w3.org/1999/xlink" width="100%" height="100%" version="1.1" viewBox="0 0 500 500" xml:space="preserve" style="fill-rule:evenodd;clip-rule:evenodd;stroke-linejoin:round;stroke-miterlimit:2"><g transform="matrix(1.1163,0,0,1.1163,-50.2241,-55.3977)"><circle cx="269.481" cy="273.385" r="220.162" style="fill:#fff"/><g><path d="M93.004,38.586C90.254,35.887 86.59,34.317 82.738,34.188C78.886,34.059 75.129,35.383 72.203,37.891C69.184,35.418 65.336,34.18 61.441,34.418C57.543,34.66 53.882,36.363 51.187,39.187C48.492,42.016 46.964,45.754 46.91,49.656C46.906,49.68 46.89,49.699 46.89,49.723C46.519,52.496 45.187,55.055 43.125,56.942L27.77,72.297L12.86,57.387C7.758,52.281 8.774,46.696 12.047,43.426C15.317,40.152 20.903,39.137 26.008,44.242C27.246,45.414 29.188,45.414 30.426,44.242C33.285,40.711 38.16,39.543 42.305,41.398C43.828,42.16 45.68,41.558 46.469,40.051C47.258,38.539 46.692,36.68 45.2,35.859C42.477,34.504 39.418,33.973 36.399,34.332C33.383,34.691 30.532,35.926 28.207,37.883C25.25,35.48 21.504,34.266 17.699,34.473C13.899,34.68 10.305,36.297 7.629,39.008C4.782,41.809 3.149,45.613 3.075,49.61C3.09,54.243 5.032,58.664 8.442,61.809L25.559,78.926C26.782,80.145 28.758,80.145 29.981,78.926L47.547,61.36C50.652,58.442 52.625,54.512 53.113,50.278C53.117,50.231 53.098,50.188 53.098,50.141C53.102,50.075 53.133,50.016 53.133,49.95C53.133,46.188 55.391,42.793 58.863,41.344C62.816,39.848 67.285,41.012 70.008,44.25C71.227,45.469 73.204,45.469 74.426,44.25C79.751,38.926 85.371,39.789 88.586,43.008C91.801,46.223 92.664,51.848 87.344,57.168L71.871,72.637L58.457,59.223L58.461,59.223C57.234,58.039 55.285,58.055 54.078,59.262C52.875,60.465 52.856,62.414 54.039,63.641L69.66,79.262L69.664,79.262C70.883,80.485 72.859,80.485 74.082,79.262L91.762,61.582C99.719,53.625 98.41,43.992 93.004,38.586L93.004,38.586Z" style="fill:url(#_Linear1);fill-rule:nonzero" transform="matrix(2.65608,0,0,2.65608,135.84,122.153)"/></g></g><defs><linearGradient id="_Linear1" x1="0" x2="1" y1="0" y2="0" gradientTransform="matrix(0.154132,44.738,-44.738,0.154132,50.7857,35.7585)" gradientUnits="userSpaceOnUse"><stop offset="0" style="stop-color:#a770ef;stop-opacity:1"/><stop offset=".51" style="stop-color:#cf8bf3;stop-opacity:1"/><stop offset="1" style="stop-color:#fdb99b;stop-opacity:1"/></linearGradient></defs></svg>