<?xml version="1.0" encoding="UTF-8" standalone="no"?>
<!DOCTYPE svg PUBLIC "-//W3C//DTD SVG 1.1//EN" "http://www.w3.org/Graphics/SVG/1.1/DTD/svg11.dtd">
<svg width="100%" height="100%" viewBox="0 0 500 500" version="1.1" xmlns="http://www.w3.org/2000/svg" xmlns:xlink="http://www.w3.org/1999/xlink" xml:space="preserve" xmlns:serif="http://www.serif.com/" style="fill-rule:evenodd;clip-rule:evenodd;stroke-linejoin:round;stroke-miterlimit:2;">
    <g transform="matrix(1.1163,0,0,1.1163,-50.2241,-55.3977)">
        <circle cx="269.481" cy="273.385" r="220.162" style="fill:white;"/>
    </g>
    <g transform="matrix(2.69793,0,0,2.69793,114.734,114.892)">
        <path d="M55.469,35.938L32.031,35.938C31.172,35.938 30.469,36.641 30.469,37.501C30.469,38.36 31.172,39.063 32.031,39.063L55.469,39.063C56.328,39.063 57.032,38.36 57.032,37.501C57.032,36.641 56.328,35.938 55.469,35.938Z" style="fill:url(#_Linear1);fill-rule:nonzero;"/>
        <path d="M55.469,54.688L32.031,54.688C31.172,54.688 30.469,55.391 30.469,56.251C30.469,57.11 31.172,57.813 32.031,57.813L55.469,57.813C56.328,57.813 57.032,57.11 57.032,56.251C57.032,55.391 56.328,54.688 55.469,54.688Z" style="fill:url(#_Linear2);fill-rule:nonzero;"/>
        <path d="M55.469,73.438L32.031,73.438C31.172,73.438 30.469,74.141 30.469,75.001C30.469,75.86 31.172,76.563 32.031,76.563L55.469,76.563C56.328,76.563 57.032,75.86 57.032,75.001C57.032,74.141 56.328,73.438 55.469,73.438Z" style="fill:url(#_Linear3);fill-rule:nonzero;"/>
        <path d="M26.875,52.031C26.25,51.406 25.313,51.406 24.688,52.031L19.375,57.187L17.5,55.312C16.875,54.687 15.859,54.687 15.313,55.312C14.688,55.937 14.688,56.953 15.313,57.5L18.281,60.469C18.359,60.469 18.359,60.547 18.438,60.547L18.516,60.625C18.594,60.625 18.594,60.703 18.672,60.703C18.75,60.703 18.75,60.781 18.828,60.781C18.906,60.781 18.984,60.859 18.984,60.859L19.766,60.859C19.844,60.859 19.922,60.859 19.922,60.781C20,60.781 20,60.703 20.078,60.703C20.156,60.703 20.156,60.625 20.234,60.625C20.313,60.625 20.313,60.547 20.313,60.547C20.391,60.547 20.391,60.469 20.469,60.469L26.875,54.219C27.5,53.672 27.5,52.656 26.875,52.031Z" style="fill:url(#_Linear4);fill-rule:nonzero;"/>
        <path d="M26.875,33.281C26.25,32.656 25.313,32.656 24.688,33.281L19.375,38.437L17.5,36.562C16.875,35.937 15.859,35.937 15.313,36.562C14.688,37.187 14.688,38.203 15.313,38.75L18.281,41.719C18.359,41.797 18.359,41.797 18.438,41.797L18.516,41.875C18.594,41.875 18.594,41.953 18.672,41.953L18.75,42.031C18.828,42.031 18.906,42.109 18.906,42.109L19.688,42.109C19.766,42.109 19.844,42.109 19.844,42.031C19.922,42.031 19.922,41.953 20,41.953C20.078,41.953 20.078,41.875 20.156,41.875L20.234,41.797C20.313,41.797 20.313,41.719 20.391,41.719L26.797,35.469C27.5,34.922 27.5,33.906 26.875,33.281Z" style="fill:url(#_Linear5);fill-rule:nonzero;"/>
        <path d="M24.688,70.781L19.376,75.937L17.501,74.062C16.876,73.437 15.86,73.437 15.313,74.062C14.688,74.687 14.688,75.703 15.313,76.25L18.282,79.219C18.36,79.219 18.36,79.297 18.438,79.297L18.516,79.375C18.594,79.375 18.594,79.453 18.672,79.453C18.751,79.453 18.751,79.531 18.829,79.531C18.907,79.531 18.985,79.609 18.985,79.609L19.766,79.609C19.844,79.609 19.922,79.609 19.922,79.531C20.001,79.531 20.001,79.453 20.079,79.453C20.157,79.453 20.157,79.375 20.235,79.375C20.313,79.375 20.313,79.297 20.313,79.297C20.391,79.297 20.391,79.219 20.469,79.219L26.875,72.969C27.5,72.344 27.5,71.406 26.875,70.781C26.329,70.156 25.313,70.156 24.688,70.781Z" style="fill:url(#_Linear6);fill-rule:nonzero;"/>
        <path d="M65,30.469C67.031,28.75 68.438,26.407 68.906,23.828C69.922,18.985 68.594,13.985 65.391,10.234C62.109,6.563 57.344,4.531 52.422,4.844C50.39,4.922 48.437,5.625 46.875,6.953C46.25,7.5 46.172,8.516 46.797,9.141C47.343,9.766 48.359,9.844 48.984,9.219C50,8.359 51.328,7.891 52.656,7.891C59.609,7.422 65.625,12.578 66.094,19.532C66.172,20.704 66.094,21.954 65.86,23.126C65.547,25.001 64.531,26.719 63.125,27.969C61.406,29.219 59.297,30.001 57.188,30.157C53.75,30.391 50.469,28.829 48.516,26.016C46.25,23.126 45.625,19.297 46.875,15.86C47.188,14.923 48.203,13.36 49.375,13.204C50.235,13.126 50.86,12.345 50.703,11.485C50.547,10.626 49.844,10.001 48.984,10.157C45.547,10.548 44.063,14.376 43.906,14.845C42.344,19.298 43.047,24.22 45.938,27.97C48.359,31.329 52.266,33.282 56.407,33.36L57.344,33.36C60.157,33.126 62.813,32.188 65,30.47L65,30.469Z" style="fill:url(#_Linear7);fill-rule:nonzero;"/>
        <path d="M61.328,16.328L60.547,16.328C60.312,16.406 60.156,16.406 60.078,16.406L60.078,18.281L58.359,18.281C58.359,18.437 58.281,18.594 58.281,18.75L58.281,19.531C58.281,19.687 58.281,19.844 58.359,20L60.078,20L60.078,21.875C60.391,21.953 60.625,21.953 60.937,21.953L61.328,21.953C61.484,21.953 61.641,21.875 61.797,21.875L61.797,20L63.516,20C63.516,19.844 63.594,19.687 63.594,19.531L63.594,18.75C63.594,18.594 63.516,18.437 63.516,18.281L61.719,18.281L61.719,16.406C61.562,16.406 61.406,16.406 61.328,16.328Z" style="fill:url(#_Linear8);fill-rule:nonzero;"/>
        <path d="M100,51.562C99.219,49.687 97.266,48.906 95.625,48.203C94.766,47.89 93.984,47.499 93.203,46.953C92.656,46.249 92.188,45.39 91.953,44.531C91.25,42.812 90.469,40.937 88.594,40.156C86.797,39.374 84.922,40.156 83.203,40.859C82.344,41.249 81.406,41.562 80.469,41.64C79.531,41.562 78.594,41.249 77.734,40.859C76.094,40.156 74.219,39.374 72.344,40.156C70.469,40.937 69.688,42.89 68.984,44.531C68.672,45.39 68.281,46.171 67.734,46.953C67.031,47.499 66.172,47.968 65.312,48.203C63.672,48.906 61.719,49.687 60.937,51.562C60.156,53.359 60.937,55.234 61.641,56.953C62.031,57.812 62.344,58.75 62.422,59.687C62.344,60.624 62.031,61.562 61.641,62.421C60.937,64.062 60.156,65.937 60.937,67.812C61.719,69.687 63.672,70.468 65.312,71.171C66.172,71.484 66.953,71.875 67.734,72.421C68.281,73.125 68.75,73.984 68.984,74.843C69.062,75.078 69.219,75.312 69.297,75.625L63.359,95.391C63.125,96.25 63.594,97.109 64.375,97.344C64.844,97.5 65.312,97.422 65.703,97.187L70.234,94.297L72.422,99.219C72.656,99.766 73.203,100.156 73.828,100.156L73.906,100.156C74.531,100.078 75.078,99.687 75.312,99.062L80.39,82.109L85.468,99.062C85.625,99.687 86.25,100.156 86.875,100.156L86.953,100.156C87.578,100.156 88.125,99.766 88.359,99.219L90.546,94.297L95.078,97.187C95.781,97.656 96.796,97.422 97.265,96.719C97.5,96.328 97.578,95.859 97.421,95.391L91.484,75.625C91.562,75.39 91.718,75.156 91.796,74.843C92.109,73.984 92.5,73.203 93.046,72.421C93.75,71.875 94.609,71.406 95.468,71.171C97.187,70.468 99.062,69.687 99.843,67.812C100.625,66.015 99.843,64.14 99.14,62.421C98.75,61.562 98.437,60.625 98.359,59.687C98.437,58.75 98.75,57.812 99.14,56.953C99.921,55.234 100.703,53.359 100,51.562L100,51.562ZM73.594,93.906L72.422,91.172C72.11,90.39 71.172,90 70.391,90.39C70.313,90.39 70.235,90.468 70.157,90.468L67.657,92.109L71.641,78.671C72.344,79.14 73.125,79.374 73.985,79.374C75.313,79.296 76.563,78.905 77.735,78.359C77.891,78.28 78.125,78.202 78.282,78.124L73.594,93.906ZM90.782,90.547C90.079,90.078 89.063,90.312 88.595,91.015C88.516,91.093 88.516,91.172 88.516,91.25L87.344,93.984L82.657,78.281C82.813,78.359 83.048,78.437 83.204,78.516C84.844,79.219 86.719,80 88.594,79.219C88.829,79.141 89.141,78.984 89.376,78.828L93.36,92.266L90.782,90.547ZM96.329,63.516C96.798,64.609 97.266,65.859 97.032,66.484C96.72,67.188 95.548,67.656 94.298,68.125C93.048,68.516 91.876,69.219 90.86,70.078C90.001,71.094 89.298,72.266 88.907,73.516C88.438,74.688 87.891,75.938 87.266,76.25C86.641,76.484 85.391,76.016 84.298,75.547C83.048,74.922 81.72,74.609 80.391,74.531C79.063,74.609 77.735,75 76.485,75.547C75.391,76.016 74.141,76.484 73.516,76.25C72.813,75.938 72.345,74.766 71.876,73.516C71.485,72.266 70.782,71.094 69.923,70.078C68.907,69.219 67.735,68.516 66.485,68.125C65.313,67.656 64.063,67.109 63.751,66.484C63.516,65.859 63.985,64.609 64.454,63.516C65.079,62.266 65.391,60.938 65.47,59.609C65.391,58.281 65.001,56.953 64.454,55.703C63.985,54.609 63.516,53.359 63.751,52.734C64.063,52.031 65.235,51.563 66.485,51.094C67.735,50.703 68.907,50 69.923,49.141C70.782,48.125 71.485,46.953 71.876,45.703C72.345,44.531 72.891,43.281 73.516,42.969C73.673,42.891 73.751,42.891 73.907,42.891C74.766,43.047 75.704,43.281 76.485,43.672C77.735,44.297 79.063,44.609 80.391,44.688C81.719,44.609 83.048,44.219 84.298,43.672C85.391,43.203 86.641,42.734 87.266,42.969C87.969,43.281 88.438,44.453 88.907,45.703C89.298,46.953 90.001,48.125 90.86,49.141C91.876,50 93.048,50.703 94.298,51.094C95.469,51.563 96.719,52.109 97.032,52.734C97.266,53.359 96.798,54.609 96.329,55.703C95.704,56.953 95.391,58.281 95.313,59.609C95.391,61.016 95.782,62.344 96.329,63.516L96.329,63.516Z" style="fill:url(#_Linear9);fill-rule:nonzero;"/>
        <path d="M80.469,48.672C74.453,48.672 69.531,53.594 69.531,59.61C69.531,65.626 74.453,70.548 80.469,70.548C86.485,70.548 91.407,65.626 91.407,59.61C91.407,53.594 86.485,48.672 80.469,48.672ZM80.469,67.422C76.172,67.422 72.656,63.906 72.656,59.609C72.656,55.313 76.172,51.797 80.469,51.797C84.766,51.797 88.281,55.313 88.281,59.609C88.281,63.984 84.766,67.422 80.469,67.422Z" style="fill:url(#_Linear10);fill-rule:nonzero;"/>
        <path d="M4.609,93.75L60.625,93.75L61.563,90.625L4.61,90.625C3.829,90.625 3.125,90 3.125,89.141L3.125,4.61C3.125,3.75 3.75,3.125 4.61,3.125L68.907,3.125C69.688,3.125 70.391,3.75 70.391,4.61L70.391,37.735C71.329,37.188 72.422,36.797 73.516,36.719L73.516,4.61C73.438,2.032 71.407,0.001 68.829,0.001L4.61,0.001C2.032,0.001 0,2.032 0,4.61L0,89.219C0,91.719 2.032,93.75 4.61,93.75L4.609,93.75Z" style="fill:url(#_Linear11);fill-rule:nonzero;"/>
    </g>
    <defs>
        <linearGradient id="_Linear1" x1="0" y1="0" x2="1" y2="0" gradientUnits="userSpaceOnUse" gradientTransform="matrix(-1.20652,98.9054,-98.9054,-1.20652,35.7593,0.61421)"><stop offset="0" style="stop-color:rgb(217,139,255);stop-opacity:1"/><stop offset="1" style="stop-color:rgb(79,56,166);stop-opacity:1"/></linearGradient>
        <linearGradient id="_Linear2" x1="0" y1="0" x2="1" y2="0" gradientUnits="userSpaceOnUse" gradientTransform="matrix(-1.20652,98.9054,-98.9054,-1.20652,35.7593,0.61421)"><stop offset="0" style="stop-color:rgb(217,139,255);stop-opacity:1"/><stop offset="1" style="stop-color:rgb(79,56,166);stop-opacity:1"/></linearGradient>
        <linearGradient id="_Linear3" x1="0" y1="0" x2="1" y2="0" gradientUnits="userSpaceOnUse" gradientTransform="matrix(-1.20652,98.9054,-98.9054,-1.20652,35.7593,0.61421)"><stop offset="0" style="stop-color:rgb(217,139,255);stop-opacity:1"/><stop offset="1" style="stop-color:rgb(79,56,166);stop-opacity:1"/></linearGradient>
        <linearGradient id="_Linear4" x1="0" y1="0" x2="1" y2="0" gradientUnits="userSpaceOnUse" gradientTransform="matrix(-1.20652,98.9054,-98.9054,-1.20652,35.7593,0.61421)"><stop offset="0" style="stop-color:rgb(217,139,255);stop-opacity:1"/><stop offset="1" style="stop-color:rgb(79,56,166);stop-opacity:1"/></linearGradient>
        <linearGradient id="_Linear5" x1="0" y1="0" x2="1" y2="0" gradientUnits="userSpaceOnUse" gradientTransform="matrix(-1.20652,98.9054,-98.9054,-1.20652,35.7593,0.61421)"><stop offset="0" style="stop-color:rgb(217,139,255);stop-opacity:1"/><stop offset="1" style="stop-color:rgb(79,56,166);stop-opacity:1"/></linearGradient>
        <linearGradient id="_Linear6" x1="0" y1="0" x2="1" y2="0" gradientUnits="userSpaceOnUse" gradientTransform="matrix(-1.20652,98.9054,-98.9054,-1.20652,35.7593,0.61421)"><stop offset="0" style="stop-color:rgb(217,139,255);stop-opacity:1"/><stop offset="1" style="stop-color:rgb(79,56,166);stop-opacity:1"/></linearGradient>
        <linearGradient id="_Linear7" x1="0" y1="0" x2="1" y2="0" gradientUnits="userSpaceOnUse" gradientTransform="matrix(-1.20652,98.9054,-98.9054,-1.20652,35.7593,0.61421)"><stop offset="0" style="stop-color:rgb(217,139,255);stop-opacity:1"/><stop offset="1" style="stop-color:rgb(79,56,166);stop-opacity:1"/></linearGradient>
        <linearGradient id="_Linear8" x1="0" y1="0" x2="1" y2="0" gradientUnits="userSpaceOnUse" gradientTransform="matrix(-1.20652,98.9054,-98.9054,-1.20652,35.7593,0.61421)"><stop offset="0" style="stop-color:rgb(217,139,255);stop-opacity:1"/><stop offset="1" style="stop-color:rgb(79,56,166);stop-opacity:1"/></linearGradient>
        <linearGradient id="_Linear9" x1="0" y1="0" x2="1" y2="0" gradientUnits="userSpaceOnUse" gradientTransform="matrix(-1.20652,98.9054,-98.9054,-1.20652,35.7593,0.61421)"><stop offset="0" style="stop-color:rgb(217,139,255);stop-opacity:1"/><stop offset="1" style="stop-color:rgb(79,56,166);stop-opacity:1"/></linearGradient>
        <linearGradient id="_Linear10" x1="0" y1="0" x2="1" y2="0" gradientUnits="userSpaceOnUse" gradientTransform="matrix(-1.20652,98.9054,-98.9054,-1.20652,35.7593,0.61421)"><stop offset="0" style="stop-color:rgb(217,139,255);stop-opacity:1"/><stop offset="1" style="stop-color:rgb(79,56,166);stop-opacity:1"/></linearGradient>
        <linearGradient id="_Linear11" x1="0" y1="0" x2="1" y2="0" gradientUnits="userSpaceOnUse" gradientTransform="matrix(-1.20652,98.9054,-98.9054,-1.20652,35.7593,0.61421)"><stop offset="0" style="stop-color:rgb(217,139,255);stop-opacity:1"/><stop offset="1" style="stop-color:rgb(79,56,166);stop-opacity:1"/></linearGradient>
    </defs>
</svg>
