<?xml version="1.0" encoding="UTF-8" standalone="no"?>
<!DOCTYPE svg PUBLIC "-//W3C//DTD SVG 1.1//EN" "http://www.w3.org/Graphics/SVG/1.1/DTD/svg11.dtd">
<svg width="100%" height="100%" viewBox="0 0 500 500" version="1.1" xmlns="http://www.w3.org/2000/svg" xmlns:xlink="http://www.w3.org/1999/xlink" xml:space="preserve" xmlns:serif="http://www.serif.com/" style="fill-rule:evenodd;clip-rule:evenodd;stroke-linejoin:round;stroke-miterlimit:2;">
    <g transform="matrix(1.1163,0,0,1.1163,-50.2241,-55.3977)">
        <circle cx="269.481" cy="273.385" r="220.162" style="fill:white;"/>
        <g transform="matrix(2.9342,0,0,2.9342,122.543,126.883)">
            <path d="M36.781,44C32.613,47.477 27.707,49.957 22.437,51.25C22.23,51.281 22.019,51.281 21.812,51.25C20.984,51.336 20.152,51.09 19.507,50.566C18.859,50.043 18.445,49.281 18.359,48.453C18.179,46.727 19.429,45.18 21.156,45C25.293,43.934 29.144,41.973 32.437,39.25C30.206,36.676 28.249,33.879 26.593,30.906C26.12,30.16 25.988,29.25 26.226,28.398C26.464,27.547 27.05,26.836 27.839,26.441C28.628,26.047 29.546,26.004 30.37,26.324C31.191,26.648 31.843,27.301 32.156,28.125C33.55,30.695 35.206,33.113 37.093,35.344C40.597,31.84 43.476,27.762 45.593,23.282L21.874,23.282C20.147,23.282 18.749,21.883 18.749,20.157C18.749,18.43 20.147,17.032 21.874,17.032L32.812,17.032L32.812,13.063C32.812,11.336 34.21,9.938 35.937,9.938C37.664,9.938 39.062,11.336 39.062,13.063L39.062,16.969L50,16.969C50.984,16.969 51.91,17.434 52.5,18.219C53.125,18.977 53.355,19.985 53.125,20.938C50.84,28.044 46.848,34.481 41.5,39.688C44.121,42.239 47.348,44.075 50.875,45.032C52.602,45.223 53.848,46.774 53.656,48.501C53.465,50.227 51.914,51.473 50.187,51.282C49.961,51.313 49.726,51.313 49.5,51.282C44.699,50.005 40.316,47.493 36.781,44.001L36.781,44ZM79.312,89.844C77.706,90.461 75.906,89.664 75.281,88.063L71.375,78.125L56.5,78.125L53.125,86.844C52.488,88.45 50.668,89.231 49.062,88.594C47.457,87.957 46.675,86.137 47.312,84.532L61.312,49.407C61.785,48.215 62.937,47.438 64.218,47.438C65.507,47.442 66.66,48.235 67.125,49.438L81.25,85.782C81.546,86.575 81.511,87.458 81.144,88.223C80.781,88.993 80.117,89.575 79.312,89.844L79.312,89.844ZM68.937,71.875L64.031,59.219L59,71.875L68.937,71.875Z" style="fill:url(#_Linear1);fill-rule:nonzero;"/>
        </g>
    </g>
    <defs>
        <linearGradient id="_Linear1" x1="0" y1="0" x2="1" y2="0" gradientUnits="userSpaceOnUse" gradientTransform="matrix(-1.01154,78.7974,-78.7974,-1.01154,48.4711,15.2129)"><stop offset="0" style="stop-color:rgb(239,101,196);stop-opacity:1"/><stop offset="1" style="stop-color:rgb(77,184,239);stop-opacity:1"/></linearGradient>
    </defs>
</svg>
