<svg xmlns="http://www.w3.org/2000/svg" xmlns:xlink="http://www.w3.org/1999/xlink" width="100%" height="100%" version="1.1" viewBox="0 0 500 500" xml:space="preserve" style="fill-rule:evenodd;clip-rule:evenodd;stroke-linejoin:round;stroke-miterlimit:2"><g transform="matrix(1.1163,0,0,1.1163,-50.2241,-55.3977)"><circle cx="269.481" cy="273.385" r="220.162" style="fill:#fff"/></g><g transform="matrix(0.324276,0,0,0.324276,-14.2518,82.73)"><g id="Nutri"><g><path d="M0,31.049L0,0L19.714,0L19.714,4.68L5.994,4.68L5.994,12.554L15.734,12.554L15.734,17.235L5.994,17.235L5.994,26.369L19.902,26.369L19.902,31.049L0,31.049Z" style="fill:url(#_Linear1);fill-rule:nonzero" transform="matrix(4.16667,0,0,4.16667,1138.32,515.283)"/></g><g><path d="M0,-2.386L0,7.114L-3.837,7.114L-3.837,-9.5L-0.842,-9.5L6.903,0.258L6.903,-9.5L10.74,-9.5L10.74,7.114L7.651,7.114L0,-2.386Z" style="fill:url(#_Linear2);fill-rule:nonzero" transform="matrix(4.16667,0,0,4.16667,431.395,345.027)"/></g><g><path d="M0,9.92C0.655,9.92 1.209,9.784 1.662,9.511C2.114,9.237 2.481,8.876 2.761,8.423C3.042,7.97 3.24,7.451 3.357,6.867C3.475,6.281 3.533,5.685 3.533,5.076L3.533,-3.417L7.37,-3.417L7.37,5.076C7.37,6.232 7.226,7.307 6.937,8.305C6.649,9.304 6.204,10.176 5.604,10.926C5.003,11.675 4.239,12.264 3.311,12.692C2.383,13.122 1.279,13.337 0,13.337C-1.326,13.337 -2.457,13.111 -3.393,12.658C-4.329,12.205 -5.089,11.601 -5.674,10.844C-6.259,10.088 -6.688,9.211 -6.961,8.211C-7.235,7.214 -7.371,6.169 -7.371,5.076L-7.371,-3.417L-3.533,-3.417L-3.533,5.076C-3.533,5.716 -3.471,6.325 -3.346,6.901C-3.221,7.479 -3.018,7.993 -2.738,8.446C-2.457,8.899 -2.094,9.257 -1.649,9.523C-1.205,9.787 -0.655,9.92 0,9.92" style="fill:url(#_Linear3);fill-rule:nonzero" transform="matrix(4.16667,0,0,4.16667,519.041,319.684)"/></g><g><path d="M0,-9.873L-5.054,-9.873L-5.054,3.37L-8.891,3.37L-8.891,-9.873L-13.969,-9.873L-13.969,-13.243L0,-13.243L0,-9.873Z" style="fill:url(#_Linear4);fill-rule:nonzero" transform="matrix(4.16667,0,0,4.16667,614.78,360.624)"/></g><g><path d="M0,16.613L0,0L7.488,0C8.267,0 8.989,0.164 9.652,0.491C10.315,0.819 10.888,1.248 11.371,1.778C11.855,2.308 12.233,2.909 12.506,3.58C12.78,4.25 12.916,4.929 12.916,5.615C12.916,6.131 12.853,6.625 12.729,7.101C12.603,7.577 12.425,8.025 12.191,8.447C11.957,8.869 11.672,9.246 11.337,9.581C11.001,9.918 10.623,10.202 10.202,10.435L14.016,16.613L9.687,16.613L6.341,11.255L3.838,11.255L3.838,16.613L0,16.613ZM3.838,7.909L7.347,7.909C7.8,7.909 8.19,7.695 8.517,7.265C8.845,6.837 9.008,6.287 9.008,5.615C9.008,4.929 8.821,4.384 8.446,3.977C8.072,3.572 7.667,3.37 7.23,3.37L3.838,3.37L3.838,7.909Z" style="fill:url(#_Linear5);fill-rule:nonzero" transform="matrix(4.16667,0,0,4.16667,622.676,305.446)"/></g><g transform="matrix(4.16667,0,0,4.16667,-1233.18,-1241.99)"><rect width="3.837" height="16.613" x="461.315" y="371.383" style="fill:url(#_Linear6)"/></g><g transform="matrix(4.16667,0,0,4.16667,-1233.18,-1226.38)"><rect width="7.207" height="3.37" x="468.007" y="376.132" style="fill:url(#_Linear7)"/></g><g><path d="M0,-6.925C-0.063,-6.987 -0.234,-7.104 -0.515,-7.276C-0.796,-7.447 -1.146,-7.627 -1.568,-7.815C-1.989,-8.002 -2.449,-8.166 -2.948,-8.305C-3.448,-8.446 -3.947,-8.516 -4.445,-8.516C-5.101,-8.516 -5.604,-8.399 -5.955,-8.166C-6.306,-7.931 -6.482,-7.588 -6.482,-7.137C-6.482,-6.856 -6.404,-6.621 -6.247,-6.434C-6.092,-6.247 -5.87,-6.078 -5.581,-5.93C-5.292,-5.781 -4.934,-5.646 -4.504,-5.521C-4.076,-5.397 -3.58,-5.255 -3.018,-5.1C-2.223,-4.881 -1.506,-4.643 -0.866,-4.386C-0.226,-4.128 0.319,-3.808 0.773,-3.427C1.224,-3.045 1.571,-2.58 1.813,-2.035C2.055,-1.489 2.176,-0.834 2.176,-0.07C2.176,0.867 2,1.658 1.65,2.305C1.299,2.953 0.834,3.475 0.257,3.874C-0.32,4.271 -0.987,4.56 -1.743,4.739C-2.5,4.918 -3.276,5.008 -4.071,5.008C-4.68,5.008 -5.3,4.962 -5.932,4.869C-6.563,4.775 -7.183,4.637 -7.792,4.458C-8.4,4.279 -8.993,4.065 -9.57,3.815C-10.147,3.566 -10.678,3.277 -11.161,2.948L-9.477,-0.397C-9.398,-0.318 -9.188,-0.17 -8.845,0.048C-8.502,0.266 -8.081,0.485 -7.581,0.703C-7.082,0.921 -6.521,1.116 -5.897,1.287C-5.273,1.46 -4.641,1.545 -4.001,1.545C-2.644,1.545 -1.965,1.133 -1.965,0.304C-1.965,-0.008 -2.067,-0.264 -2.27,-0.467C-2.473,-0.669 -2.753,-0.853 -3.112,-1.016C-3.471,-1.18 -3.892,-1.333 -4.376,-1.474C-4.859,-1.613 -5.39,-1.769 -5.966,-1.942C-6.731,-2.175 -7.394,-2.429 -7.956,-2.702C-8.517,-2.974 -8.985,-3.291 -9.359,-3.65C-9.734,-4.008 -10.011,-4.422 -10.19,-4.89C-10.37,-5.358 -10.459,-5.904 -10.459,-6.527C-10.459,-7.401 -10.295,-8.174 -9.968,-8.844C-9.64,-9.514 -9.196,-10.08 -8.634,-10.541C-8.073,-11.001 -7.422,-11.347 -6.68,-11.582C-5.94,-11.815 -5.156,-11.933 -4.329,-11.933C-3.736,-11.933 -3.159,-11.877 -2.597,-11.769C-2.036,-11.659 -1.501,-11.519 -0.994,-11.347C-0.488,-11.175 -0.009,-10.981 0.444,-10.763C0.897,-10.544 1.302,-10.326 1.661,-10.108L0,-6.925Z" style="fill:url(#_Linear8);fill-rule:nonzero" transform="matrix(4.16667,0,0,4.16667,800.309,354.579)"/></g><g><path d="M0,-0.328C0,-1.326 0.179,-2.32 0.538,-3.311C0.897,-4.302 1.42,-5.187 2.106,-5.966C2.792,-6.746 3.63,-7.378 4.621,-7.862C5.612,-8.346 6.739,-8.588 8.003,-8.588C9.484,-8.588 10.771,-8.251 11.863,-7.581C12.955,-6.91 13.766,-6.037 14.296,-4.96L11.348,-2.902C11.177,-3.338 10.958,-3.701 10.693,-3.99C10.428,-4.277 10.139,-4.512 9.828,-4.691C9.515,-4.87 9.192,-4.996 8.857,-5.065C8.521,-5.137 8.205,-5.172 7.909,-5.172C7.222,-5.172 6.629,-5.022 6.131,-4.727C5.631,-4.43 5.218,-4.049 4.891,-3.58C4.563,-3.112 4.317,-2.582 4.153,-1.989C3.989,-1.396 3.908,-0.796 3.908,-0.187C3.908,0.468 4.005,1.1 4.2,1.709C4.395,2.317 4.668,2.855 5.018,3.323C5.37,3.79 5.795,4.16 6.294,4.434C6.793,4.708 7.347,4.843 7.956,4.843C8.268,4.843 8.591,4.8 8.927,4.715C9.262,4.629 9.585,4.497 9.898,4.317C10.209,4.137 10.49,3.904 10.74,3.615C10.99,3.326 11.192,2.971 11.348,2.55L14.507,4.399C14.257,5.007 13.895,5.554 13.419,6.036C12.943,6.52 12.401,6.926 11.793,7.254C11.184,7.581 10.542,7.83 9.863,8.002C9.184,8.173 8.517,8.26 7.862,8.26C6.707,8.26 5.65,8.014 4.692,7.523C3.732,7.031 2.905,6.38 2.211,5.568C1.517,4.758 0.975,3.838 0.585,2.809C0.195,1.778 0,0.734 0,-0.328" style="fill:url(#_Linear9);fill-rule:nonzero" transform="matrix(4.16667,0,0,4.16667,814.736,340.837)"/></g><g><path d="M0,16.848C-1.185,16.848 -2.262,16.605 -3.229,16.123C-4.197,15.64 -5.027,15.003 -5.721,14.215C-6.415,13.429 -6.953,12.528 -7.335,11.513C-7.718,10.499 -7.909,9.453 -7.909,8.377C-7.909,7.285 -7.71,6.233 -7.312,5.218C-6.914,4.204 -6.36,3.311 -5.651,2.54C-4.941,1.767 -4.099,1.151 -3.124,0.691C-2.149,0.232 -1.085,0 0.07,0C1.255,0 2.332,0.243 3.299,0.726C4.266,1.21 5.097,1.849 5.791,2.645C6.485,3.441 7.019,4.345 7.394,5.36C7.768,6.373 7.956,7.403 7.956,8.447C7.956,9.539 7.756,10.593 7.359,11.607C6.961,12.62 6.411,13.514 5.709,14.286C5.007,15.057 4.169,15.678 3.194,16.146C2.219,16.613 1.154,16.848 0,16.848M-4.001,8.424C-4.001,9.063 -3.912,9.685 -3.732,10.284C-3.553,10.885 -3.296,11.42 -2.96,11.888C-2.624,12.355 -2.204,12.73 -1.697,13.01C-1.19,13.291 -0.608,13.431 0.046,13.431C0.717,13.431 1.302,13.283 1.802,12.987C2.301,12.691 2.718,12.305 3.054,11.829C3.389,11.353 3.639,10.814 3.802,10.215C3.966,9.614 4.048,9.002 4.048,8.377C4.048,7.738 3.958,7.118 3.779,6.517C3.599,5.916 3.338,5.386 2.995,4.926C2.651,4.467 2.23,4.099 1.731,3.826C1.232,3.554 0.663,3.416 0.023,3.416C-0.648,3.416 -1.232,3.561 -1.732,3.85C-2.231,4.138 -2.648,4.516 -2.984,4.984C-3.319,5.452 -3.572,5.987 -3.744,6.587C-3.915,7.188 -4.001,7.801 -4.001,8.424" style="fill:url(#_Linear10);fill-rule:nonzero" transform="matrix(4.16667,0,0,4.16667,911.647,305.053)"/></g><g><path d="M0,16.613L0,0L7.488,0C8.267,0 8.988,0.164 9.651,0.491C10.314,0.819 10.888,1.248 11.371,1.778C11.854,2.308 12.233,2.909 12.506,3.58C12.779,4.25 12.916,4.929 12.916,5.615C12.916,6.131 12.853,6.625 12.729,7.101C12.603,7.577 12.425,8.025 12.19,8.447C11.957,8.869 11.671,9.246 11.336,9.581C11.001,9.918 10.623,10.202 10.202,10.435L14.016,16.613L9.687,16.613L6.34,11.255L3.837,11.255L3.837,16.613L0,16.613ZM3.837,7.909L7.347,7.909C7.799,7.909 8.189,7.695 8.517,7.265C8.845,6.837 9.008,6.287 9.008,5.615C9.008,4.929 8.821,4.384 8.446,3.977C8.072,3.572 7.666,3.37 7.23,3.37L3.837,3.37L3.837,7.909Z" style="fill:url(#_Linear11);fill-rule:nonzero" transform="matrix(4.16667,0,0,4.16667,954.154,305.446)"/></g><g><path d="M0,9.873L0,13.243L-11.676,13.243L-11.676,-3.37L-0.211,-3.37L-0.211,0L-7.838,0L-7.838,3.229L-1.287,3.229L-1.287,6.341L-7.838,6.341L-7.838,9.873L0,9.873Z" style="fill:url(#_Linear12);fill-rule:nonzero" transform="matrix(4.16667,0,0,4.16667,1069.1,319.487)"/></g><g><path d="M0,-73.646L-152.059,-73.646L-150.205,-70.615C-150.016,-70.306 -149.88,-69.975 -149.706,-69.66L-113.198,-69.66L-113.198,-3.986L-149.707,-3.986C-149.881,-3.673 -150.016,-3.342 -150.205,-3.035L-152.06,0L0,0C10.579,0 19.187,-8.606 19.187,-19.184L19.187,-54.462C19.187,-65.04 10.579,-73.646 0,-73.646M-70.383,-3.986L-109.208,-3.986L-109.208,-69.659L-70.383,-69.659L-70.383,-3.986ZM-27.568,-3.986L-66.393,-3.986L-66.393,-69.659L-27.568,-69.659L-27.568,-3.986ZM15.198,-19.184C15.198,-10.803 8.381,-3.986 0,-3.986L-23.578,-3.986L-23.578,-69.66L0,-69.66C8.381,-69.66 15.198,-62.843 15.198,-54.462L15.198,-19.184Z" style="fill:url(#_Linear13);fill-rule:nonzero" transform="matrix(4.16667,0,0,4.16667,1196.86,733.157)"/></g><g><path d="M0,31.05L0,0L8.523,0C17.326,0 20.558,3.736 20.558,8.325C20.558,11.16 19.152,13.365 17.138,14.941C20.65,16.336 22.337,18.765 22.337,21.826C22.337,27.405 18.637,31.05 9.6,31.05L0,31.05ZM5.994,13.275L8.757,13.23C12.596,13.186 14.423,11.43 14.423,8.865C14.423,6.075 12.503,4.681 7.773,4.681L5.994,4.681L5.994,13.275ZM8.944,17.595L5.994,17.595L5.994,26.37L9.319,26.37C13.861,26.37 16.203,25.021 16.203,21.826C16.203,19.261 14.423,17.64 8.944,17.595" style="fill:url(#_Linear14);fill-rule:nonzero" transform="matrix(4.16667,0,0,4.16667,602.365,515.279)"/></g><g><path d="M0,-0.092C0,-9.811 6.416,-16.021 14.751,-16.021C21.869,-16.021 25.286,-12.827 27.159,-8.462L21.447,-6.347C20.276,-9.18 17.841,-10.847 14.516,-10.847C9.459,-10.847 6.181,-6.617 6.181,-0.137C6.181,6.793 9.365,10.753 15.079,10.753C18.45,10.753 20.978,9.089 22.804,6.119L27.3,9.403C24.725,13.678 20.604,15.929 14.844,15.929C5.901,15.929 0,9.673 0,-0.092" style="fill:url(#_Linear15);fill-rule:nonzero" transform="matrix(4.16667,0,0,4.16667,764.25,580.163)"/></g><g><path d="M0,31.049L0,0L9.412,0C20.322,0 26.597,5.805 26.597,15.524C26.597,24.435 19.854,31.049 8.757,31.049L0,31.049ZM8.616,26.369C16.529,26.369 20.416,21.735 20.416,15.524C20.416,8.73 16.81,4.77 9.365,4.77L5.993,4.77L5.993,26.369L8.616,26.369Z" style="fill:url(#_Linear16);fill-rule:nonzero" transform="matrix(4.16667,0,0,4.16667,952.85,515.283)"/></g><g><path d="M0,64.642L0,-4.297C0,-21.358 -13.88,-35.238 -30.941,-35.238L-210.532,-35.238C-227.594,-35.238 -241.475,-21.358 -241.475,-4.297L-241.474,68.571C-241.474,85.835 -226.444,99.88 -207.968,99.88L-204.929,99.88C-198.994,99.88 -193.183,98.398 -188.047,95.584L-30.941,95.584C-13.88,95.584 0,81.704 0,64.642M-189.172,91.345C-193.726,94.05 -199.126,95.64 -204.93,95.64L-207.968,95.64C-224.105,95.64 -237.234,83.497 -237.234,68.57L-237.234,64.65L-237.235,64.642L-237.235,-4.296C-237.235,-19.021 -225.257,-30.999 -210.533,-30.999L-30.941,-30.999C-16.218,-30.999 -4.24,-19.021 -4.24,-4.296L-4.24,64.642C-4.24,79.365 -16.218,91.345 -30.941,91.345L-189.172,91.345Z" style="fill:url(#_Linear17);fill-rule:nonzero" transform="matrix(4.16667,0,0,4.16667,1325.78,383.882)"/></g><g><path d="M0,13.079L8.46,13.079L4.343,0L0,13.079Z" style="fill:url(#_Linear18);fill-rule:nonzero" transform="matrix(4.16667,0,0,4.16667,447.756,541.558)"/></g><g><path d="M0,-87.067L-3.038,-87.067C-16.384,-87.067 -27.202,-77.232 -27.202,-65.099L-27.202,-21.968C-27.202,-9.835 -16.384,0 -3.038,0L0,0C13.346,0 24.165,-9.835 24.165,-21.968L24.165,-65.099C24.165,-77.232 13.346,-87.067 0,-87.067M7.457,-24.498L5.37,-31.157L-8.617,-31.157L-10.817,-24.498L-20.742,-24.498L-5.402,-65.894L3.057,-65.894L18.285,-24.498L7.457,-24.498Z" style="fill:url(#_Linear19);fill-rule:nonzero" transform="matrix(4.16667,0,0,4.16667,471.909,761.124)"/></g></g></g><defs><linearGradient id="_Linear1" x1="0" x2="1" y1="0" y2="0" gradientTransform="matrix(243.199,138.138,-138.138,243.199,-203.009,-67.4957)" gradientUnits="userSpaceOnUse"><stop offset="0" style="stop-color:#00a492;stop-opacity:1"/><stop offset="1" style="stop-color:#08ffa7;stop-opacity:1"/></linearGradient><linearGradient id="_Linear2" x1="0" x2="1" y1="0" y2="0" gradientTransform="matrix(243.199,138.138,-138.138,243.199,-33.3482,-26.6343)" gradientUnits="userSpaceOnUse"><stop offset="0" style="stop-color:#00a492;stop-opacity:1"/><stop offset="1" style="stop-color:#08ffa7;stop-opacity:1"/></linearGradient><linearGradient id="_Linear3" x1="0" x2="1" y1="0" y2="0" gradientTransform="matrix(243.199,138.138,-138.138,243.199,-54.3833,-20.5519)" gradientUnits="userSpaceOnUse"><stop offset="0" style="stop-color:#00a492;stop-opacity:1"/><stop offset="1" style="stop-color:#08ffa7;stop-opacity:1"/></linearGradient><linearGradient id="_Linear4" x1="0" x2="1" y1="0" y2="0" gradientTransform="matrix(243.199,138.138,-138.138,243.199,-77.3606,-30.3776)" gradientUnits="userSpaceOnUse"><stop offset="0" style="stop-color:#00a492;stop-opacity:1"/><stop offset="1" style="stop-color:#08ffa7;stop-opacity:1"/></linearGradient><linearGradient id="_Linear5" x1="0" x2="1" y1="0" y2="0" gradientTransform="matrix(243.199,138.138,-138.138,243.199,-79.2557,-17.1348)" gradientUnits="userSpaceOnUse"><stop offset="0" style="stop-color:#00a492;stop-opacity:1"/><stop offset="1" style="stop-color:#08ffa7;stop-opacity:1"/></linearGradient><linearGradient id="_Linear6" x1="0" x2="1" y1="0" y2="0" gradientTransform="matrix(243.199,138.138,-138.138,243.199,366.149,354.249)" gradientUnits="userSpaceOnUse"><stop offset="0" style="stop-color:#00a492;stop-opacity:1"/><stop offset="1" style="stop-color:#08ffa7;stop-opacity:1"/></linearGradient><linearGradient id="_Linear7" x1="0" x2="1" y1="0" y2="0" gradientTransform="matrix(243.199,138.138,-138.138,243.199,366.149,350.504)" gradientUnits="userSpaceOnUse"><stop offset="0" style="stop-color:#00a492;stop-opacity:1"/><stop offset="1" style="stop-color:#08ffa7;stop-opacity:1"/></linearGradient><linearGradient id="_Linear8" x1="0" x2="1" y1="0" y2="0" gradientTransform="matrix(243.199,138.138,-138.138,243.199,-121.888,-28.9267)" gradientUnits="userSpaceOnUse"><stop offset="0" style="stop-color:#00a492;stop-opacity:1"/><stop offset="1" style="stop-color:#08ffa7;stop-opacity:1"/></linearGradient><linearGradient id="_Linear9" x1="0" x2="1" y1="0" y2="0" gradientTransform="matrix(243.199,138.138,-138.138,243.199,-125.35,-25.6285)" gradientUnits="userSpaceOnUse"><stop offset="0" style="stop-color:#00a492;stop-opacity:1"/><stop offset="1" style="stop-color:#08ffa7;stop-opacity:1"/></linearGradient><linearGradient id="_Linear10" x1="0" x2="1" y1="0" y2="0" gradientTransform="matrix(243.199,138.138,-138.138,243.199,-148.609,-17.0404)" gradientUnits="userSpaceOnUse"><stop offset="0" style="stop-color:#00a492;stop-opacity:1"/><stop offset="1" style="stop-color:#08ffa7;stop-opacity:1"/></linearGradient><linearGradient id="_Linear11" x1="0" x2="1" y1="0" y2="0" gradientTransform="matrix(243.199,138.138,-138.138,243.199,-158.81,-17.1348)" gradientUnits="userSpaceOnUse"><stop offset="0" style="stop-color:#00a492;stop-opacity:1"/><stop offset="1" style="stop-color:#08ffa7;stop-opacity:1"/></linearGradient><linearGradient id="_Linear12" x1="0" x2="1" y1="0" y2="0" gradientTransform="matrix(243.199,138.138,-138.138,243.199,-186.397,-20.5047)" gradientUnits="userSpaceOnUse"><stop offset="0" style="stop-color:#00a492;stop-opacity:1"/><stop offset="1" style="stop-color:#08ffa7;stop-opacity:1"/></linearGradient><linearGradient id="_Linear13" x1="0" x2="1" y1="0" y2="0" gradientTransform="matrix(243.199,138.138,-138.138,243.199,-217.06,-119.785)" gradientUnits="userSpaceOnUse"><stop offset="0" style="stop-color:#00a492;stop-opacity:1"/><stop offset="1" style="stop-color:#08ffa7;stop-opacity:1"/></linearGradient><linearGradient id="_Linear14" x1="0" x2="1" y1="0" y2="0" gradientTransform="matrix(243.199,138.138,-138.138,243.199,-74.3809,-67.4947)" gradientUnits="userSpaceOnUse"><stop offset="0" style="stop-color:#00a492;stop-opacity:1"/><stop offset="1" style="stop-color:#08ffa7;stop-opacity:1"/></linearGradient><linearGradient id="_Linear15" x1="0" x2="1" y1="0" y2="0" gradientTransform="matrix(243.199,138.138,-138.138,243.199,-113.233,-83.0668)" gradientUnits="userSpaceOnUse"><stop offset="0" style="stop-color:#00a492;stop-opacity:1"/><stop offset="1" style="stop-color:#08ffa7;stop-opacity:1"/></linearGradient><linearGradient id="_Linear16" x1="0" x2="1" y1="0" y2="0" gradientTransform="matrix(243.199,138.138,-138.138,243.199,-158.497,-67.4957)" gradientUnits="userSpaceOnUse"><stop offset="0" style="stop-color:#00a492;stop-opacity:1"/><stop offset="1" style="stop-color:#08ffa7;stop-opacity:1"/></linearGradient><linearGradient id="_Linear17" x1="0" x2="1" y1="0" y2="0" gradientTransform="matrix(243.199,138.138,-138.138,243.199,-248.002,-35.9593)" gradientUnits="userSpaceOnUse"><stop offset="0" style="stop-color:#00a492;stop-opacity:1"/><stop offset="1" style="stop-color:#08ffa7;stop-opacity:1"/></linearGradient><linearGradient id="_Linear18" x1="0" x2="1" y1="0" y2="0" gradientTransform="matrix(243.199,138.138,-138.138,243.199,-37.2748,-73.8016)" gradientUnits="userSpaceOnUse"><stop offset="0" style="stop-color:#00a492;stop-opacity:1"/><stop offset="1" style="stop-color:#08ffa7;stop-opacity:1"/></linearGradient><linearGradient id="_Linear19" x1="0" x2="1" y1="0" y2="0" gradientTransform="matrix(243.199,138.138,-138.138,243.199,-43.0716,-126.497)" gradientUnits="userSpaceOnUse"><stop offset="0" style="stop-color:#00a492;stop-opacity:1"/><stop offset="1" style="stop-color:#08ffa7;stop-opacity:1"/></linearGradient></defs></svg>