<svg xmlns="http://www.w3.org/2000/svg" xmlns:xlink="http://www.w3.org/1999/xlink" width="100%" height="100%" version="1.1" viewBox="0 0 1921 370" xml:space="preserve" style="fill-rule:evenodd;clip-rule:evenodd;stroke-linejoin:round;stroke-miterlimit:2"><g id="l4p6Vn6iGvJddKBAnIc696v"><g transform="matrix(0.998122,0,0,0.998122,5.24287,3.61517)"><path id="p1GIiNGL15" d="M1,366L1,97L50.9,97L51.2,109L51.5,120.9L55.5,116C63.2,106.5 78,98.1 92.5,94.9C102,92.8 124.8,93.3 134.4,95.9C149.8,100 162.6,107.7 173.9,119.5C185.6,131.9 192.7,146 197.1,166.1C200.3,180.5 200.4,207 197.3,220.6C190,252 173.5,273.8 147.5,286.5C133.3,293.4 128.2,294.5 108.5,294.4C92.2,294.4 91.2,294.3 82.8,291.3C72,287.6 64.2,283 57.9,276.8C55.3,274.1 52.8,272 52.5,272C52.2,272 52,293.2 52,319L52,366L1,366ZM114.1,247.4C125.9,243.9 137.8,234 143.2,222.9C147.4,214.2 149.4,202.4 148.7,190C147.6,172.3 144.1,163.2 134.5,153.4C124.8,143.5 115.2,139.7 100.5,139.7C89.4,139.7 82.1,141.7 73.9,147.2C59.4,156.9 52,172.7 52,194C52,221.1 64.7,240.3 87.5,247.6C93.2,249.4 107.6,249.3 114.1,247.4Z" style="fill:#fff;fill-rule:nonzero"/><path id="pE5nLHzKi" d="M652,366L652,97L702,97L702,120.9L709.8,113.2C723.7,99.1 737.8,93.8 761.5,93.6C777.7,93.5 787.2,95.3 798.7,100.5C833.8,116.6 853,153.5 850.7,200.5C849.2,232.2 837.3,258.1 816.2,275.6C808.7,281.8 792.8,290 783,292.7C774.6,294.9 747.1,295.2 739.5,293.1C726.7,289.5 715.1,283.2 708,275.9L704,271.8L704,366L652,366ZM766.1,247C782.9,241.7 794.7,228.3 798.5,210.5C800.4,201.6 800.4,186.5 798.5,177.8C794.2,157.5 779.4,143.1 759.6,140C733.4,135.9 710.8,151.5 704.5,178.1C702.6,186.3 702.6,201.7 704.5,209.9C706.6,218.8 711.5,228.3 717.2,234.5C722.2,240 732.7,246.3 739.6,247.9C746.8,249.6 759.3,249.1 766.1,247Z" style="fill:#fff;fill-rule:nonzero"/><path id="pDAGYYhAm" d="M1333.8,294C1296.2,285.7 1270.6,260.5 1259.8,221.3C1258,214.7 1257.6,210.7 1257.6,194.5C1257.5,175.1 1257.9,171.6 1262.2,158C1270.7,131 1293.5,106.8 1319.5,97.4C1331.7,92.9 1341,91.7 1357.4,92.3C1385.6,93.3 1404,100.7 1421,118C1432.7,130 1440.2,144.6 1444.1,163.5C1446.3,174.1 1447.6,193.2 1446.6,201.3L1445.9,207L1307,207L1307.4,209.3C1307.7,210.5 1308.2,213.3 1308.5,215.5C1309.3,220.4 1315.1,231.3 1319.3,235.9C1329.9,247.2 1341.4,252 1357.3,252C1362.4,252 1368.5,251.5 1370.9,250.9C1382.5,248.3 1392.5,240.2 1398.6,228.6C1400.2,225.5 1402,223.2 1402.6,223.4C1403.1,223.6 1412.4,226.4 1423.1,229.5C1433.8,232.7 1442.8,235.5 1443.2,235.9C1444.2,236.8 1438,251.8 1434.3,257C1429.2,264.4 1419.2,274.8 1412.5,279.5C1404.7,285.1 1393.2,290.6 1383.8,293.2C1372.8,296.2 1345.7,296.7 1333.8,294ZM1396,170.5C1396,169.8 1395.5,166.7 1394.9,163.8C1391.3,147.1 1378.8,136.3 1360.3,134C1344.2,132 1330.6,136.2 1320.6,146.3C1314.8,152.2 1309.9,161.4 1309.2,167.7L1308.7,172L1352.4,172C1389.8,172 1396,171.8 1396,170.5Z" style="fill:#fff;fill-rule:nonzero"/><path id="peqrJcHLm" d="M1792.5,294.4C1778.3,291.4 1762.3,281.5 1754.5,270.9C1737.7,248 1740.2,217.3 1760.6,197.9C1766.6,192.2 1771.5,189.1 1780,185.7C1789.1,182.1 1796,180.7 1823.5,176.6C1855.1,171.9 1856.3,171.6 1860,167.4C1867.9,158.4 1860.6,140.2 1847.1,135.5C1836.7,131.8 1819.6,132.6 1811,137.1C1803.5,141 1796.8,149.5 1794.4,157.8C1793.5,160.9 1792.6,163.6 1792.5,163.8C1792.2,164.1 1747.9,155 1747.2,154.5C1747.1,154.4 1747.9,150.8 1749,146.6C1755.2,122.4 1776.2,102.2 1802.6,94.9C1808.5,93.3 1814.5,92.6 1825.7,92.3C1848.5,91.5 1861.6,93.8 1876.5,101.2C1896.7,111.2 1906.9,124.2 1912.2,147C1912.8,149.7 1913.6,177.7 1914.1,217.5C1914.5,253.8 1915.2,285.2 1915.5,287.3L1916.2,291L1869.2,291L1868.6,286.3C1868.3,283.6 1867.8,278.5 1867.5,274.8C1867.1,271 1866.5,268 1866.2,268C1865.8,268.1 1864.2,269.9 1862.5,272C1858,278 1848.3,285.7 1840.5,289.6C1828.1,295.7 1808.3,297.7 1792.5,294.4ZM1833.3,256.4C1842.3,254.4 1845.1,252.9 1851,247.4C1858.3,240.6 1861.8,232 1863.1,217.6C1863.7,211.2 1864,205.3 1863.7,204.6C1863.2,203.3 1861.1,203.5 1826.5,209.1C1811.9,211.5 1804.7,214.3 1800.1,219.5C1793,227.7 1793.3,242.4 1800.8,250.3C1807.8,257.7 1818.5,259.7 1833.3,256.4Z" style="fill:#fff;fill-rule:nonzero"/><path id="pwZ1E5bH3" d="M1529.5,294.3C1518,292.7 1502.2,286.1 1491.6,278.6C1483,272.4 1471.4,259.8 1465.7,250.3C1463.1,246 1459.4,238 1457.5,232.6C1443,192.1 1453.3,143 1481.7,117C1492.9,106.7 1504.8,100.1 1519.2,96C1529.8,92.9 1549.8,92.2 1561,94.4C1575.9,97.5 1589.3,104.5 1594.5,112C1596,114.2 1597.7,116 1598.1,116C1598.6,116 1599,91.3 1599,61L1599,6L1648.9,6L1649.3,145.8C1649.5,222.6 1650,286.7 1650.5,288.3L1651.2,291L1626.7,291C1613,291 1601.9,290.6 1601.6,290.1C1601.2,289.6 1600.7,284.4 1600.3,278.5L1599.7,267.8L1596.1,272.1C1587,283.1 1574.7,290.8 1561.5,293.5C1555,294.9 1536.8,295.3 1529.5,294.3ZM1564.1,247.4C1575.8,243.9 1583.1,238.7 1589.5,229C1596,219.2 1598.1,211.8 1598.7,197C1599.5,176.3 1595.5,163.6 1585,152.9C1573.1,140.9 1555.3,136.2 1538.5,140.5C1521.6,144.9 1508.6,158.7 1504.4,176.6C1501.9,187.3 1502.9,208.2 1506.3,217.4C1510.7,229.2 1519.3,239.5 1529.1,244.6C1537.6,249 1554.3,250.3 1564.1,247.4Z" style="fill:#fff;fill-rule:nonzero"/><path id="pu7VGQcu7" d="M215,291L215,6L267,6L267,59.5C267,88.9 267.3,113 267.6,113C267.9,113 270.7,110.8 273.6,108C284.9,97.7 300.1,92.8 320.5,92.8C343,92.8 357.4,98.3 371,112C379.7,120.7 383.8,127.8 387.4,140.4C391.4,153.9 392,166.4 392,231.3L392,291L340,291L340,231.5C340,170.5 339.8,166.3 335.9,157.3C333.3,151.2 326.8,144.6 320.7,141.9C314.2,139.1 300.3,138.1 293.2,140C287.5,141.6 279.2,146.8 276.3,150.7C272.8,155.5 269.3,163.2 268.1,168.8C267.4,172.4 267,193.1 267,232.5L267,291L215,291Z" style="fill:#fff;fill-rule:nonzero"/><rect id="prDM8bd0l" width="51" height="194" x="417" y="97" style="fill:#fff"/><rect id="p13AAN2rFB" width="52" height="285" x="495" y="6" style="fill:#fff"/><rect id="piGkPbX2m" width="51" height="194" x="574" y="97" style="fill:#fff"/><path id="pQJrt1VrL" d="M948,291L948,97L997,97L997,109C997,115.6 997.3,121 997.8,121C998.2,121 999.8,119 1001.4,116.5C1009.8,103.1 1034.2,92 1055.4,92C1078.2,92 1100.6,103.5 1109.1,119.6C1110.4,122 1111.8,124 1112.1,124C1112.5,124 1114,122.2 1115.6,119.9C1119.9,113.6 1132.1,102.8 1138.2,99.8C1155.7,91.2 1180.4,89.7 1199.8,96.1C1208,98.8 1219.6,106.6 1225.9,113.7C1231.7,120.1 1236.8,129.4 1240.1,139.5L1242.5,146.5L1242.8,218.8L1243.1,291L1193.1,291L1192.8,226.8L1192.5,162.5L1189.9,157C1183.8,144.1 1175.1,139 1159,139C1141.8,139 1131.4,146.2 1124.9,162.5L1122.5,168.5L1122.2,229.8L1121.9,291L1071.1,291L1070.8,227.8C1070.5,164.5 1070.5,164.5 1068.2,158.9C1065.2,151.3 1059.3,144.8 1052.8,141.9C1048.2,139.8 1046,139.5 1036.5,139.5C1027.1,139.5 1024.8,139.8 1020.5,141.8C1014.6,144.5 1008.8,149.8 1005.3,155.7C1000.1,164.6 1000,165.8 1000,230.8L1000,291L948,291Z" style="fill:#fff;fill-rule:nonzero"/><rect id="pmafBumIh" width="52" height="194" x="1676" y="97" style="fill:#fff"/><g transform="matrix(1.2058,0,0,1.2058,534.063,-278.966)"><circle cx="968.582" cy="257.116" r="27.766" style="fill:#1abc9c"/></g></g></g><g transform="matrix(1.20353,0,0,1.20353,-268.686,-45.6957)"><circle cx="968.582" cy="257.116" r="27.766" style="fill:#9b59b6"/></g></svg>