<svg xmlns="http://www.w3.org/2000/svg" xmlns:xlink="http://www.w3.org/1999/xlink" width="100%" height="100%" version="1.1" viewBox="0 0 251 248" xml:space="preserve" style="fill-rule:evenodd;clip-rule:evenodd;stroke-linejoin:round;stroke-miterlimit:2"><g id="ArtBoard1" transform="matrix(1,0,0,1,-94.3481,-22.706)"><rect width="250.056" height="247.709" x="94.348" y="22.706" style="fill:none"/><g transform="matrix(0.000890348,-1.89847,1.89847,0.000890348,219.858,204.981)"><clipPath id="_clip1"><rect width="128" height="61.804" x="-64" y="-64"/></clipPath><g clip-path="url(#_clip1)"><g><g><path d="M91,1L37,1C34.2,1 32,3.2 32,6L32,122C32,124.8 34.2,127 37,127L91,127C93.8,127 96,124.8 96,122L96,6C96,3.2 93.8,1 91,1ZM94,122C94,123.7 92.7,125 91,125L37,125C35.3,125 34,123.7 34,122L34,6C34,4.3 35.3,3 37,3L91,3C92.7,3 94,4.3 94,6L94,122Z" transform="matrix(1,0,0,1,-64,-64)" style="fill:#fff;fill-rule:nonzero"/><path d="M73,10L55,10C54.4,10 54,10.4 54,11C54,11.6 54.4,12 55,12L73,12C73.6,12 74,11.6 74,11C74,10.4 73.6,10 73,10Z" transform="matrix(1,0,0,1,-64,-64)" style="fill:#fff;fill-rule:nonzero"/></g></g></g></g><g><g><g><path d="M91,1L37,1C34.2,1 32,3.2 32,6L32,122C32,124.8 34.2,127 37,127L91,127C93.8,127 96,124.8 96,122L96,6C96,3.2 93.8,1 91,1ZM94,122C94,123.7 92.7,125 91,125L37,125C35.3,125 34,123.7 34,122L34,6C34,4.3 35.3,3 37,3L91,3C92.7,3 94,4.3 94,6L94,122Z" transform="matrix(1.89619,0,0,1.89619,278.438,145.985) matrix(1,0,0,1,-64,-64)" style="fill:#fff;fill-rule:nonzero"/><path d="M73,10L55,10C54.4,10 54,10.4 54,11C54,11.6 54.4,12 55,12L73,12C73.6,12 74,11.6 74,11C74,10.4 73.6,10 73,10Z" transform="matrix(1.89619,0,0,1.89619,278.438,145.985) matrix(1,0,0,1,-64,-64)" style="fill:#fff;fill-rule:nonzero"/></g></g></g><g id="Layer_3"><path d="M64.3,26.3L62.1,28.3L69.5,36.6L39.7,36.6C22.3,36.6 8.2,22.5 8.2,5.1L5.2,5.1C5.2,24.2 20.7,39.6 39.8,39.7L69.5,39.7L62,47.9L64.2,49.9L74.8,38L64.3,26.3Z" transform="matrix(1.25037,-0.000225802,-0.000225802,-1.25037,114.144,105.162)" style="fill:#fff;fill-rule:nonzero"/><g><path d="M124.046,98.059L124.049,105.227L120.3,105.228L120.308,98.058L124.046,98.059Z" transform="matrix(1.25037,-0.000225802,-0.000225802,-1.25037,114.144,105.162) matrix(0.799766,-0.000144429,-0.000819362,-4.53716,-90.9291,450.036)" style="fill:#fff"/></g></g></g></svg>