<svg xmlns="http://www.w3.org/2000/svg" xmlns:xlink="http://www.w3.org/1999/xlink" width="100%" height="100%" version="1.1" viewBox="0 0 687 262" xml:space="preserve" style="fill-rule:evenodd;clip-rule:evenodd;stroke-linecap:round;stroke-miterlimit:2"><g><g><path d="M0.204,-0L0.409,-0L0.529,-0.491L0.65,-0L0.856,-0L1.027,-0.7L0.865,-0.7L0.74,-0.181L0.613,-0.7L0.451,-0.7L0.323,-0.18L0.198,-0.7L0.033,-0.7L0.204,-0Z" transform="matrix(1.04294,0,0,1.04294,-3.89672,-14.2478) matrix(90,0,0,90,28.5947,77.1656)" style="fill:#fff;fill-rule:nonzero"/></g><g><path d="M0.098,-0L0.61,-0L0.61,-0.14L0.255,-0.14L0.255,-0.283L0.477,-0.283L0.477,-0.417L0.255,-0.417L0.255,-0.56L0.581,-0.56L0.581,-0.7L0.098,-0.7L0.098,-0Z" transform="matrix(1.04294,0,0,1.04294,-3.89672,-14.2478) matrix(90,0,0,90,123.995,77.1656)" style="fill:#fff;fill-rule:nonzero"/></g><g><path d="M0.098,-0L0.256,-0L0.256,-0.244L0.377,-0.244C0.549,-0.244 0.654,-0.331 0.654,-0.472C0.654,-0.614 0.549,-0.7 0.377,-0.7L0.098,-0.7L0.098,-0ZM0.256,-0.371L0.256,-0.563L0.379,-0.563C0.45,-0.563 0.494,-0.525 0.494,-0.467C0.494,-0.409 0.45,-0.371 0.379,-0.371L0.256,-0.371Z" transform="matrix(1.04294,0,0,1.04294,-3.89672,-14.2478) matrix(90,0,0,90,28.5947,167.166)" style="fill:#fff;fill-rule:nonzero"/></g><g><path d="M0.098,-0L0.606,-0L0.606,-0.153L0.258,-0.153L0.258,-0.7L0.098,-0.7L0.098,-0Z" transform="matrix(1.04294,0,0,1.04294,-3.89672,-14.2478) matrix(90,0,0,90,89.8847,167.166)" style="fill:#fff;fill-rule:nonzero"/></g><g><path d="M0.017,-0L0.184,-0L0.236,-0.147L0.533,-0.147L0.585,-0L0.756,-0L0.491,-0.7L0.282,-0.7L0.017,-0ZM0.279,-0.275L0.381,-0.562L0.387,-0.562L0.489,-0.275L0.279,-0.275Z" transform="matrix(1.04294,0,0,1.04294,-3.89672,-14.2478) matrix(90,0,0,90,147.395,167.166)" style="fill:#fff;fill-rule:nonzero"/></g><g><path d="M0.098,-0L0.249,-0L0.249,-0.471L0.574,-0L0.742,-0L0.742,-0.7L0.593,-0.7L0.593,-0.23L0.266,-0.7L0.098,-0.7L0.098,-0Z" transform="matrix(1.04294,0,0,1.04294,-3.89672,-14.2478) matrix(90,0,0,90,216.965,167.166)" style="fill:#fff;fill-rule:nonzero"/></g><g><path d="M0.279,-0L0.439,-0L0.439,-0.547L0.69,-0.547L0.69,-0.7L0.027,-0.7L0.027,-0.547L0.279,-0.547L0.279,-0Z" transform="matrix(1.04294,0,0,1.04294,-3.89672,-14.2478) matrix(90,0,0,90,292.565,167.166)" style="fill:#fff;fill-rule:nonzero"/></g><g><path d="M0.279,-0L0.439,-0L0.439,-0.547L0.69,-0.547L0.69,-0.7L0.027,-0.7L0.027,-0.547L0.279,-0.547L0.279,-0Z" transform="matrix(1.04294,0,0,1.04294,-3.89672,-14.2478) matrix(90,0,0,90,28.5947,263.166)" style="fill:#fff;fill-rule:nonzero"/></g><g><path d="M0.098,-0L0.256,-0L0.256,-0.247L0.356,-0.247L0.529,-0L0.713,-0L0.525,-0.269C0.615,-0.303 0.668,-0.374 0.668,-0.473C0.668,-0.614 0.562,-0.7 0.391,-0.7L0.098,-0.7L0.098,-0ZM0.256,-0.376L0.256,-0.561L0.395,-0.561C0.464,-0.561 0.508,-0.525 0.508,-0.469C0.508,-0.413 0.464,-0.376 0.395,-0.376L0.256,-0.376Z" transform="matrix(1.04294,0,0,1.04294,-3.89672,-14.2478) matrix(90,0,0,90,93.1247,263.166)" style="fill:#fff;fill-rule:nonzero"/></g><g><path d="M0.098,-0L0.61,-0L0.61,-0.14L0.255,-0.14L0.255,-0.283L0.477,-0.283L0.477,-0.417L0.255,-0.417L0.255,-0.56L0.581,-0.56L0.581,-0.7L0.098,-0.7L0.098,-0Z" transform="matrix(1.04294,0,0,1.04294,-3.89672,-14.2478) matrix(90,0,0,90,159.095,263.166)" style="fill:#fff;fill-rule:nonzero"/></g><g><path d="M0.098,-0L0.61,-0L0.61,-0.14L0.255,-0.14L0.255,-0.283L0.477,-0.283L0.477,-0.417L0.255,-0.417L0.255,-0.56L0.581,-0.56L0.581,-0.7L0.098,-0.7L0.098,-0Z" transform="matrix(1.04294,0,0,1.04294,-3.89672,-14.2478) matrix(90,0,0,90,218.315,263.166)" style="fill:#fff;fill-rule:nonzero"/></g><g><path d="M0.361,0.015C0.555,0.015 0.666,-0.067 0.666,-0.194C0.666,-0.342 0.529,-0.384 0.383,-0.415C0.283,-0.436 0.214,-0.448 0.214,-0.506C0.214,-0.559 0.28,-0.58 0.34,-0.58C0.424,-0.58 0.486,-0.541 0.5,-0.465L0.667,-0.465C0.649,-0.643 0.501,-0.715 0.345,-0.715C0.196,-0.715 0.048,-0.653 0.048,-0.504C0.048,-0.348 0.201,-0.311 0.333,-0.283C0.443,-0.26 0.499,-0.249 0.499,-0.191C0.499,-0.141 0.441,-0.118 0.361,-0.118C0.268,-0.118 0.205,-0.163 0.19,-0.242L0.031,-0.242C0.046,-0.068 0.185,0.015 0.361,0.015Z" transform="matrix(1.04294,0,0,1.04294,-3.89672,-14.2478) matrix(90,0,0,90,277.535,263.166)" style="fill:#fff;fill-rule:nonzero"/></g><g><path d="M0.152,0.01C0.206,0.01 0.247,-0.031 0.247,-0.085C0.247,-0.139 0.206,-0.18 0.152,-0.18C0.098,-0.18 0.057,-0.139 0.057,-0.085C0.057,-0.031 0.098,0.01 0.152,0.01Z" transform="matrix(1.04294,0,0,1.04294,-3.89672,-14.2478) matrix(90,0,0,90,341.075,263.166)" style="fill:#fff;fill-rule:nonzero"/></g></g><g><g><path d="M11,21L11,16.74C10.53,16.91 10.03,17 9.5,17C7,17 5,15 5,12.5C5,11.23 5.5,10.09 6.36,9.27C6.13,8.73 6,8.13 6,7.5C6,5 8,3 10.5,3C12.06,3 13.44,3.8 14.25,5L14.5,5C17.517,5 20,7.483 20,10.5C20,13.517 17.517,16 14.5,16C14,16 13.5,15.93 13,15.79L13,21L11,21Z" transform="matrix(13.6769,0,0,13.6769,533.052,130.38) matrix(1,0,0,1,-12,-12)" style="fill:none;fill-rule:nonzero;stroke:#fff;stroke-width:.8px"/></g></g></svg>