<svg xmlns="http://www.w3.org/2000/svg" xmlns:xlink="http://www.w3.org/1999/xlink" width="100%" height="100%" version="1.1" viewBox="0 0 1626 358" xml:space="preserve" style="fill-rule:evenodd;clip-rule:evenodd;stroke-linejoin:round;stroke-miterlimit:2"><g id="ArtBoard1" transform="matrix(0.992565,0,0,0.976381,-168.646,-163.651)"><rect width="1638.1" height="365.787" x="169.909" y="167.61" style="fill:none"/><g><g><path d="M13.398,20.102L13.398,20.5C13.398,20.602 13.398,20.602 13.5,20.7C13.5,20.801 13.601,20.801 13.601,20.899C13.601,20.899 13.601,21 13.703,21C26.898,42.199 36.301,61 47,87.898L47,88.102C47,88.203 47.101,88.203 47.101,88.301C47.203,88.402 47.203,88.5 47.3,88.5L47.402,88.5C47.504,88.5 47.504,88.602 47.601,88.602L47.703,88.602C47.804,88.602 47.902,88.703 48.004,88.703L49.007,88.703C49.109,88.703 49.109,88.703 49.207,88.602L49.308,88.602C49.41,88.602 49.41,88.5 49.507,88.5C49.507,88.5 49.609,88.5 49.609,88.398C49.711,88.297 49.808,88.297 49.808,88.199C49.91,88.098 49.91,88 50.007,88L50.007,87.898C50.007,87.797 50.109,87.797 50.109,87.699L50.109,87.496C54.308,74.297 59.41,62.098 65.711,50.394C67.91,51.195 70.012,51.496 72.012,51.496C76.813,51.496 80.91,49.394 84.012,45.296C88.41,39.398 87.91,31.898 87.512,25.796C87.313,22.296 87.113,18.898 88.113,17.597C88.313,17.297 88.414,16.898 88.414,16.597C88.414,16.097 88.215,15.496 87.715,15.199C86.914,14.597 85.817,14.8 85.317,15.597C84.317,16.898 81.117,17.699 77.617,18.496C71.719,19.894 64.418,21.695 60.015,27.597C55.117,34.199 56.015,41.995 62.414,48.898L62.515,49C59.715,54.199 57.215,59.5 54.816,64.898C45.418,41.199 32.714,21.199 31.214,18.898C30.913,18.398 30.316,18.097 29.714,18.097L15.198,18.101L14.499,18.101C14.397,18.101 14.397,18.203 14.3,18.203C14.3,18.203 14.198,18.203 14.198,18.304C14.097,18.304 14.097,18.406 13.999,18.406L13.491,18.914C13.491,19.015 13.491,19.015 13.39,19.113L13.39,19.613C13.397,19.999 13.397,20.101 13.397,20.101L13.398,20.102ZM63,29.801C66.602,24.903 73,23.403 78.602,22.102C80.602,21.602 82.5,21.204 84.102,20.602C84,22.301 84.102,24.204 84.301,26.301C84.7,32.102 85.102,38.602 81.403,43.5C77.301,49 71.801,48.801 67.704,47.602C70.602,42.301 73.805,37.204 77.305,32C77.805,31.199 77.606,30.101 76.805,29.601C76.005,29.101 74.907,29.301 74.407,30.101C70.805,35.402 67.606,40.703 64.606,46.101C61.501,42.5 58.102,36.398 63.001,29.8L63,29.801ZM53,69.5C53,69.602 53.102,69.602 53.102,69.699C51.5,73.801 49.902,77.899 48.5,82.097C38.801,58.499 30.102,40.999 18.301,21.699L29,21.699C32,26.399 44.301,46.601 53,69.5L53,69.5Z" style="fill:#fff;fill-rule:nonzero" transform="matrix(4.19788,0,0,4.26746,-2218.78,-58.1777) matrix(1,0,0,1,557.576,39.8021)"/></g><g><g><path d="M0.289,0.009C0.237,0.009 0.193,-0.003 0.156,-0.025C0.119,-0.047 0.09,-0.079 0.07,-0.119C0.049,-0.159 0.039,-0.207 0.039,-0.261C0.039,-0.316 0.049,-0.364 0.069,-0.404C0.089,-0.445 0.117,-0.477 0.154,-0.5C0.191,-0.522 0.235,-0.533 0.285,-0.533C0.342,-0.533 0.388,-0.521 0.425,-0.496C0.461,-0.471 0.488,-0.437 0.504,-0.394C0.52,-0.351 0.525,-0.302 0.52,-0.248L0.119,-0.248C0.12,-0.207 0.128,-0.173 0.142,-0.144C0.156,-0.115 0.175,-0.094 0.201,-0.079C0.226,-0.064 0.255,-0.056 0.289,-0.056C0.329,-0.056 0.363,-0.066 0.389,-0.085C0.416,-0.103 0.433,-0.128 0.44,-0.159L0.518,-0.159C0.513,-0.126 0.5,-0.096 0.479,-0.071C0.458,-0.046 0.431,-0.026 0.398,-0.012C0.366,0.002 0.329,0.009 0.289,0.009ZM0.12,-0.296L0.112,-0.304L0.45,-0.304L0.441,-0.294C0.442,-0.333 0.436,-0.365 0.423,-0.391C0.41,-0.417 0.392,-0.436 0.368,-0.449C0.344,-0.462 0.317,-0.469 0.284,-0.469C0.252,-0.469 0.224,-0.462 0.2,-0.448C0.176,-0.434 0.157,-0.414 0.143,-0.388C0.13,-0.362 0.122,-0.332 0.12,-0.296Z" style="fill:#fff;fill-rule:nonzero" transform="matrix(4.19788,0,0,4.26746,-2218.78,-58.1777) matrix(1,0,0,1,499.554,-89.5477) matrix(50,0,0,50,122.601,218.05)"/></g><g><path d="M0.277,0.177C0.238,0.177 0.203,0.171 0.173,0.159C0.143,0.147 0.119,0.131 0.1,0.109C0.082,0.087 0.071,0.061 0.067,0.031L0.146,0.031C0.149,0.048 0.156,0.063 0.168,0.076C0.18,0.089 0.195,0.099 0.214,0.105C0.233,0.112 0.254,0.115 0.279,0.115C0.312,0.115 0.34,0.111 0.364,0.101C0.387,0.091 0.405,0.076 0.418,0.054C0.431,0.032 0.437,0.003 0.437,-0.034L0.437,-0.143L0.431,-0.143C0.419,-0.109 0.397,-0.082 0.366,-0.061C0.334,-0.04 0.296,-0.03 0.252,-0.03C0.22,-0.03 0.191,-0.035 0.165,-0.047C0.138,-0.058 0.116,-0.075 0.097,-0.097C0.079,-0.118 0.064,-0.145 0.054,-0.176C0.044,-0.207 0.039,-0.243 0.039,-0.282C0.039,-0.335 0.048,-0.38 0.066,-0.417C0.084,-0.455 0.109,-0.484 0.141,-0.504C0.174,-0.524 0.211,-0.534 0.254,-0.534C0.298,-0.534 0.335,-0.524 0.366,-0.503C0.398,-0.483 0.419,-0.456 0.431,-0.422L0.437,-0.422L0.439,-0.525L0.517,-0.525L0.517,-0.041C0.517,-0.001 0.512,0.032 0.5,0.06C0.489,0.088 0.472,0.11 0.451,0.127C0.429,0.145 0.404,0.157 0.375,0.165C0.345,0.173 0.313,0.177 0.277,0.177ZM0.278,-0.094C0.312,-0.094 0.34,-0.102 0.364,-0.118C0.387,-0.133 0.405,-0.153 0.418,-0.177C0.43,-0.2 0.437,-0.225 0.437,-0.25L0.437,-0.314C0.436,-0.339 0.43,-0.364 0.418,-0.387C0.406,-0.411 0.389,-0.43 0.365,-0.446C0.342,-0.461 0.314,-0.469 0.279,-0.469C0.247,-0.469 0.219,-0.461 0.196,-0.446C0.172,-0.432 0.154,-0.41 0.141,-0.382C0.129,-0.354 0.122,-0.321 0.122,-0.282C0.122,-0.242 0.129,-0.208 0.142,-0.18C0.155,-0.152 0.173,-0.131 0.196,-0.116C0.22,-0.102 0.247,-0.094 0.278,-0.094Z" style="fill:#fff;fill-rule:nonzero" transform="matrix(4.19788,0,0,4.26746,-2218.78,-58.1777) matrix(1,0,0,1,499.554,-89.5477) matrix(50,0,0,50,150.501,218.05)"/></g><g><path d="M0.255,0.009C0.223,0.009 0.194,0.003 0.167,-0.01C0.141,-0.022 0.118,-0.039 0.099,-0.062C0.08,-0.085 0.065,-0.114 0.055,-0.147C0.044,-0.181 0.039,-0.219 0.039,-0.263C0.039,-0.321 0.048,-0.37 0.067,-0.41C0.085,-0.451 0.11,-0.481 0.142,-0.502C0.175,-0.523 0.212,-0.534 0.255,-0.534C0.286,-0.534 0.314,-0.529 0.339,-0.519C0.363,-0.509 0.384,-0.496 0.402,-0.478C0.419,-0.461 0.432,-0.44 0.441,-0.416L0.446,-0.416L0.449,-0.525L0.527,-0.525L0.527,-0L0.446,-0L0.446,-0.11L0.441,-0.11C0.428,-0.075 0.405,-0.046 0.373,-0.024C0.341,-0.002 0.301,0.009 0.255,0.009ZM0.282,-0.059C0.317,-0.059 0.347,-0.068 0.371,-0.084C0.395,-0.101 0.413,-0.122 0.426,-0.148C0.438,-0.174 0.445,-0.202 0.445,-0.231L0.445,-0.295C0.445,-0.324 0.438,-0.352 0.426,-0.379C0.413,-0.405 0.395,-0.426 0.371,-0.442C0.347,-0.459 0.317,-0.467 0.282,-0.467C0.25,-0.467 0.222,-0.459 0.198,-0.443C0.174,-0.428 0.156,-0.405 0.142,-0.375C0.129,-0.345 0.122,-0.307 0.122,-0.263C0.122,-0.219 0.129,-0.182 0.142,-0.152C0.156,-0.121 0.174,-0.098 0.198,-0.083C0.222,-0.067 0.25,-0.059 0.282,-0.059Z" style="fill:#fff;fill-rule:nonzero" transform="matrix(4.19788,0,0,4.26746,-2218.78,-58.1777) matrix(1,0,0,1,499.554,-89.5477) matrix(50,0,0,50,179.001,218.05)"/></g><g><path d="M0.076,-0L0.076,-0.525L0.153,-0.525L0.156,-0.416L0.162,-0.416C0.178,-0.455 0.203,-0.484 0.236,-0.504C0.269,-0.523 0.306,-0.533 0.345,-0.533C0.373,-0.533 0.398,-0.529 0.421,-0.521C0.444,-0.513 0.464,-0.5 0.48,-0.482C0.497,-0.464 0.51,-0.441 0.52,-0.413C0.529,-0.384 0.534,-0.35 0.534,-0.309L0.534,-0L0.453,-0L0.453,-0.293C0.453,-0.332 0.448,-0.365 0.439,-0.39C0.429,-0.415 0.414,-0.434 0.395,-0.447C0.375,-0.459 0.35,-0.465 0.319,-0.465C0.286,-0.465 0.258,-0.457 0.233,-0.441C0.209,-0.425 0.19,-0.403 0.176,-0.376C0.163,-0.349 0.156,-0.318 0.156,-0.284L0.156,-0L0.076,-0Z" style="fill:#fff;fill-rule:nonzero" transform="matrix(4.19788,0,0,4.26746,-2218.78,-58.1777) matrix(1,0,0,1,499.554,-89.5477) matrix(50,0,0,50,208.151,218.05)"/></g><g><path d="M0.291,0.009C0.253,0.009 0.219,0.002 0.188,-0.011C0.157,-0.024 0.13,-0.042 0.108,-0.066C0.086,-0.09 0.069,-0.118 0.057,-0.151C0.045,-0.184 0.039,-0.221 0.039,-0.262C0.039,-0.316 0.05,-0.364 0.071,-0.404C0.091,-0.445 0.121,-0.476 0.159,-0.499C0.198,-0.522 0.243,-0.533 0.294,-0.533C0.335,-0.533 0.372,-0.526 0.405,-0.51C0.437,-0.495 0.464,-0.473 0.484,-0.445C0.504,-0.418 0.515,-0.386 0.518,-0.349L0.44,-0.349C0.435,-0.374 0.426,-0.395 0.412,-0.412C0.398,-0.429 0.381,-0.442 0.36,-0.451C0.339,-0.46 0.317,-0.464 0.292,-0.464C0.256,-0.464 0.226,-0.456 0.2,-0.439C0.174,-0.422 0.155,-0.398 0.141,-0.368C0.128,-0.337 0.121,-0.302 0.121,-0.261C0.121,-0.219 0.128,-0.183 0.142,-0.153C0.157,-0.123 0.176,-0.1 0.202,-0.084C0.227,-0.068 0.257,-0.06 0.291,-0.06C0.319,-0.06 0.344,-0.066 0.366,-0.076C0.387,-0.086 0.405,-0.1 0.418,-0.119C0.431,-0.138 0.439,-0.159 0.442,-0.184L0.521,-0.184C0.518,-0.145 0.506,-0.111 0.486,-0.082C0.465,-0.053 0.438,-0.031 0.405,-0.015C0.372,0.001 0.333,0.009 0.291,0.009Z" style="fill:#fff;fill-rule:nonzero" transform="matrix(4.19788,0,0,4.26746,-2218.78,-58.1777) matrix(1,0,0,1,499.554,-89.5477) matrix(50,0,0,50,237.451,218.05)"/></g><g><path d="M0.076,-0L0.076,-0.729L0.156,-0.729L0.156,-0.416L0.162,-0.416C0.178,-0.455 0.203,-0.484 0.236,-0.504C0.269,-0.523 0.306,-0.533 0.345,-0.533C0.373,-0.533 0.398,-0.529 0.421,-0.521C0.444,-0.513 0.464,-0.5 0.48,-0.482C0.497,-0.464 0.51,-0.441 0.52,-0.413C0.529,-0.384 0.534,-0.35 0.534,-0.309L0.534,-0L0.453,-0L0.453,-0.293C0.453,-0.332 0.448,-0.365 0.439,-0.39C0.429,-0.415 0.414,-0.434 0.395,-0.447C0.375,-0.459 0.35,-0.465 0.319,-0.465C0.286,-0.465 0.258,-0.457 0.233,-0.441C0.209,-0.425 0.19,-0.403 0.176,-0.376C0.163,-0.349 0.156,-0.318 0.156,-0.284L0.156,-0L0.076,-0Z" style="fill:#fff;fill-rule:nonzero" transform="matrix(4.19788,0,0,4.26746,-2218.78,-58.1777) matrix(1,0,0,1,499.554,-89.5477) matrix(50,0,0,50,264.751,218.05)"/></g><g><path d="M0.289,0.009C0.237,0.009 0.193,-0.003 0.156,-0.025C0.119,-0.047 0.09,-0.079 0.07,-0.119C0.049,-0.159 0.039,-0.207 0.039,-0.261C0.039,-0.316 0.049,-0.364 0.069,-0.404C0.089,-0.445 0.117,-0.477 0.154,-0.5C0.191,-0.522 0.235,-0.533 0.285,-0.533C0.342,-0.533 0.388,-0.521 0.425,-0.496C0.461,-0.471 0.488,-0.437 0.504,-0.394C0.52,-0.351 0.525,-0.302 0.52,-0.248L0.119,-0.248C0.12,-0.207 0.128,-0.173 0.142,-0.144C0.156,-0.115 0.175,-0.094 0.201,-0.079C0.226,-0.064 0.255,-0.056 0.289,-0.056C0.329,-0.056 0.363,-0.066 0.389,-0.085C0.416,-0.103 0.433,-0.128 0.44,-0.159L0.518,-0.159C0.513,-0.126 0.5,-0.096 0.479,-0.071C0.458,-0.046 0.431,-0.026 0.398,-0.012C0.366,0.002 0.329,0.009 0.289,0.009ZM0.12,-0.296L0.112,-0.304L0.45,-0.304L0.441,-0.294C0.442,-0.333 0.436,-0.365 0.423,-0.391C0.41,-0.417 0.392,-0.436 0.368,-0.449C0.344,-0.462 0.317,-0.469 0.284,-0.469C0.252,-0.469 0.224,-0.462 0.2,-0.448C0.176,-0.434 0.157,-0.414 0.143,-0.388C0.13,-0.362 0.122,-0.332 0.12,-0.296Z" style="fill:#fff;fill-rule:nonzero" transform="matrix(4.19788,0,0,4.26746,-2218.78,-58.1777) matrix(1,0,0,1,499.554,-89.5477) matrix(50,0,0,50,294.051,218.05)"/></g><g><path d="M0.291,0.009C0.253,0.009 0.219,0.002 0.188,-0.011C0.157,-0.024 0.13,-0.042 0.108,-0.066C0.086,-0.09 0.069,-0.118 0.057,-0.151C0.045,-0.184 0.039,-0.221 0.039,-0.262C0.039,-0.316 0.05,-0.364 0.071,-0.404C0.091,-0.445 0.121,-0.476 0.159,-0.499C0.198,-0.522 0.243,-0.533 0.294,-0.533C0.335,-0.533 0.372,-0.526 0.405,-0.51C0.437,-0.495 0.464,-0.473 0.484,-0.445C0.504,-0.418 0.515,-0.386 0.518,-0.349L0.44,-0.349C0.435,-0.374 0.426,-0.395 0.412,-0.412C0.398,-0.429 0.381,-0.442 0.36,-0.451C0.339,-0.46 0.317,-0.464 0.292,-0.464C0.256,-0.464 0.226,-0.456 0.2,-0.439C0.174,-0.422 0.155,-0.398 0.141,-0.368C0.128,-0.337 0.121,-0.302 0.121,-0.261C0.121,-0.219 0.128,-0.183 0.142,-0.153C0.157,-0.123 0.176,-0.1 0.202,-0.084C0.227,-0.068 0.257,-0.06 0.291,-0.06C0.319,-0.06 0.344,-0.066 0.366,-0.076C0.387,-0.086 0.405,-0.1 0.418,-0.119C0.431,-0.138 0.439,-0.159 0.442,-0.184L0.521,-0.184C0.518,-0.145 0.506,-0.111 0.486,-0.082C0.465,-0.053 0.438,-0.031 0.405,-0.015C0.372,0.001 0.333,0.009 0.291,0.009Z" style="fill:#fff;fill-rule:nonzero" transform="matrix(4.19788,0,0,4.26746,-2218.78,-58.1777) matrix(1,0,0,1,499.554,-89.5477) matrix(50,0,0,50,321.951,218.05)"/></g><g><path d="M0.076,-0L0.076,-0.729L0.158,-0.729L0.158,-0.257L0.205,-0.307L0.421,-0.525L0.523,-0.525L0.318,-0.322L0.532,-0L0.437,-0L0.294,-0.215L0.262,-0.267L0.158,-0.166L0.158,-0L0.076,-0Z" style="fill:#fff;fill-rule:nonzero" transform="matrix(4.19788,0,0,4.26746,-2218.78,-58.1777) matrix(1,0,0,1,499.554,-89.5477) matrix(50,0,0,50,349.251,218.05)"/></g><g transform="matrix(4.19788,0,0,4.26746,-2218.78,-58.1777) matrix(1,0,0,1,499.554,-89.5477) matrix(50,0,0,50,375.401,218.05)"><rect width=".083" height=".09" x=".058" y="-.09" style="fill:#fff;fill-rule:nonzero"/></g><g><path d="M0.076,-0L0.076,-0.525L0.153,-0.525L0.156,-0.416L0.162,-0.416C0.177,-0.455 0.202,-0.484 0.234,-0.504C0.267,-0.523 0.302,-0.533 0.342,-0.533C0.382,-0.533 0.417,-0.524 0.448,-0.504C0.479,-0.484 0.501,-0.452 0.514,-0.407L0.522,-0.407C0.538,-0.449 0.562,-0.48 0.597,-0.502C0.631,-0.523 0.669,-0.533 0.712,-0.533C0.747,-0.533 0.779,-0.526 0.807,-0.511C0.834,-0.496 0.856,-0.472 0.872,-0.44C0.888,-0.407 0.896,-0.363 0.896,-0.309L0.896,-0L0.816,-0L0.816,-0.293C0.816,-0.332 0.811,-0.365 0.801,-0.39C0.792,-0.415 0.778,-0.434 0.758,-0.447C0.739,-0.459 0.714,-0.465 0.684,-0.465C0.652,-0.465 0.625,-0.457 0.601,-0.441C0.577,-0.425 0.559,-0.403 0.546,-0.376C0.533,-0.349 0.527,-0.318 0.527,-0.284L0.527,-0L0.445,-0L0.445,-0.293C0.445,-0.332 0.44,-0.365 0.431,-0.39C0.422,-0.415 0.407,-0.434 0.388,-0.447C0.369,-0.459 0.345,-0.465 0.315,-0.465C0.283,-0.465 0.255,-0.457 0.231,-0.441C0.208,-0.425 0.189,-0.403 0.176,-0.376C0.163,-0.349 0.156,-0.318 0.156,-0.284L0.156,-0L0.076,-0Z" style="fill:#fff;fill-rule:nonzero" transform="matrix(4.19788,0,0,4.26746,-2218.78,-58.1777) matrix(1,0,0,1,499.554,-89.5477) matrix(50,0,0,50,383.951,218.05)"/></g><g><path d="M0.289,0.009C0.237,0.009 0.193,-0.003 0.156,-0.025C0.119,-0.047 0.09,-0.079 0.07,-0.119C0.049,-0.159 0.039,-0.207 0.039,-0.261C0.039,-0.316 0.049,-0.364 0.069,-0.404C0.089,-0.445 0.117,-0.477 0.154,-0.5C0.191,-0.522 0.235,-0.533 0.285,-0.533C0.342,-0.533 0.388,-0.521 0.425,-0.496C0.461,-0.471 0.488,-0.437 0.504,-0.394C0.52,-0.351 0.525,-0.302 0.52,-0.248L0.119,-0.248C0.12,-0.207 0.128,-0.173 0.142,-0.144C0.156,-0.115 0.175,-0.094 0.201,-0.079C0.226,-0.064 0.255,-0.056 0.289,-0.056C0.329,-0.056 0.363,-0.066 0.389,-0.085C0.416,-0.103 0.433,-0.128 0.44,-0.159L0.518,-0.159C0.513,-0.126 0.5,-0.096 0.479,-0.071C0.458,-0.046 0.431,-0.026 0.398,-0.012C0.366,0.002 0.329,0.009 0.289,0.009ZM0.12,-0.296L0.112,-0.304L0.45,-0.304L0.441,-0.294C0.442,-0.333 0.436,-0.365 0.423,-0.391C0.41,-0.417 0.392,-0.436 0.368,-0.449C0.344,-0.462 0.317,-0.469 0.284,-0.469C0.252,-0.469 0.224,-0.462 0.2,-0.448C0.176,-0.434 0.157,-0.414 0.143,-0.388C0.13,-0.362 0.122,-0.332 0.12,-0.296Z" style="fill:#fff;fill-rule:nonzero" transform="matrix(4.19788,0,0,4.26746,-2218.78,-58.1777) matrix(1,0,0,1,499.554,-89.5477) matrix(50,0,0,50,432.001,218.05)"/></g></g></g></g></svg>