<?xml version="1.0" standalone="no"?>
<!DOCTYPE svg PUBLIC "-//W3C//DTD SVG 1.1//EN" "http://www.w3.org/Graphics/SVG/1.1/DTD/svg11.dtd">
<svg xmlns="http://www.w3.org/2000/svg">
<metadata>Copyright (C) 2023 by original authors @ fontello.com</metadata>
<defs>
<font id="nutriscore" horiz-adv-x="1000" >
<font-face font-family="nutriscore" font-weight="400" font-stretch="normal" units-per-em="1000" ascent="850" descent="-150" />
<missing-glyph horiz-adv-x="1000" />
<glyph glyph-name="ingredients" unicode="&#xe90;" d="M811 239l-755 0c-8 0-15-7-15-15 0-203 166-369 369-369l48 0c203 0 368 166 368 369 0 8-7 15-15 15l0 0z m-353-355l-48 0c-182 0-332 145-339 325l726 0c-8-180-157-325-339-325l0 0z m-146 556c0-21 18-38 41-38 22 0 40 17 40 38 0 21-18 38-40 38-23 0-41-17-41-38z m52 0c0-5-5-9-11-9-6 0-11 4-11 9 0 5 5 9 11 9 6 0 11-4 11-9z m-99 0c0-45 39-82 88-82 48 0 87 37 87 82 0 45-39 82-87 82-49 0-88-37-88-82z m146 0c0-29-26-53-58-53-33 0-59 24-59 53 0 29 26 53 59 53 32 0 58-24 58-53z m138 270c22 0 40 17 40 38 0 21-18 38-40 38-22 0-40-17-40-38 0-21 18-38 40-38z m0 47c6 0 11-4 11-9 0-5-5-9-11-9-6 0-11 4-11 9 0 5 5 9 11 9z m0-91c49 0 88 37 88 82 0 45-39 82-88 82-48 0-88-37-88-82 0-45 40-82 88-82z m0 135c32 0 59-24 59-53 0-29-27-53-59-53-32 0-59 24-59 53 0 29 27 53 59 53z m43-265c-9 4-19 5-26 5-1 0-2 0-2 0-20-1-35-4-48-11-17-10-29-28-30-46 0-5 3-10 8-13 4-3 10-3 15 0 0 0 0 1 1 1-2-4-4-7-5-11-5-15-3-32 4-47 4-7 8-12 13-17-1-6-1-12-1-17 0-69 59-125 132-125 73 0 133 56 133 125 0 48-30 92-76 112-1 0-2 1-2 1-12 12-30 28-52 34-6 2-13 2-19 2-6 0-11 0-17-2 6 12 17 22 29 27 8 3 12 12 8 19-3 8-11 12-19 9-20-9-37-26-46-46l0 0z m-28-24c1 0 1 0 2 0 8 0 13-2 16-4 3-1 4-4 4-5-1-1-1-2-1-4-12 7-26 10-40 11 6 1 12 1 19 2l0 0z m92-122c4-4 10-6 16-4 6 1 10 6 10 12 1 15 3 34-4 51-3 10-8 18-15 24 2 1 5 1 8 1 8 0 15-2 20-6 2-1 4-2 6-2 0 0 0 0 1-1 35-15 58-49 58-85 0-53-46-95-103-95-57 0-103 42-103 95 0 1 0 1 0 2 4 0 9 2 11 6 4 5 4 11 1 17-3 4-2 10-1 13 2 7 6 13 12 16 5 3 10 4 16 4 9 0 19-3 28-9 15-9 27-24 39-39l0 0z m-9 109c-10-4-20-10-27-18-3-5-4-11-2-16 3-5 8-9 14-8l0 0c8 0 16-9 19-17 0 0 0 0 0 0-6 5-12 10-19 14-13 8-29 13-43 13-11 0-20-2-29-7-12-6-21-17-26-30-3 7-4 15-1 22 4 12 18 22 32 22 3 0 6-1 9-2 7-2 15 1 18 8 1 1 1 2 1 3 7-2 14 0 18 6 5 7 15 11 26 11 3 0 7 0 10-1l0 0z m-577-181c10 0 20 4 28 11l3 2 36-41c2-3 6-5 10-5 0 0 0 0 1 0 3 0 7 1 9 4l60 52c6 5 7 14 1 21l-35 40 2 3c18 15 20 43 4 61l-9 10 0 0-1 2c0 0-1 0-1 1-17 18-40 29-65 31-26 1-52-7-72-25l-4-3c-40-35-44-96-11-137 0 0 1 0 1-1l10-11c8-9 18-14 30-15 1 0 2 0 3 0l0 0z m80 121c5 3 11 6 16 9l1-1c5-6 5-15-1-20l-3-3-13 15z m-93 21l4 3c14 13 31 19 50 17 12 0 23-4 33-10-8-5-16-10-24-15-6-5-8-14-4-21 1 0 1 0 1-1 1-1 1-2 2-2l68-78-38-33-68 78c0 0-1 1-2 2 0 0-1 0-1 1-6 5-15 5-21-1-6-7-12-15-17-22-13 27-7 61 17 82l0 0z m2-108l-1 1c3 5 7 10 11 15l13-15-3-2c-3-3-6-4-10-4-4 0-8 2-10 5l0 0z m19 335c0 0 1 0 1 0 1 0 1 0 2 0 1-1 2-3 3-5 23-33 51-64 82-91 18-14 39-31 65-37 8-2 17-3 26-3 18 0 39 4 60 13 23 9 38 20 49 33 14 18 21 44 18 69-2 20-9 41-22 64-4 6-12 9-18 6-7-2-11-10-9-17 4-19-6-41-22-51-17-10-41-8-56 4-12 10-19 25-26 40-3 8-7 16-11 24-4 8-7 15-10 22-1 14-7 27-15 36-15 15-37 16-55 15l-13 23c-2 5-7 13-15 17-3 2-7 3-11 3-11 0-19-6-22-16-2-6 1-14 8-17 8-4 15-13 18-23-15-7-28-19-36-34-10-20-12-44-5-65 2-6 8-10 14-10l0 0z m160-37c24-21 62-24 90-7 11 7 20 16 26 27 0-2 1-4 1-7 2-18-2-35-12-47-8-10-19-18-37-25-26-10-49-13-68-9-20 5-38 19-53 32-29 25-55 53-77 85-4 6-7 12-8 17 3 4 6 7 11 10 3-8 10-15 18-20 11-8 24-12 35-14 7-2 14 1 17 8 3 6 1 14-5 18-7 5-13 14-15 23 8-4 15-11 18-19 2-6 8-10 15-9 1 0 3 0 4 1 2-5 5-10 7-14 8-17 16-36 33-50l0 0z m-113 123c0 0 0 0 0 0 0 0 0 0 0 0 1 0 1 1 2 1 0 0 0 0 0 0l12 6c13 0 28 0 35-6 2-3 4-6 5-9-10 5-22 8-33 8-7 0-13-5-14-12 0-2-1-3-1-5 0 0 0 0 0 1-4 3-8 4-13 3-7-1-14-4-21-8 7 10 16 17 28 21l0 0z" horiz-adv-x="833" />

<glyph glyph-name="a" unicode="&#xe90a;" d="M655 177l-268 0-50-123-183 0 280 635 177 0 281-635-187 0-50 123z m-53 132l-81 204-82-204 163 0z" horiz-adv-x="1044" />

<glyph glyph-name="b" unicode="&#xe90b;" d="M709 384c36-13 64-33 85-59 21-27 31-60 31-98 0-55-23-99-67-129-45-30-110-45-195-45l-342 0 0 635 324 0c81 0 143-15 185-45 43-30 64-71 64-121 0-30-7-57-22-81-15-24-36-44-63-57z m-311 174l0-122 124 0c61 0 90 20 90 61 0 41-29 61-90 61l-124 0z m151-375c63 0 94 21 94 64 0 43-31 64-94 64l-151 0 0-128 151 0z" horiz-adv-x="1044" />

<glyph glyph-name="c" unicode="&#xe90c;" d="M561 40c-66 0-126 15-179 43-53 28-95 67-125 117-30 50-45 107-45 170 0 64 15 121 45 171 30 50 72 89 125 118 53 28 113 41 179 41 58 0 110-10 157-30 46-21 85-50 116-89l-115-104c-40 50-90 75-149 75-35 0-65-8-92-23-27-15-48-36-62-64-16-28-23-59-23-95 0-35 7-67 23-94 14-28 35-49 62-64 27-16 57-23 92-23 59 0 109 24 149 74l115-103c-31-39-70-68-116-89-47-21-99-31-157-31z" horiz-adv-x="1044" />

<glyph glyph-name="d" unicode="&#xe90d;" d="M194 688l301 0c69 0 131-13 185-39 53-27 95-63 125-111 30-48 44-103 44-168 0-64-14-119-44-168-30-48-72-84-125-110-54-26-116-39-185-39l-301 0 0 635z m293-492c55 0 98 16 132 46 32 31 49 74 49 128 0 55-17 97-49 128-34 31-77 46-132 46l-113 0 0-348 113 0z" horiz-adv-x="1044" />

<glyph glyph-name="e" unicode="&#xe90e;" d="M777 192l0-139-509 0 0 635 498 0 0-139-320 0 0-107 282 0 0-134-282 0 0-116 331 0z" horiz-adv-x="1044" />

<glyph glyph-name="kofi" unicode="&#xf097;" d="M17 830c-17-21-17-29-17-428 0-451-1-439 54-495 56-56 67-57 500-57 426 0 436 1 500 48 41 28 68 84 76 150 6 49 14 53 94 54 41 0 123 26 173 55 245 140 236 515-15 643-102 52-61 50-737 50l-613 0-15-20z m1279-200c61-44 82-85 82-156 0-122-84-193-218-184l-18 1 0 181 0 181 61 0c56 0 66-2 93-23z m-483-41c73-41 96-131 58-217-17-38-45-68-156-178-74-72-140-131-146-131-13 0-56 38-197 175-107 105-124 134-124 220 0 68 21 104 75 133 59 31 179 11 224-39l14-17 39 28c71 53 148 62 213 26z" horiz-adv-x="1575" />

<glyph glyph-name="mastodon" unicode="&#xf098;" d="M933 522c0 217-143 280-143 280-139 64-509 64-648 0 0 0-142-63-142-280 0-258-15-579 236-646 90-23 168-29 230-25 114 6 177 40 177 40l-3 83c0 0-81-26-172-23-91 3-186 10-200 121-2 10-2 20-2 31 191-47 354-20 398-15 126 15 235 92 249 163 21 111 20 271 20 271z m-168-280h-104v255c0 111-143 115-143-15v-140h-103v140c0 130-143 126-143 15v-255h-104c0 273-12 330 41 391 58 64 178 69 232-14l25-43 26 43c54 83 175 78 232 14 53-61 41-118 41-391z" horiz-adv-x="933" />

<glyph glyph-name="twitter" unicode="&#xf099;" d="M0-37q30-3 60-3 176 0 314 108-82 1-147 50t-89 125q20-4 47-4 35 0 67 9-88 17-145 87t-58 160l0 3q53-30 115-31-52 34-82 90t-31 120q0 68 35 127 94-117 230-186t290-78q-7 33-7 58 0 104 74 178t179 74q109 0 184-80 87 18 160 62-28-91-110-140 73 9 144 40-48-75-125-131l0-33q0-101-29-202t-90-194-145-165-201-115-253-42q-209 0-387 113z" horiz-adv-x="1230" />

<glyph glyph-name="facebook" unicode="&#xf09a;" d="M535 843v-147h-87q-48 0-65-20t-17-60v-106h164l-22-165h-142v-424h-171v424h-142v165h142v122q0 104 58 161t155 57q82 0 127-7z" horiz-adv-x="571.4" />

<glyph glyph-name="github-circled" unicode="&#xf09b;" d="M429 779q116 0 215-58t156-156 57-215q0-140-82-252t-211-155q-15-3-22 4t-7 17q0 1 0 43t0 75q0 54-29 79 32 3 57 10t53 22 45 37 30 58 11 84q0 67-44 115 21 51-4 114-16 5-46-6t-51-25l-21-13q-52 15-107 15t-108-15q-8 6-23 15t-47 22-47 7q-25-63-5-114-44-48-44-115 0-47 12-83t29-59 45-37 52-22 57-10q-21-20-27-58-12-5-25-8t-32-3-36 12-31 35q-11 18-27 29t-28 14l-11 1q-12 0-16-2t-3-7 5-8 7-6l4-3q12-6 24-21t18-29l6-13q7-21 24-34t37-17 39-3 31 1l13 3q0-22 0-50t1-30q0-10-8-17t-22-4q-129 43-211 155t-82 252q0 117 58 215t155 156 216 58z m-267-616q2 4-3 7-6 1-8-1-1-4 4-7 5-3 7 1z m18-19q4 3-1 9-6 5-9 2-4-3 1-9 5-6 9-2z m16-25q6 4 0 11-4 7-9 3-5-3 0-10t9-4z m24-23q4 4-2 10-7 7-11 2-5-5 2-11 6-6 11-1z m32-14q1 6-8 9-8 2-10-4t7-9q8-3 11 4z m35-3q0 7-10 6-9 0-9-6 0-7 10-6 9 0 9 6z m32 5q-1 7-10 5-9-1-8-8t10-4 8 7z" horiz-adv-x="857.1" />

<glyph glyph-name="docs" unicode="&#xf0c5;" d="M946 636q23 0 38-16t16-38v-678q0-23-16-38t-38-16h-535q-23 0-38 16t-16 38v160h-303q-23 0-38 16t-16 38v375q0 22 11 49t27 42l228 228q15 16 42 27t49 11h232q23 0 38-16t16-38v-183q38 23 71 23h232z m-303-119l-167-167h167v167z m-357 214l-167-167h167v167z m109-361l176 176v233h-214v-233q0-22-15-37t-38-16h-233v-357h286v143q0 22 11 49t27 42z m534-449v643h-215v-232q0-22-15-38t-38-15h-232v-358h500z" horiz-adv-x="1000" />

<glyph glyph-name="ellipsis" unicode="&#xf141;" d="M214 439v-107q0-22-15-38t-38-15h-107q-23 0-38 15t-16 38v107q0 23 16 38t38 16h107q22 0 38-16t15-38z m286 0v-107q0-22-16-38t-38-15h-107q-22 0-38 15t-15 38v107q0 23 15 38t38 16h107q23 0 38-16t16-38z m286 0v-107q0-22-16-38t-38-15h-107q-22 0-38 15t-16 38v107q0 23 16 38t38 16h107q23 0 38-16t16-38z" horiz-adv-x="785.7" />

<glyph glyph-name="instagram" unicode="&#xf16d;" d="M571 350q0 59-41 101t-101 42-101-42-42-101 42-101 101-42 101 42 41 101z m77 0q0-91-64-156t-155-64-156 64-64 156 64 156 156 64 155-64 64-156z m61 229q0-21-15-36t-37-15-36 15-15 36 15 36 36 15 37-15 15-36z m-280 123q-4 0-43 0t-59 0-54-2-57-5-40-11q-28-11-49-32t-33-49q-6-16-10-40t-6-58-1-53 0-59 0-43 0-43 0-59 1-53 6-58 10-40q12-28 33-49t49-32q16-6 40-11t57-5 54-2 59 0 43 0 42 0 59 0 54 2 58 5 39 11q28 11 50 32t32 49q6 16 10 40t6 58 1 53 0 59 0 43 0 43 0 59-1 53-6 58-10 40q-11 28-32 49t-50 32q-16 6-39 11t-58 5-54 2-59 0-42 0z m428-352q0-128-3-177-5-116-69-180t-179-69q-50-3-177-3t-177 3q-116 6-180 69t-69 180q-3 49-3 177t3 177q5 116 69 180t180 69q49 3 177 3t177-3q116-6 179-69t69-180q3-49 3-177z" horiz-adv-x="857.1" />

<glyph glyph-name="paypal" unicode="&#xf1ed;" d="M848 490q10-47-3-114-48-248-315-248h-24q-14 0-25-9t-13-24l-3-11-30-193-1-8q-3-15-14-24t-25-9h-140q-12 0-18 8t-5 20q5 32 14 94t15 94 15 93 15 94q3 21 24 21h73q75-2 132 11 98 22 160 81 57 53 87 137 13 39 19 74 1 4 2 4t2 1 3-2q44-33 55-90z m-96 157q0-60-26-132-45-130-168-176-64-22-141-23 0-1-50-1l-51 1q-55 0-65-54-2-4-48-295 0-6-7-6h-164q-12 0-21 9t-6 22l130 821q2 16 15 26t29 11h333q19 0 55-7t62-18q60-23 91-69t32-109z" horiz-adv-x="857.1" />

<glyph glyph-name="whatsapp" unicode="&#xf232;" d="M550 307q7 0 54-25t50-30q1-2 1-8 0-18-9-42-9-22-40-37t-57-15q-32 0-106 35-55 25-95 66t-82 103q-41 60-40 108v5q2 50 41 88 14 12 29 12 4 0 10-1t11-1q11 0 15-3t8-16q5-11 19-49t14-41q0-12-19-33t-20-26q0-3 3-8 19-41 57-76 31-30 84-57 7-4 13-4 8 0 30 27t29 28z m-114-296q71 0 136 28t112 74 75 112 28 136-28 136-75 112-112 75-136 28-135-28-112-75-75-112-28-136q0-113 67-205l-44-130 135 43q88-58 192-58z m0 771q86 0 164-34t134-89 90-135 33-163-33-163-90-134-134-90-164-34q-108 0-203 53l-233-75 76 226q-60 99-60 217 0 86 33 163t90 135 134 89 163 34z" horiz-adv-x="857.1" />

<glyph glyph-name="credit-card-alt" unicode="&#xf283;" d="M0 11v339h1286v-339q0-37-26-63t-64-27h-1107q-36 0-63 27t-26 63z m357 125v-72h214v72h-214z m-214 0v-72h143v72h-143z m1053 643q37 0 64-27t26-63v-125h-1286v125q0 37 26 63t63 27h1107z" horiz-adv-x="1285.7" />

<glyph glyph-name="chat" unicode="&#xf284;" d="M786 421q0-77-53-143t-143-104-197-38q-48 0-98 9-70-49-155-72-21-5-48-9h-2q-6 0-12 5t-6 12q-1 1-1 3t1 4 1 3l1 3t2 3 2 3 3 3 2 2q3 3 13 14t15 16 12 17 14 21 11 25q-69 40-108 98t-40 125q0 78 53 144t143 104 197 38 197-38 143-104 53-144z m214-142q0-67-40-126t-108-98q5-14 11-25t14-21 13-16 14-17 13-14q0 0 2-2t3-3 2-3 2-3l1-3t1-3 1-4-1-3q-2-8-7-13t-12-4q-28 4-48 9-86 23-156 72-50-9-98-9-151 0-263 74 32-3 49-3 90 0 172 25t148 72q69 52 107 119t37 141q0 43-13 85 72-39 114-99t42-128z" horiz-adv-x="1000" />

<glyph glyph-name="mail" unicode="&#xf285;" d="M929 11v428q-18-20-39-36-149-115-238-189-28-24-46-37t-48-28-57-13h-2q-26 0-57 13t-48 28-46 37q-88 74-238 189-21 16-39 36v-428q0-7 6-13t12-5h822q7 0 12 5t6 13z m0 586v14t-1 7-1 7-3 5-5 4-8 2h-822q-7 0-12-6t-6-12q0-94 83-159 107-84 223-176 4-3 20-17t25-21 25-17 28-16 24-5h2q11 0 24 5t28 16 25 17 25 21 20 17q116 92 224 176 30 24 56 65t26 73z m71 21v-607q0-37-26-63t-63-27h-822q-36 0-63 27t-26 63v607q0 37 26 63t63 26h822q37 0 63-26t26-63z" horiz-adv-x="1000" />

<glyph glyph-name="telegram" unicode="&#xf286;" d="M664 121l82 386q5 25-6 36t-29 3l-482-185q-16-6-22-14t-2-15 18-11l124-38 286 180q12 8 18 3 4-3-3-8l-231-210-9-127q13 0 25 13l60 58 125-93q36-20 46 22z m336 229q0-102-40-194t-106-160-160-106-194-40-194 40-160 106-106 160-40 194 40 194 106 160 160 106 194 40 194-40 160-106 106-160 40-194z" horiz-adv-x="1000" />
</font>
</defs>
</svg>
