<?xml version="1.0" encoding="UTF-8" standalone="no"?>
<!DOCTYPE svg PUBLIC "-//W3C//DTD SVG 1.1//EN" "http://www.w3.org/Graphics/SVG/1.1/DTD/svg11.dtd">
<svg width="100%" height="100%" viewBox="0 0 500 500" version="1.1" xmlns="http://www.w3.org/2000/svg" xmlns:xlink="http://www.w3.org/1999/xlink" xml:space="preserve" xmlns:serif="http://www.serif.com/" style="fill-rule:evenodd;clip-rule:evenodd;stroke-linejoin:round;stroke-miterlimit:2;">
    <g transform="matrix(1.1163,0,0,1.1163,-50.2241,-55.3977)">
        <circle cx="269.481" cy="273.385" r="220.162" style="fill:white;"/>
    </g>
    <g transform="matrix(0.247482,0,0,0.247482,101.789,101.207)">
        <g>
            <path d="M900,96.75C775.5,96.75 674.25,198 674.25,322.5C674.25,447 775.5,548.62 900,548.62C1024.5,548.62 1125.75,447.37 1125.75,322.5C1125.75,197.63 1024.5,96.75 900,96.75ZM1020,336.37L913.88,336.37L913.88,442.49C913.88,450.365 907.505,456.74 899.63,456.74C891.755,456.74 885.38,450.365 885.38,442.49L885.38,336.37L780,336.37C772.125,336.37 765.75,329.995 765.75,322.12C765.75,314.245 772.125,307.87 780,307.87L886.12,307.87L886.12,202.49C886.12,194.615 892.495,188.24 900.37,188.24C908.245,188.24 914.62,194.615 914.62,202.49L914.62,308.61L1020.74,308.61C1028.62,308.61 1034.99,314.985 1034.99,322.86C1034.99,330.735 1027.87,336.36 1019.99,336.36L1020,336.37Z" style="fill:url(#_Linear1);fill-rule:nonzero;"/>
            <path d="M900,651.75C775.5,651.75 674.25,753 674.25,877.5C674.25,1002 775.5,1103.62 900,1103.62C1024.5,1103.62 1125.75,1002.37 1125.75,877.5C1125.75,752.63 1024.5,651.75 900,651.75ZM1020,951.75L780,951.75C772.125,951.75 765.75,945.375 765.75,937.5C765.75,929.625 772.125,923.25 780,923.25L1020,923.25C1027.88,923.25 1034.25,929.625 1034.25,937.5C1034.25,945.375 1027.88,951.75 1020,951.75ZM1020,831.37L780,831.37C772.125,831.37 765.75,824.995 765.75,817.12C765.75,809.245 772.125,802.87 780,802.87L1020,802.87C1027.88,802.87 1034.25,809.245 1034.25,817.12C1034.25,824.995 1027.88,831.37 1020,831.37Z" style="fill:url(#_Linear2);fill-rule:nonzero;"/>
            <path d="M300,1103.2C424.5,1103.2 525.75,1001.95 525.75,877.08C525.75,752.21 424.5,651.33 300,651.33C175.5,651.33 74.25,752.58 74.25,877.08C74.25,1001.58 175.5,1103.2 300,1103.2ZM169.88,767.58C164.255,761.955 164.255,753.33 169.88,747.705C175.505,742.455 184.13,742.08 189.755,747.705L300.005,857.585L410.255,747.705C415.88,742.08 424.505,742.08 430.13,747.705C435.755,753.33 435.755,761.955 430.13,767.58L319.88,877.46L429.76,987.34C435.385,992.965 435.385,1001.59 429.76,1007.22C427.135,1009.84 423.385,1011.34 419.635,1011.34C415.885,1011.34 412.51,1009.84 409.51,1007.22L300.01,897.335L189.76,1007.22C187.135,1009.84 183.385,1011.34 179.635,1011.34C175.885,1011.34 172.51,1009.84 169.51,1007.22C163.885,1001.59 163.885,992.965 169.51,987.34L279.39,877.46L169.88,767.58Z" style="fill:url(#_Linear3);fill-rule:nonzero;"/>
            <path d="M300,548.62C424.5,548.62 525.75,447.37 525.75,322.5C525.75,197.63 424.5,96.75 300,96.75C175.5,96.75 74.25,198 74.25,322.5C74.25,447 175.5,548.62 300,548.62ZM180,308.24L420,308.24C427.875,308.24 434.25,314.615 434.25,322.49C434.25,330.365 427.875,336.74 420,336.74L180,336.74C172.125,336.74 165.75,330.365 165.75,322.49C165.75,314.615 172.125,308.24 180,308.24Z" style="fill:url(#_Linear4);fill-rule:nonzero;"/>
        </g>
    </g>
    <defs>
        <linearGradient id="_Linear1" x1="0" y1="0" x2="1" y2="0" gradientUnits="userSpaceOnUse" gradientTransform="matrix(-11.963,884.783,-884.783,-11.963,333.659,197.226)"><stop offset="0" style="stop-color:rgb(74,255,255);stop-opacity:1"/><stop offset="1" style="stop-color:rgb(166,166,255);stop-opacity:1"/></linearGradient>
        <linearGradient id="_Linear2" x1="0" y1="0" x2="1" y2="0" gradientUnits="userSpaceOnUse" gradientTransform="matrix(-11.963,884.783,-884.783,-11.963,333.659,197.226)"><stop offset="0" style="stop-color:rgb(74,255,255);stop-opacity:1"/><stop offset="1" style="stop-color:rgb(166,166,255);stop-opacity:1"/></linearGradient>
        <linearGradient id="_Linear3" x1="0" y1="0" x2="1" y2="0" gradientUnits="userSpaceOnUse" gradientTransform="matrix(-11.963,884.783,-884.783,-11.963,333.659,197.226)"><stop offset="0" style="stop-color:rgb(74,255,255);stop-opacity:1"/><stop offset="1" style="stop-color:rgb(166,166,255);stop-opacity:1"/></linearGradient>
        <linearGradient id="_Linear4" x1="0" y1="0" x2="1" y2="0" gradientUnits="userSpaceOnUse" gradientTransform="matrix(-11.963,884.783,-884.783,-11.963,333.659,197.226)"><stop offset="0" style="stop-color:rgb(74,255,255);stop-opacity:1"/><stop offset="1" style="stop-color:rgb(166,166,255);stop-opacity:1"/></linearGradient>
    </defs>
</svg>
