<?xml version="1.0" encoding="UTF-8" standalone="no"?>
<!DOCTYPE svg PUBLIC "-//W3C//DTD SVG 1.1//EN" "http://www.w3.org/Graphics/SVG/1.1/DTD/svg11.dtd">
<svg width="100%" height="100%" viewBox="0 0 687 262" version="1.1" xmlns="http://www.w3.org/2000/svg" xmlns:xlink="http://www.w3.org/1999/xlink" xml:space="preserve" xmlns:serif="http://www.serif.com/" style="fill-rule:evenodd;clip-rule:evenodd;stroke-linejoin:round;stroke-miterlimit:2;">
    <g transform="matrix(1,0,0,1,-40.8642,-18.5029)">
        <g transform="matrix(96,0,0,96,287.161,126.786)">
            <path d="M0.361,-0.401L0.644,-0.401L0.644,-0.031C0.598,-0.016 0.555,-0.005 0.514,0.001C0.474,0.007 0.432,0.01 0.39,0.01C0.282,0.01 0.2,-0.022 0.143,-0.085C0.087,-0.149 0.058,-0.239 0.058,-0.358C0.058,-0.473 0.091,-0.563 0.157,-0.627C0.223,-0.692 0.314,-0.724 0.431,-0.724C0.504,-0.724 0.575,-0.709 0.643,-0.68L0.593,-0.559C0.541,-0.585 0.486,-0.598 0.43,-0.598C0.365,-0.598 0.312,-0.576 0.273,-0.532C0.234,-0.488 0.214,-0.429 0.214,-0.355C0.214,-0.278 0.23,-0.218 0.261,-0.177C0.293,-0.137 0.339,-0.116 0.4,-0.116C0.431,-0.116 0.464,-0.119 0.496,-0.126L0.496,-0.275L0.361,-0.275L0.361,-0.401Z" style="fill:white;fill-rule:nonzero;"/>
        </g>
        <g transform="matrix(96,0,0,96,356.676,126.786)">
            <path d="M0.241,-0.397L0.29,-0.397C0.338,-0.397 0.373,-0.405 0.396,-0.421C0.419,-0.437 0.43,-0.462 0.43,-0.496C0.43,-0.53 0.419,-0.554 0.395,-0.568C0.372,-0.583 0.336,-0.59 0.287,-0.59L0.241,-0.59L0.241,-0.397ZM0.241,-0.274L0.241,-0L0.09,-0L0.09,-0.714L0.298,-0.714C0.395,-0.714 0.467,-0.696 0.513,-0.661C0.56,-0.626 0.583,-0.572 0.583,-0.5C0.583,-0.458 0.571,-0.421 0.548,-0.388C0.525,-0.355 0.493,-0.33 0.45,-0.311C0.558,-0.151 0.628,-0.047 0.66,-0L0.492,-0L0.322,-0.274L0.241,-0.274Z" style="fill:white;fill-rule:nonzero;"/>
        </g>
        <g transform="matrix(96,0,0,96,420.051,126.786)">
            <path d="M0.501,-0L0.09,-0L0.09,-0.714L0.501,-0.714L0.501,-0.59L0.241,-0.59L0.241,-0.433L0.483,-0.433L0.483,-0.309L0.241,-0.309L0.241,-0.125L0.501,-0.125L0.501,-0Z" style="fill:white;fill-rule:nonzero;"/>
        </g>
        <g transform="matrix(96,0,0,96,473.817,126.786)">
            <path d="M0.501,-0L0.09,-0L0.09,-0.714L0.501,-0.714L0.501,-0.59L0.241,-0.59L0.241,-0.433L0.483,-0.433L0.483,-0.309L0.241,-0.309L0.241,-0.125L0.501,-0.125L0.501,-0Z" style="fill:white;fill-rule:nonzero;"/>
        </g>
        <g transform="matrix(96,0,0,96,527.583,126.786)">
            <path d="M0.723,-0L0.531,-0L0.22,-0.54L0.216,-0.54C0.222,-0.445 0.225,-0.377 0.225,-0.336L0.225,-0L0.09,-0L0.09,-0.714L0.281,-0.714L0.591,-0.179L0.594,-0.179C0.589,-0.272 0.587,-0.338 0.587,-0.376L0.587,-0.714L0.723,-0.714L0.723,-0Z" style="fill:white;fill-rule:nonzero;"/>
        </g>
        <g transform="matrix(96,0,0,96,287.161,222.786)">
            <path d="M0.675,-0L0.524,-0L0.524,-0.308L0.241,-0.308L0.241,-0L0.09,-0L0.09,-0.714L0.241,-0.714L0.241,-0.434L0.524,-0.434L0.524,-0.714L0.675,-0.714L0.675,-0Z" style="fill:white;fill-rule:nonzero;"/>
        </g>
        <g transform="matrix(96,0,0,96,360.614,222.786)">
            <path d="M0.738,-0.358C0.738,-0.24 0.708,-0.149 0.65,-0.085C0.591,-0.022 0.507,0.01 0.398,0.01C0.289,0.01 0.205,-0.022 0.146,-0.085C0.087,-0.149 0.058,-0.24 0.058,-0.359C0.058,-0.478 0.087,-0.568 0.146,-0.631C0.205,-0.694 0.289,-0.725 0.399,-0.725C0.509,-0.725 0.593,-0.694 0.651,-0.63C0.709,-0.567 0.738,-0.476 0.738,-0.358ZM0.217,-0.358C0.217,-0.278 0.232,-0.218 0.262,-0.178C0.292,-0.137 0.338,-0.117 0.398,-0.117C0.519,-0.117 0.579,-0.197 0.579,-0.358C0.579,-0.519 0.519,-0.599 0.399,-0.599C0.339,-0.599 0.293,-0.579 0.263,-0.538C0.232,-0.498 0.217,-0.438 0.217,-0.358Z" style="fill:white;fill-rule:nonzero;"/>
        </g>
        <g transform="matrix(96,0,0,96,437.02,222.786)">
            <path d="M0.511,-0.198C0.511,-0.134 0.488,-0.083 0.442,-0.046C0.395,-0.009 0.331,0.01 0.248,0.01C0.172,0.01 0.104,-0.005 0.046,-0.033L0.046,-0.174C0.094,-0.152 0.135,-0.137 0.168,-0.128C0.202,-0.12 0.232,-0.115 0.26,-0.115C0.293,-0.115 0.318,-0.122 0.336,-0.134C0.354,-0.147 0.363,-0.166 0.363,-0.191C0.363,-0.205 0.359,-0.217 0.351,-0.228C0.343,-0.239 0.332,-0.25 0.317,-0.26C0.302,-0.27 0.271,-0.286 0.224,-0.308C0.181,-0.329 0.148,-0.348 0.126,-0.367C0.104,-0.386 0.087,-0.408 0.074,-0.433C0.061,-0.458 0.054,-0.487 0.054,-0.521C0.054,-0.584 0.076,-0.634 0.118,-0.67C0.161,-0.706 0.22,-0.724 0.296,-0.724C0.333,-0.724 0.368,-0.72 0.402,-0.711C0.436,-0.702 0.471,-0.69 0.508,-0.674L0.459,-0.556C0.421,-0.572 0.389,-0.583 0.365,-0.589C0.34,-0.595 0.315,-0.598 0.291,-0.598C0.262,-0.598 0.24,-0.591 0.225,-0.578C0.21,-0.565 0.202,-0.547 0.202,-0.526C0.202,-0.513 0.205,-0.501 0.211,-0.491C0.218,-0.481 0.227,-0.471 0.241,-0.462C0.254,-0.453 0.286,-0.436 0.337,-0.412C0.404,-0.38 0.449,-0.348 0.474,-0.316C0.499,-0.284 0.511,-0.245 0.511,-0.198Z" style="fill:white;fill-rule:nonzero;"/>
        </g>
        <g transform="matrix(96,0,0,96,489.895,222.786)">
            <path d="M0.365,-0L0.214,-0L0.214,-0.588L0.02,-0.588L0.02,-0.714L0.559,-0.714L0.559,-0.588L0.365,-0.588L0.365,-0Z" style="fill:white;fill-rule:nonzero;"/>
        </g>
        <g transform="matrix(96,0,0,96,545.489,222.786)">
            <path d="M0.501,-0L0.09,-0L0.09,-0.714L0.501,-0.714L0.501,-0.59L0.241,-0.59L0.241,-0.433L0.483,-0.433L0.483,-0.309L0.241,-0.309L0.241,-0.125L0.501,-0.125L0.501,-0Z" style="fill:white;fill-rule:nonzero;"/>
        </g>
        <g transform="matrix(96,0,0,96,599.254,222.786)">
            <path d="M0.682,-0.364C0.682,-0.246 0.649,-0.156 0.582,-0.094C0.515,-0.031 0.418,-0 0.292,-0L0.09,-0L0.09,-0.714L0.314,-0.714C0.431,-0.714 0.521,-0.683 0.585,-0.622C0.65,-0.56 0.682,-0.474 0.682,-0.364ZM0.525,-0.36C0.525,-0.513 0.457,-0.59 0.322,-0.59L0.241,-0.59L0.241,-0.125L0.306,-0.125C0.452,-0.125 0.525,-0.203 0.525,-0.36Z" style="fill:white;fill-rule:nonzero;"/>
        </g>
        <g transform="matrix(96,0,0,96,666.473,222.786)">
            <path d="M0.057,-0.07C0.057,-0.097 0.064,-0.118 0.079,-0.132C0.094,-0.146 0.115,-0.153 0.143,-0.153C0.17,-0.153 0.191,-0.146 0.206,-0.131C0.221,-0.117 0.228,-0.097 0.228,-0.07C0.228,-0.044 0.221,-0.024 0.206,-0.009C0.191,0.006 0.17,0.013 0.143,0.013C0.116,0.013 0.095,0.006 0.08,-0.009C0.065,-0.023 0.057,-0.043 0.057,-0.07Z" style="fill:white;fill-rule:nonzero;"/>
        </g>
    </g>
    <g transform="matrix(0.538985,0,0,0.538985,114.887,132.096)">
        <g transform="matrix(1,0,0,1,-256,-256)">
            <path d="M389.053,126.3C362.602,81.484 325.043,44.232 280.012,18.15L272,13.516L263.988,18.15C170.885,71.881 113.357,171.547 113.4,279.042C113.4,282.487 113.46,285.986 113.577,289.442C115.169,336.298 133.088,375.725 165.397,403.46C190.121,424.685 221.835,437.642 256.004,440.733L256.004,496L288.004,496L288.004,240L256,240L256,408.528C201.936,402.265 148.127,364.073 145.556,288.354C145.45,285.259 145.396,282.126 145.396,279.042C145.589,186.33 193.472,99.958 272,50.673C350.526,99.959 398.408,186.331 398.6,279.042C398.6,282.126 398.546,285.259 398.44,288.355C396.384,348.928 361.533,385.482 319.996,400.891L319.996,434.758C341.55,428.649 361.539,417.973 378.603,403.458C410.912,375.723 428.831,336.296 430.423,289.441C430.54,285.985 430.6,282.486 430.6,279.041C430.629,225.336 416.281,172.59 389.053,126.3Z" style="fill:white;fill-rule:nonzero;"/>
        </g>
    </g>
    <g transform="matrix(0.00197443,0.999998,-8.28243,0.0163531,1524.92,132.414)">
        <rect x="84.833" y="123.543" width="17.209" height="29.869" style="fill:white;"/>
    </g>
</svg>
