<?xml version="1.0" encoding="UTF-8" standalone="no"?>
<!DOCTYPE svg PUBLIC "-//W3C//DTD SVG 1.1//EN" "http://www.w3.org/Graphics/SVG/1.1/DTD/svg11.dtd">
<svg width="100%" height="100%" viewBox="0 0 500 500" version="1.1" xmlns="http://www.w3.org/2000/svg" xmlns:xlink="http://www.w3.org/1999/xlink" xml:space="preserve" xmlns:serif="http://www.serif.com/" style="fill-rule:evenodd;clip-rule:evenodd;stroke-linejoin:round;stroke-miterlimit:2;">
    <g transform="matrix(1.1163,0,0,1.1163,-50.2241,-55.3977)">
        <circle cx="269.481" cy="273.385" r="220.162" style="fill:white;"/>
    </g>
    <g transform="matrix(0.982825,0,0,0.982825,24.4876,53.1935)">
        <path d="M233.167,260.989C221.403,260.989 211.229,258.726 202.644,254.201C194.059,249.676 187.454,243.087 182.827,234.434C178.201,225.782 175.888,215.334 175.888,203.093L175.888,185.693C175.888,173.132 178.227,162.56 182.906,153.978C187.586,145.396 194.227,138.878 202.829,134.424C211.432,129.97 221.545,127.743 233.167,127.743C243.933,127.743 253.306,129.701 261.286,133.618C269.265,137.534 275.498,143.087 279.986,150.276C284.473,157.465 286.832,166.071 287.063,176.093L254.833,176.093C254.067,168.562 251.759,163.098 247.911,159.699C244.062,156.3 239.182,154.601 233.271,154.601C226.06,154.601 220.352,156.724 216.146,160.97C211.94,165.216 209.838,171.505 209.838,179.839L209.838,208.893C209.838,214.704 210.842,219.466 212.85,223.178C214.858,226.891 217.623,229.631 221.144,231.399C224.665,233.167 228.707,234.051 233.271,234.051C239.199,234.051 244.086,232.33 247.933,228.887C251.781,225.443 254.081,220.028 254.833,212.639L287.063,212.639C286.832,222.553 284.47,231.135 279.975,238.387C275.481,245.638 269.243,251.218 261.263,255.126C253.282,259.034 243.917,260.989 233.167,260.989ZM231.342,299.605C217.114,299.605 204.132,297.386 192.396,292.947C180.66,288.508 170.589,282.163 162.183,273.912C153.778,265.66 147.272,255.807 142.667,244.353C138.061,232.899 135.758,220.184 135.758,206.209L135.758,182.659C135.758,168.493 138.086,155.682 142.74,144.228C147.394,132.774 153.952,122.944 162.415,114.739C170.877,106.533 180.958,100.235 192.658,95.845C204.358,91.455 217.253,89.259 231.342,89.259C245.606,89.259 258.593,91.479 270.304,95.918C282.015,100.357 292.074,106.702 300.479,114.953C308.885,123.205 315.39,133.044 319.996,144.472C324.602,155.9 326.904,168.629 326.904,182.659L326.904,206.209C326.904,220.373 324.577,233.182 319.921,244.637C315.265,256.091 308.707,265.921 300.246,274.126C291.785,282.332 281.713,288.63 270.031,293.02C258.349,297.41 245.453,299.605 231.342,299.605ZM231.342,281.847C246.808,281.847 260.277,278.682 271.748,272.351C283.219,266.021 292.111,257.193 298.425,245.868C304.739,234.543 307.896,221.323 307.896,206.209L307.896,182.659C307.896,171.068 306.053,160.623 302.367,151.326C298.681,142.029 293.434,134.08 286.627,127.48C279.82,120.88 271.741,115.82 262.39,112.299C253.038,108.778 242.689,107.018 231.342,107.018C215.892,107.018 202.437,110.161 190.977,116.447C179.517,122.733 170.617,131.561 164.277,142.93C157.937,154.3 154.767,167.543 154.767,182.659L154.767,206.209C154.767,217.709 156.619,228.13 160.323,237.472C164.027,246.814 169.286,254.784 176.1,261.384C182.914,267.984 191.001,273.045 200.361,276.566C209.72,280.087 220.047,281.847 231.342,281.847Z" style="fill:url(#_Linear1);fill-rule:nonzero;"/>
    </g>
    <defs>
        <linearGradient id="_Linear1" x1="0" y1="0" x2="1" y2="0" gradientUnits="userSpaceOnUse" gradientTransform="matrix(244.369,259.448,-259.448,244.369,125.005,78.113)"><stop offset="0" style="stop-color:rgb(161,255,255);stop-opacity:1"/><stop offset="1" style="stop-color:rgb(51,111,179);stop-opacity:1"/></linearGradient>
    </defs>
</svg>
