<?xml version="1.0" encoding="UTF-8" standalone="no"?>
<!DOCTYPE svg PUBLIC "-//W3C//DTD SVG 1.1//EN" "http://www.w3.org/Graphics/SVG/1.1/DTD/svg11.dtd">
<svg width="100%" height="100%" viewBox="0 0 500 500" version="1.1" xmlns="http://www.w3.org/2000/svg" xmlns:xlink="http://www.w3.org/1999/xlink" xml:space="preserve" xmlns:serif="http://www.serif.com/" style="fill-rule:evenodd;clip-rule:evenodd;stroke-linejoin:round;stroke-miterlimit:2;">
    <g transform="matrix(1.1163,0,0,1.1163,-50.2241,-55.3977)">
        <circle cx="269.481" cy="273.385" r="220.162" style="fill:white;"/>
    </g>
    <g transform="matrix(0.581463,0,0,0.581463,98.6887,97.1411)">
        <path d="M509.028,143.715C509.028,73.03 451.641,15.643 380.956,15.643L141.638,15.643C70.953,15.643 13.566,73.03 13.566,143.715L13.566,383.033C13.566,453.718 70.953,511.105 141.638,511.105L380.956,511.105C451.641,511.105 509.028,453.718 509.028,383.033L509.028,143.715Z" style="fill:url(#_Linear1);"/>
    </g>
    <g transform="matrix(2.3876,0,0,2.3876,129.523,132.467)">
        <path d="M13.511,18.965C13.157,19.439 13.083,19.947 13.398,20.5C13.398,20.589 39.771,73.173 46.545,86.721C47.541,88.714 48.64,89.234 48.653,89.237C49.603,89.48 50.047,89.385 50.703,87.419C53.248,79.789 61.123,59.378 65.711,50.394C67.91,51.195 70.012,51.496 72.012,51.496C76.813,51.496 80.91,49.394 84.012,45.296C88.41,39.398 87.91,31.898 87.512,25.796C87.313,22.296 87.113,18.898 88.113,17.597C88.313,17.297 88.414,16.898 88.414,16.597C88.414,16.097 88.215,15.496 87.715,15.199C86.914,14.597 85.817,14.8 85.317,15.597C84.317,16.898 81.117,17.699 77.617,18.496C71.719,19.894 64.418,21.695 60.015,27.597C55.117,34.199 56.015,41.995 62.414,48.898L62.515,49C59.715,54.199 57.215,59.5 54.816,64.898C43.827,41.723 31.883,21.473 31.214,18.898C31.067,18.333 30.316,18.097 29.714,18.097L15.198,18.101L15.097,18.101C15.097,18.101 14.594,18.062 14.21,18.266C13.826,18.47 13.561,18.916 13.511,18.965ZM63,29.801C66.602,24.903 73,23.403 78.602,22.102C80.602,21.602 82.5,21.204 84.102,20.602C84,22.301 84.102,24.204 84.301,26.301C84.7,32.102 85.102,38.602 81.403,43.5C77.301,49 71.801,48.801 67.704,47.602C70.602,42.301 73.805,37.204 77.305,32C77.805,31.199 77.606,30.101 76.805,29.601C76.005,29.101 74.907,29.301 74.407,30.101C70.805,35.402 67.606,40.703 64.606,46.101C61.501,42.5 58.102,36.398 63.001,29.8L63,29.801ZM53,69.5C53,69.602 53.102,69.602 53.102,69.699C51.5,73.801 49.902,77.899 48.5,82.097C37.162,58.918 28.592,41.385 18.301,21.699L29,21.699C30.677,26.614 42.406,46.91 53,69.5L53,69.5Z" style="fill:white;fill-rule:nonzero;"/>
    </g>
    <defs>
        <linearGradient id="_Linear1" x1="0" y1="0" x2="1" y2="0" gradientUnits="userSpaceOnUse" gradientTransform="matrix(196.05,495.276,-495.276,196.05,109.671,33.3378)"><stop offset="0" style="stop-color:rgb(0,185,255);stop-opacity:1"/><stop offset="1" style="stop-color:rgb(154,255,202);stop-opacity:1"/></linearGradient>
    </defs>
</svg>
