<svg xmlns="http://www.w3.org/2000/svg" width="170.667" height="170.667" preserveAspectRatio="xMidYMid meet" version="1.0" viewBox="0 0 128 128"><metadata>Created by potrace 1.14, written by Peter Selinger 2001-2017</metadata><g fill="#000" stroke="none"><path d="M222 1225 c-134 -42 -234 -201 -218 -349 12 -114 37 -152 356 -533 14 -17 72 -87 130 -156 112 -134 140 -158 168 -141 15 9 98 103 242 274 371 440 375 445 374 585 0 79 -3 97 -28 148 -79 156 -241 224 -398 167 -60 -22 -164 -89 -181 -117 -11 -19 -30 -16 -55 7 -48 45 -139 101 -186 115 -60 18 -146 18 -204 0z m173 -75 c53 -17 117 -62 187 -130 l58 -56 69 66 c156 149 289 174 400 74 106 -95 118 -252 30 -380 -16 -23 -35 -48 -42 -56 -7 -7 -55 -65 -107 -128 -52 -63 -100 -121 -107 -127 -6 -7 -62 -74 -124 -148 -61 -74 -115 -135 -119 -135 -4 0 -81 89 -171 198 -90 108 -174 208 -186 222 -151 176 -189 239 -199 331 -9 93 33 190 104 240 68 47 128 55 207 29z" transform="translate(0.000000,128.000000) scale(0.100000,-0.100000)"/><path d="M422 908 c-7 -7 -12 -23 -12 -37 0 -32 148 -426 171 -454 21 -27 90 -30 115 -6 19 20 174 432 174 465 0 40 -64 60 -91 28 -8 -9 -41 -101 -75 -203 -71 -216 -57 -219 -136 28 -29 90 -58 170 -66 177 -17 17 -64 18 -80 2z" transform="translate(0.000000,128.000000) scale(0.100000,-0.100000)"/></g></svg>