<?xml version="1.0" encoding="UTF-8" standalone="no"?>
<!DOCTYPE svg PUBLIC "-//W3C//DTD SVG 1.1//EN" "http://www.w3.org/Graphics/SVG/1.1/DTD/svg11.dtd">
<svg width="100%" height="100%" viewBox="0 0 1242 500" version="1.1" xmlns="http://www.w3.org/2000/svg" xmlns:xlink="http://www.w3.org/1999/xlink" xml:space="preserve" xmlns:serif="http://www.serif.com/" style="fill-rule:evenodd;clip-rule:evenodd;stroke-linejoin:round;stroke-miterlimit:2;">
    <g id="ArtBoard1" transform="matrix(1,0,0,1,-356.559,-99.2353)">
        <rect x="356.559" y="99.235" width="1241.6" height="499.813" style="fill:none;"/>
        <g transform="matrix(1,0,0,1,0.558726,0.235316)">
            <g transform="matrix(3.16084,0,0,4.16667,289.21,0)">
                <path d="M393.933,138.968L40.307,138.94C32.575,138.94 27.635,134.523 27.635,126.791L27.462,42.476C27.462,34.744 34.059,30.307 41.791,30.307L394.774,30.447C402.506,30.447 407.69,34.744 407.69,42.476L407.69,126.825C407.69,134.557 401.665,138.968 393.933,138.968Z" style="fill:rgb(3,4,4);fill-rule:nonzero;"/>
            </g>
            <g transform="matrix(3.20031,0,0,4.16667,280.185,0)">
                <path d="M393.632,28.418L42.175,28.418C34.443,28.418 28.116,34.744 28.116,42.476L28.116,126.826C28.116,134.558 34.443,140.884 42.175,140.884L393.632,140.884C401.364,140.884 407.69,134.558 407.69,126.826L407.69,42.476C407.69,34.744 401.364,28.418 393.632,28.418ZM393.632,30.667C400.143,30.667 405.44,35.965 405.44,42.476L405.44,126.826C405.44,133.337 400.143,138.635 393.632,138.635L42.175,138.635C35.663,138.635 30.366,133.337 30.366,126.826L30.366,42.476C30.366,35.965 35.663,30.667 42.175,30.667L393.632,30.667Z" style="fill:rgb(166,166,166);fill-rule:nonzero;"/>
            </g>
            <g id="Icon" transform="matrix(3.36385,0,0,3.36385,-935.602,-699.351)">
                <g transform="matrix(1,0,0,1,399.934,253.297)">
                    <path d="M93.81,80.16L70.07,99.38C64.22,104.118 55.78,104.118 49.93,99.38L26.19,80.16C24.313,78.642 23.221,76.354 23.221,73.94C23.221,71.526 24.313,69.238 26.19,67.72L49.93,48.49C55.78,43.752 64.22,43.752 70.07,48.49L93.81,67.72C95.687,69.238 96.779,71.526 96.779,73.94C96.779,76.354 95.687,78.642 93.81,80.16Z" style="fill:url(#_Radial1);fill-rule:nonzero;"/>
                </g>
                <g transform="matrix(1,0,0,1,399.934,253.297)">
                    <path d="M26.19,67.72L49.93,48.49C55.78,43.752 64.22,43.752 70.07,48.49L93.81,67.72C95.687,69.238 96.779,71.526 96.779,73.94C96.779,76.354 95.687,78.642 93.81,80.16L70.07,99.38C64.22,104.118 55.78,104.118 49.93,99.38L26.19,80.16C24.313,78.642 23.221,76.354 23.221,73.94C23.221,71.526 24.313,69.238 26.19,67.72Z" style="fill:url(#_Radial2);fill-rule:nonzero;"/>
                </g>
                <g transform="matrix(1,0,0,1,399.934,253.297)">
                    <path d="M26.19,38.72L49.93,19.49C55.78,14.752 64.22,14.752 70.07,19.49L93.81,38.72C95.687,40.238 96.779,42.526 96.779,44.94C96.779,47.354 95.687,49.642 93.81,51.16L70.07,70.38C64.22,75.118 55.78,75.118 49.93,70.38L26.19,51.16C24.313,49.642 23.221,47.354 23.221,44.94C23.221,42.526 24.313,40.238 26.19,38.72Z" style="fill:url(#_Radial3);fill-rule:nonzero;"/>
                </g>
                <g transform="matrix(1,0,0,1,399.934,253.297)">
                    <path d="M93.81,51.16L70.07,70.38C64.22,75.118 55.78,75.118 49.93,70.38L26.19,51.16C24.313,49.642 23.221,47.354 23.221,44.94C23.221,42.526 24.313,40.238 26.19,38.72L49.93,19.49C55.78,14.752 64.22,14.752 70.07,19.49L93.81,38.72C95.687,40.238 96.779,42.526 96.779,44.94C96.779,47.354 95.687,49.642 93.81,51.16Z" style="fill:url(#_Radial4);fill-rule:nonzero;"/>
                </g>
            </g>
            <g transform="matrix(1,0,0,1,51.6242,42.8935)">
                <g transform="matrix(72,0,0,72,789.336,262.374)">
                    <path d="M0.343,-0.06C0.378,-0.06 0.408,-0.067 0.435,-0.082C0.462,-0.097 0.484,-0.117 0.503,-0.143C0.521,-0.168 0.535,-0.198 0.545,-0.232C0.554,-0.266 0.559,-0.302 0.559,-0.34C0.559,-0.373 0.555,-0.406 0.546,-0.439C0.537,-0.472 0.524,-0.501 0.506,-0.527C0.488,-0.553 0.466,-0.574 0.439,-0.59C0.412,-0.606 0.38,-0.614 0.344,-0.614C0.308,-0.614 0.276,-0.606 0.249,-0.591C0.222,-0.575 0.199,-0.554 0.181,-0.528C0.163,-0.502 0.15,-0.472 0.141,-0.439C0.132,-0.405 0.127,-0.37 0.127,-0.333C0.127,-0.298 0.132,-0.264 0.142,-0.231C0.151,-0.198 0.165,-0.168 0.184,-0.143C0.202,-0.118 0.224,-0.097 0.251,-0.083C0.278,-0.068 0.308,-0.06 0.342,-0.06L0.343,-0.06ZM0.339,0.011C0.294,0.011 0.253,0.003 0.216,-0.014C0.179,-0.03 0.147,-0.053 0.12,-0.083C0.093,-0.113 0.073,-0.149 0.058,-0.191C0.043,-0.233 0.036,-0.28 0.036,-0.331C0.036,-0.384 0.044,-0.433 0.06,-0.477C0.075,-0.52 0.097,-0.558 0.125,-0.589C0.152,-0.62 0.185,-0.643 0.223,-0.66C0.261,-0.677 0.303,-0.685 0.348,-0.685C0.394,-0.685 0.436,-0.677 0.474,-0.66C0.511,-0.643 0.543,-0.62 0.57,-0.59C0.596,-0.559 0.616,-0.523 0.631,-0.482C0.645,-0.44 0.652,-0.394 0.652,-0.344C0.652,-0.286 0.644,-0.235 0.628,-0.191C0.611,-0.147 0.589,-0.11 0.561,-0.08C0.532,-0.05 0.499,-0.027 0.461,-0.012C0.423,0.003 0.383,0.011 0.34,0.011L0.339,0.011Z" style="fill:white;fill-rule:nonzero;"/>
                </g>
                <g transform="matrix(72,0,0,72,838.944,262.374)">
                    <path d="M0.163,-0.341C0.172,-0.338 0.183,-0.337 0.196,-0.336C0.208,-0.335 0.221,-0.334 0.235,-0.334C0.288,-0.334 0.33,-0.346 0.36,-0.371C0.389,-0.396 0.404,-0.431 0.404,-0.477C0.404,-0.522 0.39,-0.556 0.361,-0.578C0.331,-0.599 0.293,-0.61 0.245,-0.61C0.226,-0.61 0.209,-0.609 0.195,-0.608C0.181,-0.606 0.17,-0.604 0.163,-0.603L0.163,-0.341ZM0.076,-0.665C0.097,-0.669 0.122,-0.672 0.149,-0.675C0.176,-0.678 0.208,-0.679 0.243,-0.679C0.328,-0.679 0.391,-0.66 0.432,-0.623C0.451,-0.607 0.465,-0.587 0.476,-0.563C0.487,-0.539 0.492,-0.512 0.492,-0.482C0.492,-0.421 0.474,-0.373 0.439,-0.338C0.416,-0.313 0.386,-0.295 0.351,-0.283C0.315,-0.27 0.276,-0.264 0.233,-0.264C0.22,-0.264 0.207,-0.264 0.196,-0.265C0.184,-0.266 0.173,-0.267 0.163,-0.27L0.163,-0L0.076,-0L0.076,-0.665Z" style="fill:white;fill-rule:nonzero;"/>
                </g>
                <g transform="matrix(72,0,0,72,877.248,262.374)">
                    <path d="M0.424,-0.316L0.163,-0.316L0.163,-0.073L0.455,-0.073L0.455,-0L0.075,-0L0.075,-0.674L0.44,-0.674L0.44,-0.601L0.163,-0.601L0.163,-0.388L0.424,-0.388L0.424,-0.316Z" style="fill:white;fill-rule:nonzero;"/>
                </g>
                <g transform="matrix(72,0,0,72,912.672,262.374)">
                    <path d="M0.076,-0L0.076,-0.674L0.172,-0.674L0.387,-0.333C0.412,-0.293 0.434,-0.255 0.454,-0.22C0.474,-0.185 0.492,-0.149 0.507,-0.114L0.51,-0.115C0.506,-0.16 0.503,-0.205 0.502,-0.248C0.501,-0.291 0.5,-0.339 0.5,-0.391L0.5,-0.674L0.582,-0.674L0.582,-0L0.494,-0L0.28,-0.342C0.257,-0.38 0.234,-0.418 0.213,-0.456C0.191,-0.493 0.172,-0.53 0.155,-0.567L0.152,-0.566C0.155,-0.523 0.156,-0.48 0.157,-0.437C0.158,-0.394 0.158,-0.344 0.158,-0.288L0.158,-0L0.076,-0Z" style="fill:white;fill-rule:nonzero;"/>
                </g>
                <g transform="matrix(72,0,0,72,975.312,262.374)">
                    <rect x="0.075" y="-0.674" width="0.088" height="0.674" style="fill:white;fill-rule:nonzero;"/>
                </g>
                <g transform="matrix(72,0,0,72,992.52,262.374)">
                    <path d="M0.076,-0L0.076,-0.674L0.172,-0.674L0.387,-0.333C0.412,-0.293 0.434,-0.255 0.454,-0.22C0.474,-0.185 0.492,-0.149 0.507,-0.114L0.51,-0.115C0.506,-0.16 0.503,-0.205 0.502,-0.248C0.501,-0.291 0.5,-0.339 0.5,-0.391L0.5,-0.674L0.582,-0.674L0.582,-0L0.494,-0L0.28,-0.342C0.257,-0.38 0.234,-0.418 0.213,-0.456C0.191,-0.493 0.172,-0.53 0.155,-0.567L0.152,-0.566C0.155,-0.523 0.156,-0.48 0.157,-0.437C0.158,-0.394 0.158,-0.344 0.158,-0.288L0.158,-0L0.076,-0Z" style="fill:white;fill-rule:nonzero;"/>
                </g>
                <g transform="matrix(124,0,0,124,789.336,398.374)">
                    <path d="M0.065,-0.106C0.084,-0.093 0.108,-0.083 0.135,-0.075C0.162,-0.066 0.19,-0.062 0.22,-0.062C0.265,-0.062 0.299,-0.073 0.324,-0.094C0.349,-0.115 0.361,-0.142 0.361,-0.177C0.361,-0.208 0.351,-0.233 0.332,-0.254C0.312,-0.274 0.279,-0.293 0.234,-0.31C0.179,-0.33 0.135,-0.355 0.104,-0.386C0.072,-0.416 0.056,-0.455 0.056,-0.502C0.056,-0.528 0.061,-0.552 0.072,-0.575C0.082,-0.597 0.097,-0.616 0.116,-0.633C0.135,-0.649 0.158,-0.662 0.185,-0.671C0.212,-0.68 0.241,-0.685 0.274,-0.685C0.308,-0.685 0.337,-0.682 0.363,-0.675C0.388,-0.668 0.407,-0.661 0.422,-0.652L0.398,-0.581C0.387,-0.588 0.371,-0.595 0.35,-0.602C0.328,-0.609 0.302,-0.613 0.271,-0.613C0.248,-0.613 0.228,-0.61 0.212,-0.604C0.196,-0.597 0.183,-0.589 0.173,-0.58C0.163,-0.57 0.156,-0.559 0.151,-0.547C0.146,-0.535 0.144,-0.523 0.144,-0.512C0.144,-0.481 0.155,-0.456 0.176,-0.437C0.197,-0.418 0.231,-0.4 0.278,-0.382C0.307,-0.371 0.332,-0.359 0.353,-0.346C0.374,-0.333 0.392,-0.319 0.407,-0.304C0.421,-0.288 0.432,-0.27 0.439,-0.251C0.446,-0.231 0.449,-0.209 0.449,-0.184C0.449,-0.158 0.444,-0.133 0.435,-0.11C0.425,-0.086 0.41,-0.065 0.391,-0.048C0.372,-0.03 0.347,-0.016 0.318,-0.005C0.289,0.006 0.254,0.011 0.214,0.011C0.198,0.011 0.182,0.01 0.165,0.008C0.148,0.005 0.132,0.002 0.117,-0.002C0.102,-0.006 0.088,-0.011 0.075,-0.016C0.062,-0.021 0.051,-0.027 0.042,-0.033L0.065,-0.106Z" style="fill:white;fill-rule:nonzero;"/>
                </g>
                <g transform="matrix(124,0,0,124,850.468,398.374)">
                    <path d="M0.163,-0.674L0.163,-0.392L0.489,-0.392L0.489,-0.674L0.577,-0.674L0.577,-0L0.489,-0L0.489,-0.316L0.163,-0.316L0.163,-0L0.075,-0L0.075,-0.674L0.163,-0.674Z" style="fill:white;fill-rule:nonzero;"/>
                </g>
                <g transform="matrix(124,0,0,124,931.316,398.374)">
                    <path d="M0.343,-0.06C0.378,-0.06 0.408,-0.067 0.435,-0.082C0.462,-0.097 0.484,-0.117 0.503,-0.143C0.521,-0.168 0.535,-0.198 0.545,-0.232C0.554,-0.266 0.559,-0.302 0.559,-0.34C0.559,-0.373 0.555,-0.406 0.546,-0.439C0.537,-0.472 0.524,-0.501 0.506,-0.527C0.488,-0.553 0.466,-0.574 0.439,-0.59C0.412,-0.606 0.38,-0.614 0.344,-0.614C0.308,-0.614 0.276,-0.606 0.249,-0.591C0.222,-0.575 0.199,-0.554 0.181,-0.528C0.163,-0.502 0.15,-0.472 0.141,-0.439C0.132,-0.405 0.127,-0.37 0.127,-0.333C0.127,-0.298 0.132,-0.264 0.142,-0.231C0.151,-0.198 0.165,-0.168 0.184,-0.143C0.202,-0.118 0.224,-0.097 0.251,-0.083C0.278,-0.068 0.308,-0.06 0.342,-0.06L0.343,-0.06ZM0.339,0.011C0.294,0.011 0.253,0.003 0.216,-0.014C0.179,-0.03 0.147,-0.053 0.12,-0.083C0.093,-0.113 0.073,-0.149 0.058,-0.191C0.043,-0.233 0.036,-0.28 0.036,-0.331C0.036,-0.384 0.044,-0.433 0.06,-0.477C0.075,-0.52 0.097,-0.558 0.125,-0.589C0.152,-0.62 0.185,-0.643 0.223,-0.66C0.261,-0.677 0.303,-0.685 0.348,-0.685C0.394,-0.685 0.436,-0.677 0.474,-0.66C0.511,-0.643 0.543,-0.62 0.57,-0.59C0.596,-0.559 0.616,-0.523 0.631,-0.482C0.645,-0.44 0.652,-0.394 0.652,-0.344C0.652,-0.286 0.644,-0.235 0.628,-0.191C0.611,-0.147 0.589,-0.11 0.561,-0.08C0.532,-0.05 0.499,-0.027 0.461,-0.012C0.423,0.003 0.383,0.011 0.34,0.011L0.339,0.011Z" style="fill:white;fill-rule:nonzero;"/>
                </g>
                <g transform="matrix(124,0,0,124,1016.75,398.374)">
                    <path d="M0.163,-0.358L0.252,-0.358C0.299,-0.358 0.336,-0.37 0.363,-0.393C0.39,-0.416 0.404,-0.447 0.404,-0.486C0.404,-0.53 0.39,-0.562 0.361,-0.582C0.332,-0.601 0.295,-0.611 0.249,-0.611C0.228,-0.611 0.21,-0.61 0.196,-0.609C0.181,-0.607 0.17,-0.605 0.163,-0.603L0.163,-0.358ZM0.076,-0.664C0.098,-0.669 0.124,-0.672 0.154,-0.675C0.183,-0.678 0.213,-0.679 0.243,-0.679C0.29,-0.679 0.329,-0.675 0.36,-0.666C0.391,-0.657 0.418,-0.642 0.439,-0.623C0.456,-0.608 0.469,-0.59 0.478,-0.568C0.487,-0.546 0.492,-0.522 0.492,-0.495C0.492,-0.473 0.489,-0.453 0.482,-0.435C0.475,-0.416 0.466,-0.4 0.455,-0.386C0.443,-0.371 0.429,-0.359 0.414,-0.349C0.399,-0.338 0.382,-0.33 0.365,-0.324L0.365,-0.321C0.39,-0.312 0.411,-0.296 0.427,-0.273C0.443,-0.25 0.455,-0.22 0.464,-0.185C0.475,-0.138 0.485,-0.098 0.493,-0.067C0.501,-0.036 0.508,-0.013 0.515,-0L0.425,-0C0.42,-0.009 0.413,-0.028 0.406,-0.056C0.399,-0.084 0.39,-0.119 0.381,-0.161C0.371,-0.208 0.356,-0.241 0.335,-0.261C0.314,-0.28 0.284,-0.291 0.245,-0.292L0.163,-0.292L0.163,-0L0.076,-0L0.076,-0.664Z" style="fill:white;fill-rule:nonzero;"/>
                </g>
                <g transform="matrix(124,0,0,124,1083.46,398.374)">
                    <path d="M0.204,-0.6L-0.001,-0.6L-0.001,-0.674L0.498,-0.674L0.498,-0.6L0.292,-0.6L0.292,-0L0.204,-0L0.204,-0.6Z" style="fill:white;fill-rule:nonzero;"/>
                </g>
                <g transform="matrix(124,0,0,124,1145.09,398.374)">
                    <path d="M0.546,-0.021C0.531,-0.013 0.507,-0.006 0.477,0.001C0.446,0.008 0.409,0.011 0.368,0.011C0.321,0.011 0.277,0.004 0.236,-0.011C0.195,-0.026 0.16,-0.048 0.131,-0.077C0.101,-0.106 0.078,-0.141 0.061,-0.184C0.044,-0.227 0.036,-0.276 0.036,-0.331C0.036,-0.384 0.045,-0.432 0.062,-0.476C0.079,-0.519 0.102,-0.557 0.134,-0.588C0.165,-0.619 0.202,-0.643 0.245,-0.66C0.288,-0.677 0.336,-0.685 0.388,-0.685C0.43,-0.685 0.464,-0.682 0.491,-0.675C0.518,-0.668 0.537,-0.661 0.548,-0.655L0.526,-0.584C0.51,-0.592 0.491,-0.599 0.468,-0.604C0.444,-0.609 0.419,-0.612 0.391,-0.612C0.352,-0.612 0.316,-0.606 0.284,-0.594C0.251,-0.581 0.224,-0.563 0.201,-0.54C0.178,-0.516 0.16,-0.487 0.147,-0.452C0.134,-0.417 0.128,-0.378 0.128,-0.334C0.128,-0.293 0.134,-0.255 0.146,-0.222C0.157,-0.188 0.174,-0.159 0.196,-0.136C0.218,-0.113 0.245,-0.095 0.277,-0.082C0.309,-0.069 0.345,-0.063 0.386,-0.063C0.413,-0.063 0.44,-0.066 0.465,-0.071C0.49,-0.076 0.512,-0.082 0.529,-0.091L0.546,-0.021Z" style="fill:white;fill-rule:nonzero;"/>
                </g>
                <g transform="matrix(124,0,0,124,1217.01,398.374)">
                    <path d="M0.163,-0.674L0.163,-0.274C0.163,-0.237 0.167,-0.204 0.175,-0.178C0.183,-0.151 0.194,-0.128 0.208,-0.111C0.222,-0.094 0.239,-0.081 0.258,-0.073C0.277,-0.064 0.297,-0.06 0.32,-0.06C0.369,-0.06 0.409,-0.077 0.439,-0.112C0.469,-0.146 0.484,-0.2 0.484,-0.274L0.484,-0.674L0.572,-0.674L0.572,-0.28C0.572,-0.228 0.566,-0.184 0.553,-0.147C0.54,-0.11 0.522,-0.08 0.499,-0.057C0.476,-0.034 0.45,-0.016 0.419,-0.006C0.388,0.006 0.354,0.011 0.317,0.011C0.282,0.011 0.25,0.006 0.221,-0.005C0.192,-0.015 0.166,-0.032 0.145,-0.055C0.123,-0.078 0.106,-0.107 0.094,-0.144C0.081,-0.18 0.075,-0.224 0.075,-0.277L0.075,-0.674L0.163,-0.674Z" style="fill:white;fill-rule:nonzero;"/>
                </g>
                <g transform="matrix(124,0,0,124,1297.24,398.374)">
                    <path d="M0.204,-0.6L-0.001,-0.6L-0.001,-0.674L0.498,-0.674L0.498,-0.6L0.292,-0.6L0.292,-0L0.204,-0L0.204,-0.6Z" style="fill:white;fill-rule:nonzero;"/>
                </g>
                <g transform="matrix(124,0,0,124,1358.87,398.374)">
                    <path d="M0.065,-0.106C0.084,-0.093 0.108,-0.083 0.135,-0.075C0.162,-0.066 0.19,-0.062 0.22,-0.062C0.265,-0.062 0.299,-0.073 0.324,-0.094C0.349,-0.115 0.361,-0.142 0.361,-0.177C0.361,-0.208 0.351,-0.233 0.332,-0.254C0.312,-0.274 0.279,-0.293 0.234,-0.31C0.179,-0.33 0.135,-0.355 0.104,-0.386C0.072,-0.416 0.056,-0.455 0.056,-0.502C0.056,-0.528 0.061,-0.552 0.072,-0.575C0.082,-0.597 0.097,-0.616 0.116,-0.633C0.135,-0.649 0.158,-0.662 0.185,-0.671C0.212,-0.68 0.241,-0.685 0.274,-0.685C0.308,-0.685 0.337,-0.682 0.363,-0.675C0.388,-0.668 0.407,-0.661 0.422,-0.652L0.398,-0.581C0.387,-0.588 0.371,-0.595 0.35,-0.602C0.328,-0.609 0.302,-0.613 0.271,-0.613C0.248,-0.613 0.228,-0.61 0.212,-0.604C0.196,-0.597 0.183,-0.589 0.173,-0.58C0.163,-0.57 0.156,-0.559 0.151,-0.547C0.146,-0.535 0.144,-0.523 0.144,-0.512C0.144,-0.481 0.155,-0.456 0.176,-0.437C0.197,-0.418 0.231,-0.4 0.278,-0.382C0.307,-0.371 0.332,-0.359 0.353,-0.346C0.374,-0.333 0.392,-0.319 0.407,-0.304C0.421,-0.288 0.432,-0.27 0.439,-0.251C0.446,-0.231 0.449,-0.209 0.449,-0.184C0.449,-0.158 0.444,-0.133 0.435,-0.11C0.425,-0.086 0.41,-0.065 0.391,-0.048C0.372,-0.03 0.347,-0.016 0.318,-0.005C0.289,0.006 0.254,0.011 0.214,0.011C0.198,0.011 0.182,0.01 0.165,0.008C0.148,0.005 0.132,0.002 0.117,-0.002C0.102,-0.006 0.088,-0.011 0.075,-0.016C0.062,-0.021 0.051,-0.027 0.042,-0.033L0.065,-0.106Z" style="fill:white;fill-rule:nonzero;"/>
                </g>
            </g>
        </g>
    </g>
    <defs>
        <radialGradient id="_Radial1" cx="0" cy="0" r="1" gradientUnits="userSpaceOnUse" gradientTransform="matrix(-74.56,0,0,74.56,93.05,74.4)"><stop offset="0" style="stop-color:rgb(31,125,241);stop-opacity:1"/><stop offset="0.73" style="stop-color:rgb(31,125,241);stop-opacity:0"/><stop offset="1" style="stop-color:rgb(31,125,241);stop-opacity:0"/></radialGradient>
        <radialGradient id="_Radial2" cx="0" cy="0" r="1" gradientUnits="userSpaceOnUse" gradientTransform="matrix(-31.5684,-49.1064,-66.0598,42.6758,33.7183,105.976)"><stop offset="0" style="stop-color:rgb(77,194,161);stop-opacity:1"/><stop offset="0.27" style="stop-color:rgb(77,194,161);stop-opacity:0.67"/><stop offset="0.58" style="stop-color:rgb(77,194,161);stop-opacity:0.31"/><stop offset="0.81" style="stop-color:rgb(77,194,161);stop-opacity:0.09"/><stop offset="0.93" style="stop-color:rgb(77,194,161);stop-opacity:0"/><stop offset="1" style="stop-color:rgb(77,194,161);stop-opacity:0"/></radialGradient>
        <radialGradient id="_Radial3" cx="0" cy="0" r="1" gradientUnits="userSpaceOnUse" gradientTransform="matrix(74.56,0,0,-74.56,26.95,44.48)"><stop offset="0" style="stop-color:rgb(240,94,86);stop-opacity:1"/><stop offset="0.17" style="stop-color:rgb(240,94,86);stop-opacity:1"/><stop offset="0.22" style="stop-color:rgb(240,94,86);stop-opacity:0.96"/><stop offset="0.31" style="stop-color:rgb(240,94,86);stop-opacity:0.84"/><stop offset="0.42" style="stop-color:rgb(240,94,86);stop-opacity:0.65"/><stop offset="0.56" style="stop-color:rgb(240,94,86);stop-opacity:0.38"/><stop offset="0.72" style="stop-color:rgb(240,94,86);stop-opacity:0.04"/><stop offset="0.74" style="stop-color:rgb(240,94,86);stop-opacity:0"/><stop offset="1" style="stop-color:rgb(240,94,86);stop-opacity:0"/></radialGradient>
        <radialGradient id="_Radial4" cx="0" cy="0" r="1" gradientUnits="userSpaceOnUse" gradientTransform="matrix(31.5684,49.1064,66.0598,-42.6758,65.5735,19.4409)"><stop offset="0" style="stop-color:rgb(234,102,203);stop-opacity:1"/><stop offset="0.02" style="stop-color:rgb(234,102,203);stop-opacity:0.96"/><stop offset="0.16" style="stop-color:rgb(234,102,203);stop-opacity:0.71"/><stop offset="0.29" style="stop-color:rgb(234,102,203);stop-opacity:0.49"/><stop offset="0.43" style="stop-color:rgb(234,102,203);stop-opacity:0.32"/><stop offset="0.56" style="stop-color:rgb(234,102,203);stop-opacity:0.18"/><stop offset="0.68" style="stop-color:rgb(234,102,203);stop-opacity:0.08"/><stop offset="0.8" style="stop-color:rgb(234,102,203);stop-opacity:0.02"/><stop offset="0.9" style="stop-color:rgb(234,102,203);stop-opacity:0"/><stop offset="1" style="stop-color:rgb(234,102,203);stop-opacity:0"/></radialGradient>
    </defs>
</svg>
