<svg xmlns="http://www.w3.org/2000/svg" xmlns:xlink="http://www.w3.org/1999/xlink" width="100%" height="100%" version="1.1" viewBox="0 0 380 89" xml:space="preserve" style="fill-rule:evenodd;clip-rule:evenodd;stroke-linejoin:round;stroke-miterlimit:2"><g><path d="M376.77,14.496c-0.627,0.18 -0.187,-0.745 -0,0Zm-4.758,6.123c0.132,-0.157 0.263,-0.311 0.395,-0.468c0.588,0.245 0.018,0.763 -0.395,0.468Zm-1.739,2.301c0.681,-0.004 -0.65,0.194 0,-0Zm-1.64,2.187c-0.348,-0.119 -0,-0.341 -0.2,-0.481c0.298,-0.258 0.517,0.312 0.2,0.481Zm-1.323,-18.316c-0.237,-0.38 0.267,-0.796 0.656,-1.017c0.716,0.423 -0.319,0.836 -0.656,1.017Zm-1.312,19.522l0.198,-0.232l0.23,-0.034c0.296,0.113 -0.255,0.652 -0.428,0.266Zm-0.189,2.381l-0.329,0.151c-0.171,0.26 0.258,0.625 -0.095,0.831c-0.18,-0.126 -0.359,-0.252 -0.495,-0.131c-0.131,-0.115 0.026,-0.162 0.099,-0.115c0.043,-0.213 -0.099,-0.396 -0.333,-0.566c-0.215,0.169 -0.083,0.286 0.068,0.4c-0.388,0.242 -0.363,-0.41 -0.564,-0.531c0.306,-0.067 0.654,0.139 0.958,0.063c0.119,-0.299 0.087,-0.738 0.457,-0.783c0.157,0.112 0.044,0.267 0.069,0.4l0.165,0.281Zm-0.818,1.45c-0.546,-0.184 -0.302,-0.463 0.031,-0.516c0.119,0.153 0.145,0.32 -0.031,0.516Zm-0.361,0.667c-0.42,-0.246 -0.067,-0.603 -0.728,-0.812c-0.163,-0.363 0.569,-0.209 0.032,-0.516c0.138,-0.106 0.328,0.084 0.46,-0.068c-0.086,0.49 0.548,0.873 0.236,1.396Zm-1.023,-0.462c0.202,-0.134 0.104,0.085 0.262,0.166c-0.155,0.126 -0.359,-0.047 -0.262,-0.166Zm0.914,-2.282c0.382,-0.295 0.189,0.289 0.529,0.331c-0.176,0.123 -0.387,0.038 -0.56,0.185c-0.168,-0.146 0.247,-0.378 0.031,-0.516Zm0.226,-1.465c-0.138,0.116 -0.187,-0.019 -0.133,-0.083c0.138,-0.118 0.188,0.018 0.133,0.083Zm0.622,-18.705c0.41,0.386 -0.525,1.032 -0.854,1.251c-0.26,-0.634 0.402,-0.513 0.854,-1.251Zm-4.909,27.622l-0.009,-0.009l0.02,-0.004l-0.011,0.013Zm-1.205,4.064l0.265,0.165l-0.198,0.234l-0.265,-0.166l0.198,-0.233Zm0.43,0.447c-0.28,-0.597 0.343,-0.982 -0,-0Zm-3.513,-22.183c-0.132,-0.083 -0.265,-0.166 -0.396,-0.249l0.295,-0.35c0.133,0.083 0.264,0.166 0.396,0.249l-0.295,0.35Zm-2.825,2.871c-0.46,-0.204 -0.505,-0.471 -0.136,-0.798c0.461,0.205 0.506,0.471 0.136,0.798Zm-0.659,17.789c-0.054,-0.127 -0.112,-0.256 -0.298,-0.364c0.379,-0.429 0.429,-0.24 0.592,-0.702c0.457,0.274 0.026,0.679 -0.294,1.066Zm-0.82,1.452c-0.317,-0.124 -0.28,-0.299 -0.43,-0.448c0.31,-0.274 0.699,-0.062 0.954,-0.652c0.107,0.543 -0.385,0.645 -0.524,1.1Zm-0.672,0.813c-0.112,-0.247 -0.211,-0.489 -0.295,-0.727c0.125,-0.029 0.246,-0.09 0.341,-0.299c0.22,0.136 0.44,0.274 0.662,0.412c-0.522,0.044 -0.331,0.572 -0.708,0.614Zm1.125,-3.744c0.47,0.575 -0.313,0.689 0,-0Zm0.304,-14.977l-0.01,0.041l-0.007,0l0.002,0.006l-0.214,-0.012l0.229,-0.035Zm-2.911,14.953l-0.042,-0.099l0.187,-0.258c0.032,0.108 -0.015,0.226 -0.145,0.357Zm-0.47,-17.354l-0.348,0.202l-0.208,-0.343c0.169,-0.054 0.125,-0.161 0.071,-0.272c0.422,-0.113 0.532,0.053 0.485,0.413Zm-1.131,21.17c-0.307,-0.392 -0.291,-0.197 -0.794,-0.496c0.348,-0.647 -0.755,-0.481 0.028,-1.231c0.268,0.42 0.551,0.424 1.024,0.462c0.087,-0.333 -0.103,-0.623 0.227,-0.992c0.113,0.16 0.225,0.324 0.336,0.488c-0.037,0.555 -0.426,1.162 -0.821,1.769Zm-0.364,-0.048c0.201,0.587 -0.918,-0.143 -0,-0Zm-1.184,0.687c-0.299,-0.344 -0.003,-0.268 0.262,-0.551l0.264,0.165l0.034,0.201c-0.186,0.065 -0.406,-0.07 -0.56,0.185Zm0.302,-25.747c0.097,0.17 -0.133,0.257 -0.247,0.373c-0.095,-0.168 0.134,-0.256 0.247,-0.373Zm0.221,24.646c-0.155,0.127 -0.361,-0.046 -0.264,-0.165c0.202,-0.132 0.106,0.084 0.264,0.165Zm0.853,-1.251c-0.232,-0.415 0.021,-0.794 0.48,-0.794l0.125,0.175c-0.431,0.054 -0.337,0.8 -0.703,0.736c-0.131,-0.117 0.025,-0.163 0.098,-0.117Zm-1.765,-24.148c-0.144,-0.039 -0.004,-0.293 0.071,-0.272c0.145,0.035 0.006,0.289 -0.071,0.272Zm-0.493,0.745c-0.094,-0.217 0.231,-0.329 0.422,-0.474c0.093,0.218 -0.233,0.328 -0.422,0.474Zm-0.478,-1.571l0.35,-0.202l0.208,0.343l-0.351,0.202l-0.207,-0.343Zm-0.776,15.917c-0.144,-0.038 -0.007,-0.294 0.072,-0.273c0.143,0.036 0.006,0.292 -0.072,0.273Zm-0.409,-15.926c0.251,-0.774 -0.163,0.798 -0,0Zm-1.859,25.033c-0.13,-0.25 -0.277,-0.492 -0.43,-0.727l0.271,-0.184c-0.417,-0.089 0.006,-0.799 0.129,-0.634c0.181,0.213 0.499,0.406 0.465,0.648c-0.054,0.285 -0.221,0.588 -0.435,0.897Zm-1.468,-0.315c0.111,-0.143 0.234,-0.218 0.363,-0.262c0.087,0.158 0.177,0.304 0.276,0.414c-0.244,0.067 -0.452,-0.004 -0.639,-0.152Zm-1.022,-1.427c0.517,-0.362 0.824,0.084 1.105,0.623c-0.163,0.278 -0.278,0.549 -0.114,0.779c-0.37,-0.314 -0.663,-0.93 -0.991,-1.402Zm-1.915,-5.127c-0.62,0.284 -0.959,-0.493 -1.354,-1.067c-0.224,0.105 -0.445,0.189 -0.555,-0.139c-0.285,-1.359 -1.525,-2.966 -2.592,-3.122c0.102,-0.555 -0.639,-1.32 -0.963,-1.984c-0.394,-0.52 -2.053,-1.52 -1.064,-2.155c0.79,1.129 1.627,2.082 2.488,2.95c0.698,1.107 1.415,2.144 2.355,2.334c0.344,0.571 0.689,1.143 1.031,1.712c0.217,0.312 0.651,-0.215 0.836,0.211c1.156,1.625 2.345,3.117 3.594,4.389c0.138,0.228 0.275,0.455 0.413,0.683l0.224,0.141c-0.305,0.357 -0.641,0.722 -1.028,1.11l-0.052,0.138c-0.418,-0.61 -0.748,-1.158 -0.71,-1.637c-0.225,0.103 -0.445,0.189 -0.557,-0.142c-0.665,-0.986 -1.935,-2.237 -2.066,-3.422Zm0.189,2.66c-0.144,-0.035 -0.006,-0.292 0.071,-0.273c0.145,0.037 0.006,0.292 -0.071,0.273Zm-4.405,-27.237c0.144,0.036 0.004,0.291 -0.073,0.272c-0.144,-0.037 -0.004,-0.291 0.073,-0.272Zm5.778,15.824c0.16,-0.048 0.276,0.071 0.452,-0.031c0.15,0.458 -0.764,0.584 -0.452,0.031Zm0.587,0.584c0.146,0.038 0.006,0.292 -0.071,0.273c-0.144,-0.036 -0.006,-0.292 0.071,-0.273Zm-11.215,-1.372c0.372,-0.635 -0.456,1.276 0,0Zm-2.893,-4.793c0.074,-0.282 0.318,-0.079 0.277,0.07c-0.073,0.282 -0.316,0.081 -0.277,-0.07Zm35.123,-9.094c-0.136,0.118 -0.187,-0.017 -0.133,-0.081c0.138,-0.118 0.187,0.017 0.133,0.081Zm18.215,2.832c-0.625,-0.312 -0.384,-0.593 -0.366,-0.764l-0.231,0.033c-0.209,-0.173 -0.132,-0.389 0.13,-0.632c-0.573,-0.392 -0.903,-0.821 -0.928,-1.294c0.155,-0.481 0.502,0.178 0.658,-0.303c-0.992,-0.704 -1.554,-1.474 -0.538,-2.477c-0.516,-0.498 -0.926,-0.347 -1.386,-0.511c-0.735,-0.637 -1.317,-1 -2.248,-1.407c-0.564,-0.065 -1.056,0.288 -1.649,0.04c-0.194,-0.245 0.67,-0.644 0.096,-0.833c-0.709,0.001 -1.297,0.721 -1.941,1.107c-0.356,0.224 -0.591,1.165 -1.054,0.768c0.648,-0.999 1.381,-1.459 1.741,-2.302c-0.607,0.212 -0.089,-0.59 -0.597,-0.731c-0.235,0.275 -0.062,0.487 -0.457,0.784c-0.23,-0.183 -0.404,-0.05 -0.628,-0.213c0.771,-0.215 0.68,-1.008 0.357,-1.383c-0.648,0.147 -0.663,0.856 -1.084,1.286c-0.083,-0.33 -0.249,-0.647 -0.399,-0.965c0.347,-0.042 0.62,-0.524 0.92,-0.851c-0.219,-0.496 -0.524,-0.709 -0.959,-0.778c-0.365,0.257 0.065,0.398 -0.13,0.632c-0.325,-0.059 -0.662,-0.183 -0.957,-0.063c-0.991,1.364 -2.161,1.668 -3.153,3.023c-0.246,0.187 -0.533,0.115 -0.757,0.418c-1.16,1.689 -2.786,2.228 -3.647,3.606c-0.615,0.337 -1.247,0.564 -1.777,1.388c0.013,0.441 -0.248,0.924 -0.357,1.383c-0.295,0.35 -0.59,0.701 -0.887,1.051c0.376,0.183 -0.279,0.518 0.234,0.682c0.464,-0.514 0.907,-1.16 1.513,-0.838c1.137,-1.47 2.452,-1.752 3.549,-3.489c1.148,-0.669 2.246,-1.637 3.322,-2.743c0.985,-0.459 1.839,-1.705 2.86,-1.955c-0.523,0.452 -0.329,0.799 -0.853,1.251c-1.303,1.149 -2.529,2.753 -3.809,4.041c-0.66,0.141 -0.633,0.763 -0.985,1.168c-0.821,0.943 -2.1,1.65 -2.628,2.637c-0.718,0.26 -0.782,0.882 -1.349,1.12c0.303,0.431 0.893,0.822 0.467,1.361c-0.846,-0.579 -1.692,-1.149 -2.344,-0.572c0.51,0.163 0.263,0.437 0.234,0.681c-1.714,1.696 -3.522,3.923 -5.303,6.217c-0.668,0.063 -1.32,0.058 -1.918,-0.145c0.139,-0.552 -0.282,-0.292 -0.59,-0.584c0.79,0.125 0.344,-0.776 0.391,-0.917c0.639,0.015 0.468,0.349 1.145,0.724c-0.226,-0.01 -0.887,-0.026 -0.421,0.473c0.296,-0.189 0.568,-0.275 0.803,-0.232c-0.722,-1.01 -1.526,-1.72 -2.283,-2.608c0.08,0.215 -0.032,0.381 -0.142,0.546c0.006,-1.02 -1.216,-1.161 -1.529,-0.966c0.016,-0.635 -0.759,-0.641 -0.268,-1.229c0.379,-0.31 0.373,0.835 0.835,0.211c-0.433,-0.641 -0.768,-1.259 -0.859,-1.814c-0.768,-0.459 -1.547,-0.888 -2.291,-1.447c-0.385,-0.92 -0.787,-1.843 -1.478,-2.84c-1.631,-0.948 -2.95,-3.07 -4.714,-3.511c-0.299,-0.557 -0.813,-0.303 -1.074,-0.996c-0.465,0.176 -0.192,0.533 -0.771,0.678c-1.607,0.09 -3.514,1.32 -4.956,0.784c-0.178,-0.454 -0.545,-0.188 -0.692,-0.755c-3.715,1.774 -2.466,4.798 -1.729,7.694c-0.234,0.135 -0.466,0.27 -0.701,0.403c-0.857,-0.621 -1.125,-1.256 -1.693,-2.022c-0.436,0.276 -0.423,0.667 -0.564,1.018c1.463,-0.123 2.759,2.276 2.345,3.493c-1.257,-0.206 -1.15,-2.558 -2.283,-2.606c0.375,0.626 -0.033,1.056 0.024,1.602c-0.216,0.528 0.569,1.306 0.126,1.775c-0.766,-1.034 -1.784,-1.115 -2.457,-2.507c-0.369,0.407 -1.271,0.038 -1.225,0.708c0.783,-0.157 1.075,1.557 1.767,1.752c-0.412,0.573 0.065,1.371 0.333,2.116c1.15,-0.528 1.942,-0.292 2.832,-1.175c0.557,0.528 2.378,-0.793 2.227,0.561c-0.628,0.69 -0.808,-0.314 -1.36,0.093c-0.529,0.207 0.22,0.734 -0.114,0.987c-0.291,0.17 -0.583,0.337 -0.874,0.507c0.296,0.574 0.747,0.545 1.001,1.268c-0.464,0.173 -0.19,0.532 -0.772,0.676c-0.753,-0.622 -0.616,-1.13 -1.239,-2.053c-0.771,0.412 -0.549,0.633 -0.812,1.39c0.318,0.676 0.979,0.039 1.249,0.897c0.134,0.226 -0.213,0.334 -0.143,0.543c0.685,-0.353 0.87,1.203 1.455,1.238c0.213,1.081 0.764,1.755 1.375,2.668c0.77,0.37 1.511,0.898 1.765,1.752c0.637,-0.161 0.898,1.095 1.454,1.238c0.014,0.39 -0.476,0.654 -0.007,1.158c0.26,0.325 0.75,-0.215 1.01,0.11c0.698,0.846 1.132,1.399 2.004,2.536c-0.073,0.319 -0.313,0.598 0.167,1.059c0.45,0.161 0.988,0.004 1.39,0.35c-0.2,0.142 -0.383,0.291 -0.142,0.545c0.436,0.411 0.902,0.703 1.351,1.065c-0.427,0.522 0.35,0.636 0.652,1.472c0.299,0.37 0.801,-0.034 1.042,0.552c-0.346,0.585 0.161,0.726 0.522,1.248c-0.255,0.413 -0.392,0.809 -0.25,1.164c0.331,-0.206 0.848,-1.032 1.375,-1.641c0.623,1.01 0.21,1.732 1.368,1.875c-0.079,-0.648 -0.613,-1.413 -1.066,-2.157l-0.012,-0.029c0.478,-0.456 0.934,-0.604 1.232,0.193c0.312,-0.421 0.276,-0.668 0.821,-0.735c-0.423,0.643 -0.761,1.273 -0.751,1.852c0.37,-0.136 0.71,-0.462 1.153,-0.172c0.239,0.17 -0.234,0.444 0.102,0.599c0.363,0.059 0.619,-0.532 1.02,-0.253c0.009,0.272 0.054,0.537 0.135,0.798c0.141,0.389 -0.222,0.851 -0.028,1.232c0.383,-0.297 0.189,0.287 0.53,0.331c-0.131,0.257 0.037,0.47 -0.23,0.75c0.577,0.185 -0.33,0.592 0.136,0.797c0.34,0.146 0.57,-0.357 0.89,-0.337c0.22,0.138 0.44,0.277 0.661,0.414c0.139,-0.334 0.575,-1.235 1.082,-1.284c0.177,0.11 0.353,0.221 0.529,0.331c-0.374,0.327 -0.109,0.561 -0.557,0.9c0.155,0.692 -0.534,1.511 -0.453,2.214c0.349,-0.174 0.605,0.16 1.055,-0.052c0.413,-0.197 0.522,-1.115 1.152,-0.887c0.474,0.169 0.38,0.42 0.693,0.613c0.576,-0.331 1.068,-1.149 1.814,-0.472c1.301,-0.979 2.01,-2.476 2.625,-3.353c0.238,-0.218 0.549,-0.013 0.824,-0.021c0.277,-0.675 0.918,-2.189 1.938,-1.82l-0.064,0.317c0.543,-0.545 0.281,-0.406 -0.233,-0.682c0.405,-0.122 0.489,-0.559 -0.101,-0.598c0.287,0.072 0.456,-0.561 0.755,-0.419c0.044,0.368 -0.45,0.815 0.072,1.113c0.452,-0.407 0.245,-0.718 0.753,-1.133c-0.183,-0.825 1.22,-1.884 1.079,-2.716c-0.227,0.445 -0.413,0.013 -0.265,-0.166c0.55,0.14 0.817,-0.669 0.887,-1.051c-0.217,0.406 -1.215,-0.271 -1.022,0.254c0.269,-0.253 0.645,0.295 0.43,0.447c-0.527,0.159 -0.677,0.338 -0.689,0.818c-0.53,-0.489 -0.236,0.441 -0.559,0.185c-0.466,-0.413 0.651,-0.583 0.095,-0.833c-0.724,0.191 -0.151,0.704 -0.195,0.951c-0.025,0.145 -0.209,0.019 -0.23,0.033c-0.286,0.204 0.394,0.796 -0.194,0.949c-0.24,-0.272 -0.205,-0.585 -0.268,-0.882l0.33,-0.15c-0.324,-0.326 -0.213,-0.719 -0.3,-1.081c0.584,0.099 -0.034,-0.457 0.36,-0.666c0.479,0.168 -0.016,0.479 0.463,0.648c0.228,-0.486 0.349,-0.37 0.327,-0.868c-0.18,-0.43 -0.69,0.354 -0.495,-0.131c0.391,-0.02 0.707,-0.479 1.153,-0.17c-0.097,0.119 0.108,0.292 0.265,0.166c-0.188,-0.188 -0.217,-0.343 -0.183,-0.485c0.292,-0.013 0.558,0.02 0.742,0.106c-0.203,-0.718 -0.33,-1.415 -0.469,-2.117l0.065,-0.084c0.613,-0.343 0.734,-0.423 1.116,-1.086c0.381,0.147 0.795,0.503 1.09,0.146c-0.072,-0.486 -0.472,0.167 -0.892,-0.38c-0.012,-0.45 0.481,-0.334 0.228,-0.748c0.353,-0.326 0.154,-0.814 0.723,-0.619c0.333,0.224 -0.283,0.587 0.366,0.764c0.487,-0.345 -0.598,-0.457 0.097,-0.832c0.483,0.2 0.634,0.451 0.595,0.729c0.873,-1.299 1.36,-2.018 2.263,-3.401c-0.289,-0.073 -0.457,0.561 -0.756,0.418c-0.234,-0.171 -0.378,-0.354 -0.333,-0.564c0.596,0.22 0.52,-0.244 0.889,-0.337c0.5,-0.041 0.122,0.121 0.298,0.367c0.443,-0.372 1.068,-1.567 1.509,-2.27c2.125,-2.223 5.346,-5.786 7.489,-8.164c-0.119,-0.459 0.52,-1.03 0.225,-1.465c0.547,-0.293 0.618,-1.287 1.212,-1.916c0.129,-0.157 -0.141,-0.253 -0.067,-0.4c0.289,0.079 0.659,0.628 0.892,0.38c-0.571,-0.189 0.204,-0.576 0.326,-0.866c-0.244,-0.204 -0,-0.478 -0.002,-0.716c0.442,-0.056 0.4,-0.403 0.591,-0.701Z" style="fill:#ee2b78;fill-rule:nonzero"/><path d="M33.738,38.439c-1.647,-0.205 -7.062,-0.205 -8.162,-0.205c-1.234,0 -2.536,-0.481 -2.331,2.536c0.207,2.745 -3.221,13.577 -3.428,16.526c-0.204,1.441 -0.616,4.046 -1.097,6.241l-0.893,4.046l-1.508,-6.789c-0.753,-3.635 -1.576,-7.681 -1.849,-9.601c-0.823,-5.759 -1.304,-9.463 -1.646,-10.765c-0.274,-1.371 -0.481,-2.331 -2.333,-2.126c-1.783,-0 -6.171,0.274 -7.612,0.274c-1.301,0 -2.879,-0.686 -2.879,0.344c0,0.205 0.07,0.411 0.137,0.685c0.548,1.987 4.938,21.737 6.036,25.784c1.096,4.113 4.525,17.142 4.936,18.855c0.207,1.648 0.344,2.608 1.92,2.608c1.508,-0 9.189,-0.549 10.353,-0.549c0.481,-0 0.823,0.068 1.097,0.068c0.481,0 0.755,-0.205 1.03,-1.165c0.548,-1.648 2.331,-14.607 3.702,-20.024c1.508,-5.348 3.428,-15.29 3.979,-18.102c0.615,-2.743 1.164,-5.418 1.645,-6.722c0.137,-0.478 0.205,-0.822 0.205,-1.096c0,-0.479 -0.275,-0.686 -1.302,-0.823Zm144.36,15.386c0,-6.521 0,-12.764 0.141,-13.803c0.288,-2.152 0.288,-3.333 -1.701,-3.121c-1.986,0.346 -6.315,0.554 -7.804,0.554c-1.487,0 -3.617,-0.14 -3.617,1.871c-0.071,1.042 -0.071,3.33 -0.071,5.344l0,3.815l-1.064,-1.596c-0.637,-0.903 -1.416,-2.079 -2.056,-3.261c-1.349,-2.221 -2.839,-6.035 -5.815,-6.035c-2.059,-0 -2.485,-0.138 -3.266,-0.138c-0.355,0 -0.779,0 -1.561,0.138c-2.268,0.484 -3.046,0.484 -4.183,0.415c-0.993,-0.07 -1.843,0.208 -1.843,2.152c-0,0.486 0.071,0.969 0.141,1.597c0.142,0.969 0.213,2.633 0.213,4.648c-0,5.133 -0.354,12.833 -0.354,18.731c0.211,8.393 0.565,18.105 0.565,20.258c-0.07,2.219 0.142,2.707 1.633,2.495c1.56,-0.206 4.398,-0.414 5.534,-0.414c0.849,0.068 1.344,0.068 1.344,-0.969c-0,-0.213 -0,-0.488 -0.07,-0.836c-0.354,-1.871 -0.425,-13.322 -0.425,-16.442c-0.07,-1.596 0,-3.261 0,-4.856l0,-2.634l3.122,5.755c1.701,3.122 3.616,6.663 4.681,8.396c2.127,3.538 3.974,7.77 4.965,9.643c0.853,1.803 1.49,2.569 3.404,2.569c1.561,0 3.904,-0.281 5.464,-0.281c0.425,0 0.849,0 1.137,0.069c0.353,0.074 0.636,0.074 0.848,0.074c0.63,0 1.019,-0.246 1.102,-0.878c-0.114,-1.595 -0.464,-12.634 -0.464,-17.577l0,-15.683Zm42.704,-5.34c0,-3.745 0,-7.006 -0.143,-8.185c-0.212,-1.803 -0.994,-2.084 -1.773,-2.084c-0.424,-0 -0.781,0.068 -1.065,0.068l-9.006,0c-1.348,0 -1.706,0.558 -1.706,2.223c-0,1.665 0.429,7.839 0.429,11.239c0.071,0.694 0.071,1.595 0.071,2.637c-0,4.232 -0.284,10.477 -0.284,12.072c-0,2.149 -0.5,6.521 -4.752,6.521c-4.329,-0 -4.117,-4.096 -4.117,-5.759l-0,-27.752c-0.071,-1.038 -0.14,-1.457 -1.064,-1.457c-0.496,-0 -1.632,-0.07 -2.835,-0.07c-0.853,-0 -1.777,0.07 -2.556,0.139c-0.782,0.069 -1.56,0.139 -2.342,0.139c-1.203,-0 -2.48,-0.07 -3.688,-0.139c-1.914,-0.069 -1.56,1.111 -1.56,2.499c-0,1.319 0.212,6.798 0.212,11.446c0.141,3.679 -0.283,11.934 -0.283,16.858c-0,1.112 -0,2.085 0.071,2.777c0.284,3.606 1.349,15.818 18.162,15.818c16.739,0 18.157,-19.843 18.157,-24.072c-0,-2.569 0.072,-9.298 0.072,-14.918Zm48.875,9.226c-0.571,0.278 -1.208,0.416 -1.92,0.416c-0,-0.208 -0.07,-0.346 -0.07,-0.553c0,-0.208 0.07,-0.416 0.07,-0.624c-0,-0.764 0.071,-1.526 0.288,-2.429c0.212,-1.733 -0.217,-3.676 0,-3.887c0.353,-0.345 0.848,-0.553 1.344,-0.553c1.136,0 2.272,1.042 2.272,3.955c0,2.15 -0.924,3.192 -1.984,3.675Zm12.056,17.414l-4.965,-8.808c1.206,-1.042 2.342,-2.293 3.262,-3.61c1.632,-2.289 3.335,-5.549 3.335,-9.712c-0,-8.048 -4.896,-14.361 -15.961,-14.361c-4.183,-0 -8.583,0.692 -9.364,0.692c-0.708,0 -1.56,-0.276 -1.56,2.153c0,0.416 0,0.969 0.071,1.523c0.14,2.153 0.283,7.632 0.283,12.699c0,4.371 -0.071,8.393 -0.354,9.781c-0.142,0.693 -0.213,2.081 -0.213,3.814c-0,5.621 0.567,14.987 0.567,16.582c0,0.628 -0.071,1.181 -0.071,1.597c0,0.972 0.216,1.525 1.56,1.525c1.847,0 7.449,-0.761 9.152,-0.553c1.348,0.208 2.059,-0.07 2.059,-1.18c-0,-0.208 -0,-0.415 -0.074,-0.693c-0.212,-0.764 -0.495,-5.69 -0.707,-10.269c-0.213,-2.707 -0.355,-5.69 -0.567,-8.95l3.616,6.871c1.915,3.744 3.971,7.7 4.895,9.365c1.703,3.261 1.844,4.994 3.051,4.994c1.206,0 6.88,-0.208 8.014,-0.208c0.708,-0 1.349,0.07 1.349,-0.414c-0,-0.35 -0.282,-0.904 -0.994,-2.015c-0.991,-1.388 -3.758,-6.243 -6.384,-10.823Zm38.517,-35.033c-0.637,-0.07 -1.844,-0.138 -3.047,-0.138c-1.636,-0 -3.337,0.068 -3.832,0.068c-0.922,-0 -2.128,-0.349 -2.697,2.011c-0.567,2.426 -1.986,6.383 -2.551,7.978c-0.713,1.457 -3.404,8.536 -3.976,10.199l-1.06,2.985l-0.57,1.733c-0.355,-1.179 -0.778,-2.291 -1.133,-3.328c-0.641,-1.878 -1.418,-3.957 -1.989,-5.276c-1.132,-2.569 -2.693,-6.659 -3.474,-9.02l-1.774,-5.755c-0.283,-0.766 0.142,-1.249 -0.994,-1.457c-1.203,-0.07 -2.482,-0.138 -3.546,-0.07c-1.066,0.07 -2.128,0.138 -2.128,0.901c0,0.764 0.779,1.803 1.35,3.679c0.565,1.803 4.61,13.525 5.46,15.54c0.782,2.149 1.277,4.368 2.056,6.244c0.782,1.734 1.773,5.341 2.13,6.032c0.354,0.766 -0.212,1.458 -0.712,2.637c-0.353,1.25 -1.63,3.957 -1.842,5.138l-2.556,6.727c-0.071,0.277 -0.283,0.555 -0.283,0.763c0,0.28 0.212,0.418 0.924,0.418c1.136,0 4.54,-0.07 5.601,-0.07l4.187,-0.068c0.641,0.068 0.853,-0.35 1.136,-1.389c0.213,-0.972 0.637,-3.887 1.061,-5.066c0.288,-1.177 5.252,-13.388 6.601,-16.51c1.131,-3.122 5.177,-12.907 6.101,-15.54c1.131,-2.638 2.551,-7.217 2.905,-8.051c0.07,-0.278 0.142,-0.416 0.142,-0.624c-0,-0.345 -0.355,-0.553 -1.49,-0.691Zm-79.731,26.225c-0.779,-0 -2.409,-0.069 -3.829,-0.069c-1.064,-0 -1.984,0.069 -2.413,0.138c-0.919,-0 -3.404,0.137 -4.112,0.137c-0.64,0 -1.986,0.208 -1.986,-0.695c0,-0.139 0.071,-0.277 0.143,-0.484c0.565,-1.458 1.984,-6.659 2.339,-8.324c0.569,-1.668 2.342,-7.913 2.697,-9.438c0.493,-1.596 0.848,-3.4 1.134,-3.4c0.354,-0 1.062,2.43 1.417,3.68c0.215,1.177 1.775,6.521 2.483,8.6c0.783,2.085 1.986,6.59 2.556,7.84c0.283,0.696 0.495,1.249 0.495,1.526c-0,0.347 -0.212,0.489 -0.924,0.489Zm10.429,13.04c-0.565,-2.148 -2.339,-7.215 -2.909,-8.88c-0.779,-1.735 -3.263,-8.532 -3.828,-9.919c-0.355,-1.25 -3.475,-9.367 -3.692,-10.617c-0.353,-1.11 -1.772,-6.727 -2.551,-8.534c-0.782,-1.942 -1.278,-3.469 -1.914,-3.469c-1.348,-0 -1.919,1.388 -2.484,3.331c-0.355,1.876 -1.844,5.759 -2.199,6.801c-0.498,1.037 -0.993,2.845 -1.631,4.855c-0.57,2.08 -1.561,5.48 -1.918,7.147c-0.353,1.596 -1.344,4.438 -1.844,6.591c-0.353,2.011 -1.701,6.035 -2.268,7.977c-0.57,1.872 -1.136,3.953 -1.348,5.065c-0.212,1.317 -0.782,2.637 -0.994,3.398l-0.638,2.567c-0.212,0.486 -0.212,0.766 -0.283,0.974c-0.07,0.138 -0.07,0.276 -0.07,0.345c-0.212,0.624 -0.142,0.9 0.353,0.9l1.42,0c0.636,0 0.565,-0.069 0.778,-0.622c0.141,-0.623 0.282,-1.249 0.499,-1.805c0.283,-0.902 0.495,-1.941 0.707,-2.221c0.284,-0.554 0.567,-1.733 0.638,-2.287c0.215,-0.555 1.277,-5.967 1.63,-7.078l0.288,-1.315l0.141,-0.696c0.142,-0.554 0.354,-0.762 0.638,-0.762l4.469,0c2.268,0 4.681,0 5.248,-0.07c0.498,0 1.844,-0.068 3.05,-0.137c0.712,-0.073 1.419,-0.073 2.201,-0.073c0.495,-0 0.637,-0 1.133,1.111l0.641,2.011c0.353,1.11 0.848,2.36 1.132,2.983c0.569,1.112 1.277,3.679 1.49,4.718c0.07,0.488 0.358,1.807 0.853,3.122c0.212,0.764 0.425,1.595 0.778,2.499c0.216,0.553 0.428,0.622 0.783,0.622l3.97,0c0.64,0 0.782,-0.069 0.782,-0.276c-0,-0.138 -0.071,-0.346 -0.212,-0.693c-0.354,-0.902 -2.272,-5.344 -2.839,-7.563Zm-72.352,7.495l-0.034,0.233c0.021,0.309 0.034,0.27 0.034,-0.233Zm-109.169,-46.973c-1.491,0 -8.652,-0.206 -12.34,-0.206c-3.832,0 -9.721,0.419 -11.92,0.419c-2.197,-0 -5.817,-1.18 -5.601,1.387c0.213,2.564 0.213,7.84 0.213,10.612c-0,2.846 -0.57,9.716 -0.57,14.364c-0,4.648 0.357,10.057 0.357,14.291c0,3.053 0.141,3.468 0.141,3.952c0,0.142 0,0.35 -0.071,0.626c0,0.416 -0.07,0.762 -0.07,1.112c0,0.623 0.213,1.039 1.631,1.039c1.486,0 5.531,0.138 9.29,0.138c1.419,0 2.768,0 3.973,-0.07c1.561,-0.068 3.335,-0.068 5.108,-0.068c3.263,0 6.455,0.068 7.732,0.208c0.496,0.068 0.924,0.068 1.277,0.068c1.065,0 1.491,-0.208 1.491,-0.831c0,-0.764 0.141,-1.526 0.141,-2.152c-0,-0.762 -0,-1.109 -0.782,-1.109c-0.779,-0 -2.623,-0.138 -4.538,-0.138c-1.918,-0 -4.328,0.208 -6.882,0.208c-2.552,0 -4.895,-0.138 -7.52,-0.138c-1.344,0 -3.121,0 -4.608,-0.07c-0.852,-0 -1.777,-0 -2.696,-0.068c-0,-0.558 -0,-1.111 0.071,-1.738c0,-1.038 0.07,-2.288 0.07,-3.468l-0.07,-8.255c0,-1.596 -0.284,-2.292 -0.284,-3.887c0,-0.761 0.072,-1.595 0.142,-2.219l0.212,-1.111c0.638,0.07 1.278,0.07 1.986,0.07c1.206,-0 2.766,0.07 4.186,-0.138c2.839,-0.208 6.243,-0.208 8.864,-0.208c2.697,0 8.798,0.764 9.793,0.764c1.062,0 0.991,-0.14 1.062,-0.764c0.069,-0.554 0.069,-2.149 0.141,-2.499c0.071,-0.278 -0.072,-0.899 -0.85,-0.899c-0.141,-0 -0.282,0.068 -0.424,0.068c-0.286,0.069 -0.641,0.069 -1.065,0.069c-1.42,0 -3.617,-0.207 -4.894,-0.207c-1.703,0 -2.839,0.207 -3.692,0.207c-0.848,0 -3.263,-0.277 -5.531,-0.277c-2.197,0 -3.688,0.277 -4.893,0.277l-2.84,0c-0.636,0 -1.277,0 -1.913,-0.069c-0.071,-0.622 -0.071,-1.18 -0.071,-1.733l-0,-2.777c-0,-1.596 -0.284,-3.399 -0.284,-5.34c-0,-1.042 -0,-2.223 0.071,-3.264l0.142,-1.873l1.631,-0.139c0.92,-0.068 2.127,-0.207 3.192,-0.207l8.793,0.07l11.354,-0c1.345,-0 1.486,0.208 2.267,0.208c0.284,-0 0.284,-0.9 0.284,-1.596l0,-0.761c0,-0.766 0.283,-1.878 -1.206,-1.878Zm39.865,25.257c-0.213,-0.626 -0.566,-1.18 -1.632,-1.25c-2.197,-0.068 -6.17,-0.834 -9.222,-1.179c-2.835,-0.278 -5.177,-0.623 -5.815,-0.693c-0.781,-0.069 -1.277,-0.207 -1.773,1.457c-0.357,1.389 -0.569,2.08 -0.569,2.704c-0,0.418 0.141,0.834 1.348,0.972c0.782,0.07 1.632,0.208 2.485,0.346l1.419,0.277c-0,1.318 -0.145,2.43 -0.5,3.471c-0.566,1.735 -1.701,3.468 -3.97,3.468c-4.753,-0 -4.469,-6.658 -4.469,-10.545c0,-4.022 1.419,-9.989 4.54,-9.989c1.773,-0 2.48,1.733 2.98,2.357c0.424,0.488 0.495,1.249 1.062,1.249c0.212,0 0.357,-0.07 0.569,-0.138c0.213,-0 0.353,-0.069 0.566,-0.207c0.354,-0.208 0.783,-0.416 1.348,-0.904c1.207,-0.762 2.556,-1.734 3.9,-2.496c1.42,-0.627 3.975,-2.014 5.112,-2.568c0.919,-0.484 1.272,-0.484 1.272,-0.904c0,-0.069 0,-0.208 -0.069,-0.345c-0.284,-0.624 -0.709,-2.011 -1.062,-2.776c-0.358,-0.692 -4.329,-9.435 -14.899,-9.435c-5.108,-0 -19.153,2.36 -19.153,26.432c0,20.884 15.041,24.422 19.51,24.422c6.027,0 15.961,-3.883 17.093,-22.545c0.071,-0.42 -0,-0.835 -0.071,-1.181Zm20.005,1.181c-0.782,-0 -2.413,-0.069 -3.833,-0.069c-1.06,-0 -1.984,0.069 -2.409,0.138c-0.924,-0 -3.404,0.137 -4.116,0.137c-0.638,0 -1.985,0.208 -1.985,-0.695c0,-0.139 0.07,-0.277 0.141,-0.484c0.567,-1.458 1.985,-6.659 2.342,-8.324c0.567,-1.668 2.34,-7.913 2.694,-9.438c0.499,-1.596 0.853,-3.4 1.136,-3.4c0.353,-0 1.065,2.43 1.418,3.68c0.214,1.177 1.774,6.521 2.482,8.6c0.782,2.085 1.989,6.59 2.553,7.84c0.285,0.696 0.496,1.249 0.496,1.526c0,0.347 -0.211,0.489 -0.919,0.489Zm10.424,13.04c-0.565,-2.148 -2.337,-7.215 -2.903,-8.88c-0.784,-1.735 -3.264,-8.532 -3.833,-9.919c-0.355,-1.25 -3.476,-9.367 -3.688,-10.617c-0.353,-1.11 -1.772,-6.727 -2.554,-8.534c-0.779,-1.942 -1.279,-3.469 -1.915,-3.469c-1.348,-0 -1.915,1.388 -2.484,3.331c-0.355,1.876 -1.844,5.759 -2.197,6.801c-0.496,1.037 -0.996,2.845 -1.632,4.855c-0.567,2.08 -1.561,5.48 -1.915,7.147c-0.353,1.596 -1.348,4.438 -1.844,6.591c-0.357,2.011 -1.702,6.035 -2.272,7.977c-0.565,1.872 -1.132,3.953 -1.349,5.065c-0.212,1.317 -0.777,2.637 -0.991,3.398l-0.64,2.567c-0.212,0.486 -0.212,0.766 -0.282,0.974c-0.071,0.138 -0.071,0.276 -0.071,0.345c-0.213,0.624 -0.142,0.9 0.353,0.9l1.419,0c0.641,0 0.57,-0.069 0.783,-0.622c0.141,-0.623 0.282,-1.249 0.494,-1.805c0.284,-0.902 0.496,-1.941 0.708,-2.221c0.288,-0.554 0.571,-1.733 0.641,-2.287c0.213,-0.555 1.278,-5.967 1.631,-7.078l0.284,-1.315l0.142,-0.696c0.141,-0.554 0.353,-0.762 0.641,-0.762l4.465,0c2.272,0 4.682,0 5.252,-0.07c0.495,0 1.844,-0.068 3.049,-0.137c0.707,-0.073 1.42,-0.073 2.199,-0.073c0.495,-0 0.636,-0 1.136,1.111l0.637,2.011c0.354,1.11 0.852,2.36 1.136,2.983c0.565,1.112 1.277,3.679 1.489,4.718c0.071,0.488 0.355,1.807 0.85,3.122c0.212,0.764 0.428,1.595 0.781,2.499c0.213,0.553 0.425,0.622 0.78,0.622l3.973,0c0.638,0 0.779,-0.069 0.779,-0.276c-0,-0.138 -0.071,-0.346 -0.212,-0.693c-0.355,-0.902 -2.268,-5.344 -2.84,-7.563Z" style="fill:#fff;fill-rule:nonzero"/></g></svg>